<?xml version="1.0" encoding="UTF-8"?>
<!DOCTYPE svg PUBLIC "-//W3C//DTD SVG 1.1//EN" "http://www.w3.org/Graphics/SVG/1.1/DTD/svg11.dtd">
<!-- Creator: CorelDRAW X7 -->
<svg xmlns="http://www.w3.org/2000/svg" xml:space="preserve" width="95.3727mm" height="71.929mm" version="1.1" style="shape-rendering:geometricPrecision; text-rendering:geometricPrecision; image-rendering:optimizeQuality; fill-rule:evenodd; clip-rule:evenodd"
viewBox="0 0 95113 71733"
 xmlns:xlink="http://www.w3.org/1999/xlink">
 <defs>
  <style type="text/css">
   <![CDATA[
    .str0 {stroke:black;stroke-width:199.456; opacity:0.1;}
    .fil0 {fill:none}
   ]]>
  </style>
 </defs>
 <g id="Capa_x0020_1">
  <metadata id="CorelCorpID_0Corel-Layer"/>
  <g id="_357541928">
   <polygon class="fil0 str0" points="8682,4421 10083,6644 11484,8867 10091,11094 8698,13320 5904,13323 3110,13326 1709,11103 307,8880 1700,6654 3093,4428 5888,4425 "/>
   <polygon class="fil0 str0" points="8660,13277 10061,15500 11462,17723 10069,19949 8676,22175 5882,22179 3088,22182 1687,19959 286,17736 1679,15510 3072,13283 5866,13280 "/>
   <polygon class="fil0 str0" points="8564,22241 9965,24464 11366,26687 9973,28913 8580,31139 5786,31143 2992,31146 1591,28923 189,26700 1583,24474 2976,22247 5770,22244 "/>
   <polygon class="fil0 str0" points="8542,31096 9943,33319 11345,35542 9951,37769 8558,39995 5764,39998 2970,40001 1569,37778 168,35555 1561,33329 2954,31103 5748,31100 "/>
   <polygon class="fil0 str0" points="8610,40011 10011,42234 11412,44457 10019,46683 8626,48910 5832,48913 3038,48916 1637,46693 236,44470 1629,42244 3022,40017 5816,40014 "/>
   <polygon class="fil0 str0" points="8588,48867 9990,51090 11391,53312 9998,55539 8605,57765 5810,57768 3016,57772 1615,55548 214,53325 1607,51099 3000,48873 5794,48870 "/>
   <polygon class="fil0 str0" points="8492,57830 9893,60053 11295,62276 9901,64503 8508,66729 5714,66732 2920,66735 1519,64512 118,62289 1511,60063 2904,57837 5698,57834 "/>
   <polygon class="fil0 str0" points="17014,100 18415,2323 19816,4546 18423,6772 17030,8998 14236,9002 11442,9005 10041,6782 8640,4559 10033,2333 11426,106 14220,103 "/>
   <polygon class="fil0 str0" points="16992,8955 18393,11178 19795,13401 18401,15628 17008,17854 14214,17857 11420,17860 10019,15637 8618,13414 10011,11188 11404,8962 14198,8959 "/>
   <polygon class="fil0 str0" points="16896,17919 18297,20142 19698,22365 18305,24592 16912,26818 14118,26821 11324,26824 9923,24601 8522,22378 9915,20152 11308,17926 14102,17922 "/>
   <polygon class="fil0 str0" points="16874,26775 18276,28998 19677,31221 18284,33447 16891,35673 14096,35677 11302,35680 9901,33457 8500,31234 9893,29008 11286,26781 14080,26778 "/>
   <polygon class="fil0 str0" points="16942,35689 18343,37912 19745,40135 18352,42362 16959,44588 14164,44591 11370,44594 9969,42371 8568,40148 9961,37922 11354,35696 14148,35693 "/>
   <polygon class="fil0 str0" points="16921,44545 18322,46768 19723,48991 18330,51217 16937,53443 14143,53447 11348,53450 9947,51227 8546,49004 9939,46778 11332,44551 14126,44548 "/>
   <polygon class="fil0 str0" points="16824,53509 18226,55732 19627,57955 18234,60181 16841,62407 14046,62411 11252,62414 9851,60191 8450,57968 9843,55742 11236,53515 14030,53512 "/>
   <polygon class="fil0 str0" points="16803,62364 18204,64587 19605,66810 18212,69037 16819,71263 14025,71266 11231,71269 9829,69046 8428,66823 9821,64597 11214,62371 14008,62368 "/>
   <polygon class="fil0 str0" points="25323,4605 26724,6828 28125,9050 26732,11277 25339,13503 22545,13506 19751,13510 18349,11286 16948,9063 18341,6837 19734,4611 22529,4608 "/>
   <polygon class="fil0 str0" points="25301,13460 26702,15683 28103,17906 26710,20132 25317,22359 22523,22362 19729,22365 18328,20142 16927,17919 18320,15693 19713,13466 22507,13463 "/>
   <polygon class="fil0 str0" points="25205,22424 26606,24647 28007,26870 26614,29096 25221,31323 22427,31326 19633,31329 18232,29106 16830,26883 18223,24657 19616,22430 22411,22427 "/>
   <polygon class="fil0 str0" points="25183,31280 26584,33503 27985,35725 26592,37952 25199,40178 22405,40181 19611,40185 18210,37961 16809,35738 18202,33512 19595,31286 22389,31283 "/>
   <polygon class="fil0 str0" points="25251,40194 26652,42417 28053,44640 26660,46866 25267,49093 22473,49096 19679,49099 18278,46876 16877,44653 18270,42427 19663,40200 22457,40197 "/>
   <polygon class="fil0 str0" points="25229,49050 26630,51273 28032,53496 26638,55722 25245,57948 22451,57951 19657,57955 18256,55732 16855,53509 18248,51282 19641,49056 22435,49053 "/>
   <polygon class="fil0 str0" points="25133,58014 26534,60237 27935,62460 26542,64686 25149,66912 22355,66915 19561,66919 18160,64696 16759,62472 18152,60246 19545,58020 22339,58017 "/>
   <polygon class="fil0 str0" points="33713,294 35114,2518 36516,4740 35123,6967 33730,9193 30935,9196 28141,9199 26740,6976 25339,4753 26732,2527 28125,301 30919,298 "/>
   <polygon class="fil0 str0" points="33692,9150 35093,11373 36494,13596 35101,15822 33708,18049 30914,18052 28119,18055 26718,15832 25317,13609 26710,11383 28103,9156 30897,9153 "/>
   <polygon class="fil0 str0" points="33595,18114 34997,20337 36398,22560 35005,24786 33612,27012 30817,27016 28023,27019 26622,24796 25221,22573 26614,20347 28007,18120 30801,18117 "/>
   <polygon class="fil0 str0" points="33574,26969 34975,29193 36376,31415 34983,33642 33590,35868 30796,35871 28002,35874 26600,33651 25199,31428 26592,29202 27985,26976 30779,26973 "/>
   <polygon class="fil0 str0" points="33642,35884 35043,38107 36444,40330 35051,42556 33658,44783 30864,44786 28069,44789 26668,42566 25267,40343 26660,38117 28053,35890 30847,35887 "/>
   <polygon class="fil0 str0" points="33620,44740 35021,46963 36422,49186 35029,51412 33636,53638 30842,53641 28048,53645 26647,51422 25245,49199 26638,46972 28031,44746 30826,44743 "/>
   <polygon class="fil0 str0" points="33524,53704 34925,55927 36326,58149 34933,60376 33540,62602 30746,62605 27952,62609 26550,60385 25149,58162 26542,55936 27935,53710 30730,53707 "/>
   <polygon class="fil0 str0" points="33502,62559 34903,64782 36304,67005 34911,69231 33518,71458 30724,71461 27930,71464 26529,69241 25128,67018 26521,64792 27914,62565 30708,62562 "/>
   <polygon class="fil0 str0" points="42022,4799 43423,7022 44824,9245 43431,11471 42038,13698 39244,13701 36450,13704 35049,11481 33648,9258 35041,7032 36434,4806 39228,4802 "/>
   <polygon class="fil0 str0" points="42000,13655 43401,15878 44803,18101 43410,20327 42017,22553 39222,22556 36428,22560 35027,20337 33626,18114 35019,15887 36412,13661 39206,13658 "/>
   <polygon class="fil0 str0" points="41904,22619 43305,24842 44706,27065 43313,29291 41920,31517 39126,31520 36332,31524 34931,29301 33530,27078 34923,24851 36316,22625 39110,22622 "/>
   <polygon class="fil0 str0" points="41882,31474 43284,33697 44685,35920 43292,38146 41899,40373 39104,40376 36310,40379 34909,38156 33508,35933 34901,33707 36294,31481 39088,31477 "/>
   <polygon class="fil0 str0" points="41950,40389 43351,42612 44753,44835 43360,47061 41967,49287 39172,49290 36378,49294 34977,47071 33576,44848 34969,42621 36362,40395 39156,40392 "/>
   <polygon class="fil0 str0" points="41929,49244 43330,51467 44731,53690 43338,55917 41945,58143 39151,58146 36356,58149 34955,55926 33554,53703 34947,51477 36340,49251 39134,49247 "/>
   <polygon class="fil0 str0" points="41832,58208 43234,60431 44635,62654 43242,64881 41849,67107 39055,67110 36260,67113 34859,64890 33458,62667 34851,60441 36244,58215 39038,58211 "/>
   <polygon class="fil0 str0" points="50443,269 51844,2492 53245,4715 51852,6941 50459,9168 47665,9171 44871,9174 43469,6951 42068,4728 43461,2502 44854,276 47649,272 "/>
   <polygon class="fil0 str0" points="50421,9125 51822,11348 53223,13571 51830,15797 50437,18023 47643,18026 44849,18030 43448,15807 42047,13584 43440,11357 44833,9131 47627,9128 "/>
   <polygon class="fil0 str0" points="50325,18089 51726,20312 53127,22535 51734,24761 50341,26987 47547,26990 44753,26994 43352,24771 41950,22548 43344,20321 44737,18095 47531,18092 "/>
   <polygon class="fil0 str0" points="50303,26944 51704,29167 53105,31390 51712,33616 50319,35843 47525,35846 44731,35849 43330,33626 41929,31403 43322,29177 44715,26951 47509,26947 "/>
   <polygon class="fil0 str0" points="50371,35859 51772,38082 53173,40305 51780,42531 50387,44757 47593,44760 44799,44764 43398,42541 41997,40318 43390,38091 44783,35865 47577,35862 "/>
   <polygon class="fil0 str0" points="50349,44714 51750,46937 53152,49160 51759,51387 50366,53613 47571,53616 44777,53619 43376,51396 41975,49173 43368,46947 44761,44721 47555,44717 "/>
   <polygon class="fil0 str0" points="50253,53678 51654,55901 53055,58124 51662,60350 50269,62577 47475,62580 44681,62583 43280,60360 41879,58137 43272,55911 44665,53685 47459,53681 "/>
   <polygon class="fil0 str0" points="50231,62534 51633,64757 53034,66980 51641,69206 50248,71432 47453,71435 44659,71439 43258,69216 41857,66993 43250,64766 44643,62540 47437,62537 "/>
   <polygon class="fil0 str0" points="58751,4774 60153,6997 61554,9220 60161,11446 58768,13672 55974,13676 53179,13679 51778,11456 50377,9233 51770,7007 53163,4780 55957,4777 "/>
   <polygon class="fil0 str0" points="58730,13629 60131,15852 61532,18075 60139,20302 58746,22528 55952,22531 53158,22534 51756,20311 50355,18088 51748,15862 53141,13636 55936,13633 "/>
   <polygon class="fil0 str0" points="58634,22593 60035,24816 61436,27039 60043,29266 58650,31492 55856,31495 53061,31498 51660,29275 50259,27052 51652,24826 53045,22600 55839,22597 "/>
   <polygon class="fil0 str0" points="58612,31449 60013,33672 61414,35895 60021,38121 58628,40347 55834,40351 53040,40354 51639,38131 50237,35908 51630,33682 53023,31455 55818,31452 "/>
   <polygon class="fil0 str0" points="58680,40363 60081,42586 61482,44809 60089,47036 58696,49262 55902,49265 53108,49268 51706,47045 50305,44822 51698,42596 53091,40370 55886,40367 "/>
   <polygon class="fil0 str0" points="58658,49219 60059,51442 61460,53665 60067,55891 58674,58117 55880,58121 53086,58124 51685,55901 50284,53678 51677,51452 53070,49225 55864,49222 "/>
   <polygon class="fil0 str0" points="58562,58183 59963,60406 61364,62629 59971,64855 58578,67081 55784,67085 52990,67088 51589,64865 50187,62642 51581,60416 52974,58189 55768,58186 "/>
   <polygon class="fil0 str0" points="67142,464 68543,2687 69944,4910 68551,7136 67158,9362 64364,9366 61570,9369 60169,7146 58768,4923 60161,2697 61554,470 64348,467 "/>
   <polygon class="fil0 str0" points="67120,9319 68521,11542 69923,13765 68530,15992 67137,18218 64342,18221 61548,18224 60147,16001 58746,13778 60139,11552 61532,9326 64326,9323 "/>
   <polygon class="fil0 str0" points="67024,18283 68425,20506 69827,22729 68433,24956 67040,27182 64246,27185 61452,27188 60051,24965 58650,22742 60043,20516 61436,18290 64230,18286 "/>
   <polygon class="fil0 str0" points="67002,27139 68404,29362 69805,31585 68412,33811 67019,36037 64225,36041 61430,36044 60029,33821 58628,31598 60021,29372 61414,27145 64208,27142 "/>
   <polygon class="fil0 str0" points="67070,36053 68472,38276 69873,40499 68480,42726 67087,44952 64292,44955 61498,44958 60097,42735 58696,40512 60089,38286 61482,36060 64276,36057 "/>
   <polygon class="fil0 str0" points="67049,44909 68450,47132 69851,49355 68458,51581 67065,53807 64271,53811 61477,53814 60075,51591 58674,49368 60067,47142 61460,44915 64254,44912 "/>
   <polygon class="fil0 str0" points="66952,53873 68354,56096 69755,58319 68362,60545 66969,62771 64175,62775 61380,62778 59979,60555 58578,58332 59971,56106 61364,53879 64158,53876 "/>
   <polygon class="fil0 str0" points="66931,62728 68332,64951 69733,67174 68340,69401 66947,71627 64153,71630 61359,71633 59957,69410 58556,67187 59949,64961 61342,62735 64137,62732 "/>
   <polygon class="fil0 str0" points="75451,4969 76852,7192 78253,9415 76860,11641 75467,13867 72673,13870 69879,13874 68478,11651 67076,9427 68469,7201 69862,4975 72657,4972 "/>
   <polygon class="fil0 str0" points="75429,13824 76830,16047 78231,18270 76838,20496 75445,22723 72651,22726 69857,22729 68456,20506 67055,18283 68448,16057 69841,13830 72635,13827 "/>
   <polygon class="fil0 str0" points="75333,22788 76734,25011 78135,27234 76742,29460 75349,31687 72555,31690 69761,31693 68360,29470 66958,27247 68352,25021 69745,22794 72539,22791 "/>
   <polygon class="fil0 str0" points="75311,31644 76712,33867 78114,36090 76720,38316 75327,40542 72533,40545 69739,40549 68338,38325 66937,36102 68330,33876 69723,31650 72517,31647 "/>
   <polygon class="fil0 str0" points="75379,40558 76780,42781 78181,45004 76788,47230 75395,49457 72601,49460 69807,49463 68406,47240 67005,45017 68398,42791 69791,40564 72585,40561 "/>
   <polygon class="fil0 str0" points="75357,49414 76759,51637 78160,53860 76767,56086 75374,58312 72579,58315 69785,58319 68384,56096 66983,53873 68376,51646 69769,49420 72563,49417 "/>
   <polygon class="fil0 str0" points="75261,58378 76662,60601 78064,62824 76670,65050 75277,67276 72483,67279 69689,67283 68288,65060 66887,62837 68280,60610 69673,58384 72467,58381 "/>
   <polygon class="fil0 str0" points="83884,451 85285,2674 86687,4897 85294,7123 83901,9350 81106,9353 78312,9356 76911,7133 75510,4910 76903,2684 78296,458 81090,454 "/>
   <polygon class="fil0 str0" points="83863,9307 85264,11530 86665,13753 85272,15979 83879,18205 81085,18208 78290,18212 76889,15989 75488,13766 76881,11539 78274,9313 81068,9310 "/>
   <polygon class="fil0 str0" points="83766,18271 85168,20494 86569,22717 85176,24943 83783,27169 80988,27172 78194,27176 76793,24953 75392,22730 76785,20503 78178,18277 80972,18274 "/>
   <polygon class="fil0 str0" points="83745,27126 85146,29349 86547,31572 85154,33798 83761,36025 80967,36028 78173,36031 76771,33808 75370,31585 76763,29359 78156,27133 80950,27129 "/>
   <polygon class="fil0 str0" points="83813,36041 85214,38264 86615,40487 85222,42713 83829,44939 81035,44942 78240,44946 76839,42723 75438,40500 76831,38273 78224,36047 81018,36044 "/>
   <polygon class="fil0 str0" points="83791,44896 85192,47119 86593,49342 85200,51569 83807,53795 81013,53798 78219,53801 76818,51578 75416,49355 76809,47129 78202,44903 80997,44899 "/>
   <polygon class="fil0 str0" points="83695,53860 85096,56083 86497,58306 85104,60532 83711,62759 80917,62762 78123,62765 76721,60542 75320,58319 76713,56093 78106,53867 80900,53863 "/>
   <polygon class="fil0 str0" points="83673,62716 85074,64939 86475,67162 85082,69388 83689,71614 80895,71617 78101,71621 76700,69398 75298,67175 76692,64948 78085,62722 80879,62719 "/>
   <polygon class="fil0 str0" points="92193,4956 93594,7179 94995,9402 93602,11628 92209,13854 89415,13858 86621,13861 85220,11638 83819,9415 85212,7189 86605,4962 89399,4959 "/>
   <polygon class="fil0 str0" points="92171,13811 93572,16034 94974,18257 93580,20484 92187,22710 89393,22713 86599,22716 85198,20493 83797,18270 85190,16044 86583,13818 89377,13815 "/>
   <polygon class="fil0 str0" points="92075,22775 93476,24998 94877,27221 93484,29448 92091,31674 89297,31677 86503,31680 85102,29457 83701,27234 85094,25008 86487,22782 89281,22779 "/>
   <polygon class="fil0 str0" points="92053,31631 93455,33854 94856,36077 93463,38303 92070,40529 89275,40533 86481,40536 85080,38313 83679,36090 85072,33864 86465,31637 89259,31634 "/>
   <polygon class="fil0 str0" points="92121,40545 93522,42768 94924,44991 93531,47218 92138,49444 89343,49447 86549,49450 85148,47227 83747,45004 85140,42778 86533,40552 89327,40549 "/>
   <polygon class="fil0 str0" points="92100,49401 93501,51624 94902,53847 93509,56073 92116,58299 89322,58303 86527,58306 85126,56083 83725,53860 85118,51634 86511,49407 89305,49404 "/>
   <polygon class="fil0 str0" points="92003,58365 93405,60588 94806,62811 93413,65037 92020,67263 89225,67267 86431,67270 85030,65047 83629,62824 85022,60598 86415,58371 89209,58368 "/>
  </g>
 </g>
</svg>
