<?xml version="1.0" encoding="UTF-8"?>
<!DOCTYPE svg PUBLIC "-//W3C//DTD SVG 1.1//EN" "http://www.w3.org/Graphics/SVG/1.1/DTD/svg11.dtd">
<!-- Creator: CorelDRAW X7 -->
<svg xmlns="http://www.w3.org/2000/svg" xml:space="preserve" width="144.537mm" height="45.6636mm" version="1.1" style="shape-rendering:geometricPrecision; text-rendering:geometricPrecision; image-rendering:optimizeQuality; fill-rule:evenodd; clip-rule:evenodd"
viewBox="0 0 81748 25827"
 xmlns:xlink="http://www.w3.org/1999/xlink">
 <defs>
  <style type="text/css">
   <![CDATA[
    .fil0 {fill:#007734}
    .fil1 {fill:#76B600}
   ]]>
  </style>
 </defs>
 <g id="Capa_x0020_1">
  <metadata id="CorelCorpID_0Corel-Layer"/>
  <g id="_306390640">
   <path class="fil0" d="M49556 6288l0 282 -94 0 0 282 -469 0 0 1407 -94 0 0 188 -376 0 0 282 -93 0 0 375 -94 0 0 188 -94 0 0 188 -94 0 0 187 -94 0 0 94 -94 0 0 94 -94 0 0 563 94 0 0 563 -187 0 0 94 -94 0 0 469 94 0 0 94 93 0 0 94 188 0 0 -188 94 0 0 -94 94 0 0 -281 281 0 0 -94 94 0 0 -94 94 0 0 -94 94 0 0 -94 281 0 0 -93 188 0 0 -94 94 0 0 -188 282 0 0 -94 94 0 0 -94 93 0 0 -187 282 0 0 -94 751 0 0 -94 94 0 0 -188 94 0 0 -94 187 0 0 -187 94 0 0 -188 282 0 0 -94 93 0 0 -94 94 0 0 -94 188 0 0 -94 282 0 0 188 -188 0 0 94 -94 0 0 376 -94 0 0 469 -94 0 0 94 -94 0 0 93 -93 0 0 188 -94 0 0 939 -282 0 0 94 -375 0 0 93 -94 0 0 94 -94 0 0 188 -188 0 0 94 -93 0 0 188 -94 0 0 187 -188 0 0 94 -94 0 0 188 -188 0 0 94 -187 0 0 94 -94 0 0 93 -94 0 0 94 -94 0 0 94 -94 0 0 188 -94 0 0 563 -281 0 0 94 -94 0 0 94 -94 0 0 94 -94 0 0 93 -94 0 0 94 -93 0 0 188 -94 0 0 188 -94 0 0 93 -94 0 0 94 -94 0 0 657 -94 0 0 470 -94 0 0 469 -93 0 0 281 -94 0c0,1710 467,3567 2252,3567l0 94 188 0 0 94 282 0 0 -94 93 0 0 -94 94 0 0 -94 188 0 0 -94 94 0 0 -187 94 0 0 -282 94 0 0 -94 187 0 0 -94 188 0 0 -94 94 0 0 -93 94 0 0 -94 93 0 0 -94 94 0 0 -94 188 0 0 -188 188 0 0 -94 375 0 0 -93 94 0 0 -94 94 0 0 -94 94 0 0 -94 94 0 0 -188 93 0 0 -93 188 0 0 -94 376 0 0 -94 187 0 0 -188 94 0 0 -94 94 0 0 -94 94 0 0 -469 94 0 0 -282 657 0 0 94 281 0 0 -94 188 0 0 -93 188 0 0 -94 94 0 0 -94 93 0 0 -94 94 0 0 -94 94 0 0 -94 94 0 0 -93 94 0 0 -94 188 0 0 -94 93 0 0 -94 94 0 0 -563 94 0 0 -188 94 0 0 -94 94 0 0 -94 188 0 0 -94 281 0 0 -93 94 0 0 -94 94 0 0 -94 188 0 0 -94 187 0 0 -94 94 0 0 -94 94 0 0 -93 94 0 0 -94 188 0 0 -94 93 0 0 -94 94 0 0 -188 188 0 0 -94 94 0 0 -93 94 0 0 -94 94 0 0 -94 187 0 0 -94 94 0 0 -188c417,0 3093,-2815 3661,-2815l0 -94 281 0 0 -94 188 0 0 -94 94 0 0 -94 375 0 0 -94 188 0 0 -93 187 0 0 -94 94 0 0 -94 94 0 0 -94 282 0 0 -94 94 0 0 -94 93 0 0 -94 188 0 0 -94 376 0 0 -93 93 0 0 -94 94 0 0 -94 188 0 0 -94 657 0 0 1220 -94 0 0 94 94 0 0 1689 -94 0 0 188 -94 0 0 376 94 0 0 281 94 0 0 657 -94 0 0 94 -94 0 0 94 -94 0 0 188 94 0 0 187 94 0 0 94 94 0 0 1126 94 0 0 282 94 0 0 563 -94 0 0 376 -94 0 0 93 94 0 0 470 94 0 0 187 187 0 0 470 94 0 0 281 94 0c0,805 2006,2722 3097,2722l0 94 188 0 0 94 563 0 0 -94 188 0 0 -94 94 0 0 94 657 0 0 94 563 0 0 -94 94 0 0 -94 281 0 0 -94 94 0 0 -94 94 0 0 -94 94 0 0 -93 281 0 0 -94 188 0 0 -94 94 0 0 -94 94 0 0 -94 94 0 0 -94 187 0 0 -94 94 0 0 -187 94 0 0 -94 188 0 0 -94 94 0 0 -188 94 0 0 -94c1192,0 1433,-1783 2252,-1783l0 -94 94 0 0 -94 94 0 0 -93 188 0 0 -188 93 0 0 -94 282 0 0 -94 188 0 0 -94 94 0 0 -93c413,0 3003,-2786 3003,-2910l94 0 0 -94 94 0 0 -94 93 0 0 -94 94 0 0 -187 94 0 0 -94 94 0 0 -94 94 0 0 -188 94 0 0 -469 94 0 0 -563 -94 0 0 -1126 94 0 0 -94 94 0 0 -94 93 0 0 -375 -93 0 0 -94 -94 0 0 -94 -94 0 0 -188 -188 0 0 -94 -375 0 0 94 -282 0 0 94 -94 0 0 188 -188 0 0 94 -187 0 0 187 -94 0 0 94 -94 0 0 94 -188 0 0 94 -93 0 0 94 -94 0 0 93 -188 0 0 94 -94 0 0 94 -94 0 0 188 -281 0 0 94 -94 0 0 94 -94 0 0 93 -94 0 0 94 -188 0 0 94 -187 0 0 94 -94 0 0 94 -94 0 0 94 -188 0 0 94 -281 0 0 93 -94 0 0 94 -94 0 0 94 -94 0 0 94 -281 0 0 94 -188 0 0 94 -94 0 0 94 -94 0 0 93 -94 0 0 94 -94 0 0 94 -93 0 0 94 -94 0 0 94 -94 0 0 281 -94 0 0 188 -188 0 0 94 -94 0 0 188 -93 0 0 281 -94 0 0 94 -94 0 0 94 -751 0 0 94 -94 0 0 94 -94 0 0 187 -94 0 0 94 -93 0 0 94 -94 0 0 94 -94 0 0 94 -94 0 0 94 -94 0 0 93 -94 0 0 94 -94 0 0 94 -93 0 0 94 -188 0 0 94 -94 0 0 188 -94 0 0 94 -94 0 0 93 -94 0 0 94 -93 0 0 94 -94 0 0 94 -469 0 0 94 -282 0 0 94 -94 0 0 94 -94 0 0 -94 -188 0 0 -94 -187 0 0 -376 -94 0 0 -281 -94 0 0 -94 -188 0 0 -376 -93 0 0 -281 -94 0 0 -188 -188 0 0 -375 94 0 0 -94 94 0 0 -188 94 0 0 -94 93 0 0 -281 188 0 0 -94 94 0 0 -282 94 0 0 -2534 94 0 0 -94 93 0 0 -469 94 0 0 -1877 -94 0 0 -94c516,0 -672,-2722 -1032,-2722l0 -187 -94 0 0 -94 -188 0 0 -94 -93 0 0 -188 -94 0 0 -94 -188 0 0 -93 -94 0 0 -94 -94 0 0 -94 -94 0 0 -94 -281 0 0 -94 -282 0 0 -94 -93 0 0 -94 -94 0 0 -93 -1690 0 0 93 -94 0 0 94 -93 0 0 94 -376 0 0 94 -469 0 0 94 -188 0 0 94 -94 0 0 94 -187 0 0 93 -376 0 0 94 -188 0 0 94 -93 0 0 94 -94 0 0 94 -470 0 0 94 -187 0 0 187 -94 0 0 94 -376 0 0 94 -187 0 0 94 -188 0 0 94 -94 0 0 94 -375 0 0 94 -188 0 0 93 -94 0 0 94 -94 0 0 94 -93 0 0 94c-227,0 -2347,1596 -2347,1689l-188 0 0 94 -93 0 0 94 -282 0 0 94 -188 0 0 94 -188 0 0 187 -93 0 0 94 -94 0 0 94 -94 0 0 94 -94 0 0 94 -94 0 0 188 -94 0 0 187 -93 0 0 94 -188 0 0 94 -94 0 0 94 -94 0 0 94 -94 0 0 94 -281 0 0 94 -94 0 0 93 -94 0 0 94 -94 0 0 94 -469 0 0 -94 94 0 0 -94 94 0 0 -281 93 0 0 -376 94 0 0 -281 94 0 0 -188 94 0c0,-3349 -1291,-5256 -4411,-5256l0 94 -188 0 0 94 -94 0 0 94 -94 0 0 94 -94 0 0 93 -93 0 0 94 -94 0 0 94 -94 0 0 282 -94 0 0 187 -94 0 0 94 -94 0 0 94 -93 0 0 188 -94 0 0 94 -94 0 0 94 -94 0 0 93 -94 0 0 94 -188 0 0 94 -94 0 0 94 -93 0 0 94 -94 0 0 94 -282 0 0 94 -94 0 0 93 -93 0 0 188 -470 0 0 94 -563 0 0 94 -94 0 0 187 -281 0 0 94 -94 0z"/>
   <path class="fil1" d="M23370 12295l469 0 0 -94 94 0 0 -187 94 0 0 -94 188 0 0 -94 187 0 0 -188 94 0 0 -94 470 0 0 -94 93 0 0 -93 94 0 0 -188 1033 0 0 94 94 0 0 844 -94 0 0 94 -94 0 0 94 -94 0 0 94 -94 0 0 563 94 0 0 282 94 0 0 94 94 0 0 563 -94 0 0 94 -94 0 0 187 -94 0 0 282 -94 0 0 187 -187 0 0 94 -94 0 0 188 -94 0 0 94 -376 0 0 94 -93 0 0 845 93 0 0 187 94 0 0 94 94 0 0 188 94 0 0 281 94 0 0 282 94 0 0 94 94 0 0 94 94 0 0 375c78,0 1595,1754 1595,1783l94 0 0 94 94 0 0 94 94 0 0 94 93 0 0 94 94 0 0 94 94 0 0 93 94 0 0 188 94 0 0 376c138,0 1481,1595 1971,1595l0 94 94 0 0 188 94 0 0 94 187 0 0 93 188 0 0 94 188 0 0 94 187 0 0 94 282 0 0 94 282 0 0 94 93 0 0 281 94 0 0 94 282 0 0 94 281 0 0 94 188 0 0 94 282 0 0 94 93 0 0 93 94 0 0 94 94 0 0 94 845 0 0 94 94 0 0 94 94 0 0 94 94 0 0 94 281 0 0 93 1126 0 0 94 94 0 0 94 94 0 0 94 188 0 0 94 1689 0 0 -94 376 0 0 -94 187 0 0 -94 94 0 0 -94 657 0 0 -93 469 0 0 -94 94 0 0 -188 94 0 0 -94 94 0 0 -94 1032 0 0 94 188 0 0 -94 188 0 0 -94 188 0 0 -93 187 0 0 -94 282 0 0 -94 94 0 0 -94 94 0 0 -94 187 0 0 -94 188 0 0 -94 94 0 0 -187 94 0 0 -94 93 0 0 -188 94 0 0 -563 94 0 0 -94 94 0 0 -94 94 0 0 -94 94 0 0 -93 -94 0 0 -94 -94 0 0 -188 -94 0 0 -188 94 0 0 -94 188 0 0 -187 187 0 0 -94 94 0 0 -94 94 0 0 -188 94 0 0 -94 188 0 0 -93 94 0 0 -94 93 0 0 -94 94 0 0 -94 188 0 0 -94 94 0 0 -938 94 0 0 -94 94 0 0 -94 281 0 0 -94 94 0 0 -94 94 0 0 -188 94 0 0 -375 -94 0 0 -94 -94 0 0 -94 -94 0 0 -281 94 0 0 94 563 0 0 -94 94 0 0 -282 282 0 0 -188 93 0 0 -187 376 0 0 -94 281 0 0 -94 94 0 0 -375 -94 0 0 -94 -93 0 0 -94 -94 0 0 -469 187 0 0 -94 94 0 0 -282 94 0 0 -281 94 0 0 -188 -94 0 0 -282 94 0 0 -94 188 0 0 -187 94 0 0 -188 -94 0 0 -1126 94 0 0 -94 281 0 0 -94 188 0 0 -94 94 0 0 -94 375 0 0 -93 188 0 0 -188 94 0 0 -188 -94 0 0 -188 -94 0 0 -93 -94 0 0 -282 -188 0 0 -94 -93 0 0 -94 -94 0 0 -469 94 0 0 -94 187 0 0 -563 -94 0 0 -563 94 0 0 -94 94 0 0 -94 94 0 0 -187 94 0 0 -188 94 0 0 -188 94 0 0 -375 93 0 0 -282 376 0 0 -188 94 0 0 -1407 469 0 0 -282 94 0 0 -282 -188 0 0 -94 -188 0 0 -93 188 0 0 -94 282 0 0 -94 187 0 0 -657 -93 0 0 -94 -94 0 0 -94 -188 0 0 -187 188 0 0 -188 94 0 0 -282 93 0 0 -375 94 0 0 -188 94 0 0 -94 94 0 0 -94 282 0 0 -93 93 0 0 -282 94 0 0 -188 94 0 0 -94 -94 0 0 -375 -94 0 0 -375 -93 0 0 -94 -94 0 0 -94 -94 0 0 -94 -188 0 0 -94 -375 0 0 94 -188 0 0 94 -188 0 0 188 -94 0 0 93 -94 0 0 94 -563 0 0 188 -93 0 0 469 -188 0 0 94 -188 0 0 94 -94 0 0 94 -94 0 0 94 -187 0 0 187 -94 0 0 657 -188 0 0 94 -94 0 0 94 -94 0 0 94 -187 0 0 94 -188 0 0 94 -94 0 0 94 -94 0 0 93 -94 0 0 470 -93 0 0 281 -94 0 0 376 -94 0 0 93 -94 0 0 188 -94 0 0 282 -94 0 0 94 -187 0 0 94 -94 0 0 469 -94 0 0 188 -94 0 0 93 -94 0 0 188 -94 0 0 375 -94 0 0 94 -187 0 0 94 -94 0 0 188 -94 0 0 188 -94 0 0 469 94 0 0 94 -94 0 0 94 -94 0 0 94 -94 0 0 93 -93 0 0 282 -94 0 0 94 -94 0 0 94 -94 0 0 93 -94 0 0 188 -94 0 0 94 -94 0 0 94 -187 0 0 188 -94 0 0 93 -94 0 0 94 -188 0 0 94 -94 0 0 94 -93 0 0 94 -94 0 0 188 187 0 0 469 -187 0 0 94 -94 0 0 187 -188 0 0 94 -188 0 0 94 -93 0 0 1033 -94 0 0 93 -188 0 0 94 -94 0 0 94 -94 0 0 94 -187 0 0 94 -94 0 0 375 -94 0 0 188 -94 0 0 94 -94 0 0 187 -94 0 0 188 -93 0 0 94 -94 0 0 94 -94 0 0 188 -94 0 0 94 -94 0 0 93 -94 0 0 94c-510,0 -1877,1231 -1877,1690l-281 0 0 93 -282 0 0 94 -94 0 0 188 -94 0 0 94 -657 0 0 -94 -563 0 0 94 -281 0 0 188 -94 0 0 94 -94 0 0 -94 -94 0 0 -94 -188 0 0 -94 -469 0 0 -94 -375 0 0 -94 -94 0 0 -94 -188 0 0 -94 -282 0 0 -93 -281 0 0 -188 -94 0 0 -94 -94 0 0 -94 -469 0 0 -94 -94 0 0 -281 -94 0 0 -94c-302,0 -2358,-3003 -2440,-3003l0 -94 -94 0 0 -94 -94 0 0 -469 -94 0 0 -376 -93 0 0 -94 -94 0 0 -94 -94 0 0 -93 -94 0 0 -282 -94 0 0 -188 -94 0 0 -94 -94 0 0 -187 -93 0 0 -376 -94 0 0 -187 -188 0 0 -94 -94 0 0 -1126 -94 0 0 -376 -94 0 0 -94 -93 0 0 -281 -94 0 0 -751 -94 0 0 -282 -94 0 0 -187 -94 0 0 -94 -94 0 0 -657 -94 0 0 -282 -93 0 0 -188 -188 0 0 -469 -94 0 0 -375 -94 0c0,-731 -1783,-2993 -1783,-3004l-94 0 0 -94 -282 0 0 -93 -93 0 0 -188 -188 0 0 -94 -563 0 0 -94 -188 0 0 -94 -188 0 0 94 -187 0 0 94 -564 0 0 94 -187 0 0 657 -94 0 0 94 -94 0 0 94 -94 0 0 187 -94 0 0 470 -93 0 0 187 -94 0 0 188 94 0 0 282 -94 0 0 93 -94 0 0 94 -94 0 0 376 -94 0 0 375 -94 0 0 94 -94 0 0 94 -93 0 0 188 -94 0 0 281 -94 0 0 94 -94 0 0 94 -94 0 0 281 -94 0 0 751 -94 0 0 94 -94 0 0 94 -93 0 0 751 -94 0 0 187 94 0 0 376 93 0 0 94 94 0 0 281 94 0 0 470 94 0 0 281 94 0 0 94 94 0 0 188 94 0 0 1220 94 0 0 375 93 0 0 94 94 0 0 282 94 0 0 375z"/>
   <path class="fil0" d="M24966 15768l0 -657 93 0 0 -94 376 0 0 -94 94 0 0 -188 94 0 0 -94 187 0 0 -187 94 0 0 -282 94 0 0 -187 94 0 0 -94 94 0 0 -563 -94 0 0 -94 -94 0 0 -282 -94 0 0 -563 94 0 0 -94 94 0 0 -94 94 0 0 -94 94 0 0 -844 -94 0 0 -94 -1033 0 0 188 -94 0 0 93 -93 0 0 94 -470 0 0 94 -94 0 0 188 -187 0 0 94 -188 0 0 94 -94 0 0 187 -94 0 0 94 -563 0 0 188 -187 0 0 94 -94 0 0 281 -94 0 0 188 -94 0 0 94 -94 0 0 94 -188 0 0 94 -750 0 0 93 -94 0 0 94 -94 0 0 94 -94 0 0 94 -94 0 0 94 -188 0 0 94 -93 94c-866,0 -1662,1783 -2628,1783l-188 281 -376 0 0 94 -93 0 0 94 -94 0 0 94 -94 0 0 94 -282 0 0 94 -187 0 0 187 -94 0 0 94 -282 0 0 94 -563 0 0 94c-9,0 -4045,2534 -4599,2534l0 94 -281 0 0 94 -94 0 0 94 -94 0 0 93 -188 0 0 94 -188 0 0 94 -93 0 0 94 -94 0 0 94 -94 0 0 188 -94 0 0 93 -188 0 0 94 -375 0 0 94 -282 0 0 94 -187 0 0 94 -94 0 0 94 -188 0 0 94 -939 0 0 93 -657 0 0 94 -281 0 0 94 -188 0 0 94 -2534 0 0 -188 -94 0 0 -94 -94 0 0 -93 -187 0 0 -282 -94 0 0 -282 94 0 0 -375 94 0 0 -94 93 0 0 -375 94 0 0 -1220 94 0 0 -188 188 0 0 -94 94 0 0 -188 94 0 0 -375 93 0 0 -282 -93 0 0 -657 187 0 0 -94 188 0 0 -281 188 0 0 -94 187 0 0 -94 94 0 0 -94 94 0 0 -93 94 0 0 -94 94 0 0 -94 94 0 0 -94 93 0 0 -94 94 0 0 -94 94 0 0 -281 94 0 0 -188 94 0 0 -94 94 0 0 -94 94 0 0 -281 94 0 0 -188 93 0 0 -94 94 0 0 -94 94 0 0 -187 94 0 0 -188 188 0 0 -94 93 0 0 -188 94 0 0 -187 94 0 0 -94 94 0 0 -94 94 0 0 -94 94 0 0 -282 94 0 0 -93 93 0 0 -94 94 0 0 -188 188 0 0 -94 469 0 0 -94 94 0 0 -94 94 0 0 -93c298,-150 3097,-1804 3097,-2065l282 0 0 -94 94 0 0 -94 94 0 0 -94 93 0 0 -94 188 0 0 -93 94 0 0 -188 94 0 0 -94 375 0 0 94 188 0 0 94 94 0 0 94 187 0 0 -94 94 0 0 -94 188 0 0 -94 469 0 0 -94 282 0 0 -94 188 0 0 -94 281 0 0 94 94 0 0 94 282 0 0 94c836,0 993,282 1220,282l0 93 187 0 0 94 188 0 0 94 94 0 0 94 94 0 0 94 938 0 0 -94c442,-235 1146,-489 1502,-845l0 -188 188 0 0 -93 94 0 0 -94 94 0 0 -188 93 0 0 -94 94 0 0 -94 94 0 0 -94 94 0 0 -1220 -94 0 0 -187 -94 0 0 -188 -94 0 0 -282 -93 0 0 -563 -94 0 0 -187 -94 0 0 -94 -94 0 0 -94 -94 0 0 -282 -94 0 0 -94 -94 0 0 -93 -93 0 0 -94 -94 0 0 -94 -376 0 0 -94 -94 0 0 -94 -93 0 0 -94 -94 0 0 -94 -282 0 0 -93 -469 0 0 -94 -188 0 0 94 -188 0 0 93 -375 0 0 94 -282 0 0 -94 -563 0 0 -93 -281 0 0 -94 -94 0 0 -94 -188 0 0 -94 -751 0 0 94 -281 0 0 94 -94 0 0 94 -188 0 0 93 -2065 0 0 94 -93 0 0 94 -94 0 0 94 -94 0 0 94 -94 0 0 94 -188 0 0 94 -94 0 0 187 -1126 0 0 94 -188 0 0 94 -187 0 0 188 -282 0 0 94 -188 0 0 93 -93 0 0 94 -94 0 0 94 -282 0 0 94 -188 0 0 94 -93 0 0 94 -94 0 0 93 -94 0 0 94 -282 0 0 94 -94 0 0 94 -93 0 0 94 -188 0 0 94 -188 0 0 94 -94 0 0 94 -94 0 0 187c-344,0 -3941,2698 -3941,3942l-94 0 0 94 -188 0 0 188 -94 0 0 94 -282 0 0 93 -93 0 0 188 -94 0 0 94 -188 0 0 94 -94 0 0 188 -94 0 0 93 -93 0 0 94 -94 0 0 94 -94 0 0 188 -94 0 0 281 -94 0 0 94 -94 0 0 94 -94 0 0 188 -93 0 0 281 -188 0 0 188 -94 0 0 282 -94 0 0 563c-1534,0 -1877,4708 -1877,5913l94 0 0 187 94 0 0 94 94 0 0 563 93 0 0 564 94 0 0 93 94 0 0 94 94 0 0 188 94 0 0 282 188 0 0 93 93 0 0 94 94 0 0 188 94 0 0 94 282 0 0 94 94 0 0 94 93 0 0 93 94 0 0 94 94 0 0 94 94 0 0 188 94 0 0 94 94 0 0 94 94 0 0 375 93 0 0 188 94 0 0 94 188 0 0 93 375 0 0 94 94 0 0 188 282 0 0 94 375 0 0 94 94 0 0 187 188 0 0 94 188 0c0,508 1595,320 1595,0l469 0c0,1028 2780,376 3473,376l0 -94 94 0 0 -188 94 0 0 -94 187 0 0 -94 94 0 0 -281 94 0 0 -376 188 0 0 94 94 0 0 94 94 0 0 94 187 0 0 94 470 0 0 -94 281 0 0 -94 94 0 0 -94 94 0 0 -94 94 0 0 -93 94 0 0 -94 93 0 0 -94 94 0 0 -94 94 0 0 -94 376 0 0 -94 281 0 0 -94 94 0 0 -93 282 0 0 -94 93 0 0 -94 188 0 0 -94 282 0 0 -94 657 0 0 -94 281 0 0 -94 94 0 0 -93 94 0 0 -188 94 0 0 -94 188 0 0 -188 93 0 0 -94 188 0 0 -93 188 0 0 -188 94 0 0 -94 187 0 0 -94 94 0 0 -94 94 0 0 -187 188 0 0 -94 94 0 0 -282 938 -94 0 -94 94 0 0 -93 94 0 0 -94 94 0 0 -94 187 0 0 -94 94 0 0 -94 94 0 0 -94 94 0 0 -94 188 0 0 -93 187 0 0 -94 188 -188c397,0 1783,-1221 1783,-1596l188 0 0 94 282 0 0 94 281 0 0 94 94 0 0 -94 94 0 0 -94 94 0 0 -94 94 0 0 -93 94 0 0 -94 93 0 0 -94 94 0 0 -94 94 0 0 -94 94 0 0 -94 94 0 0 -93 94 0 0 -94 93 0 0 -94c294,0 1415,-1502 2253,-1502l0 -94 94 0 0 -375 188 0z"/>
   <path class="fil1" d="M36322 94l-375 0 0 94 -94 0 0 94c-648,0 -1971,1364 -1971,1783l-188 0 0 188 -94 0 0 187 -93 0 0 563 93 0 0 470 -93 0 0 187 -94 0 0 94 -94 0 0 94 -94 0 0 188 -94 0 0 563 -94 0 0 94 -94 0 0 94 -94 0 0 187 -93 0 0 1220 93 0 0 376 94 0 0 188 94 0 0 94 94 0 0 375 94 0 0 188 94 0 0 187 188 0 0 282 93 0 0 188 94 0 0 93 94 0 0 94 94 0 0 188 94 0 0 188 94 0 0 94 187 0 0 93 94 0 0 94 94 0 188 188 0 94 187 0 0 94c6,0 1665,751 3379,751l0 -94 563 0 0 -94 94 0 0 -94 94 0 0 -94 188 0 0 -94 281 0 0 -93 94 0 0 -94 94 0 0 -94 94 0 0 -94 188 0 0 -94 94 0 0 -188 93 0 0 -94 188 0 0 -93 94 0 0 -188 94 0 0 -188 94 0 0 -94 93 0 0 -94 94 0 0 -187 94 0 0 -282 94 0 0 -94 94 0 0 -93 94 0 0 -282 94 0 0 -563 94 0 0 -188 93 0 0 -94 94 0 0 -2158 -94 0 0 -188 -93 0c0,-1573 -2155,-3942 -3661,-3942l0 -94 -1314 0 0 94z"/>
  </g>
 </g>
</svg>
