<?xml version="1.0" encoding="UTF-8"?>
<!DOCTYPE svg PUBLIC "-//W3C//DTD SVG 1.1//EN" "http://www.w3.org/Graphics/SVG/1.1/DTD/svg11.dtd">
<!-- Creator: CorelDRAW X7 -->
<svg xmlns="http://www.w3.org/2000/svg" xml:space="preserve" width="29.1773mm" height="37.4084mm" version="1.1" style="shape-rendering:geometricPrecision; text-rendering:geometricPrecision; image-rendering:optimizeQuality; fill-rule:evenodd; clip-rule:evenodd"
viewBox="0 0 7507 9625"
 xmlns:xlink="http://www.w3.org/1999/xlink">
 <defs>
  <style type="text/css">
   <![CDATA[
    .fil0 {fill:#221E20}
   ]]>
  </style>
 </defs>
 <g id="Capa_x0020_1">
  <metadata id="CorelCorpID_0Corel-Layer"/>
  <g id="_283409776">
   <path class="fil0" d="M0 8566c0,369 173,410 561,547 262,93 576,172 871,238 295,65 661,138 940,168 1812,198 2686,149 4531,-399 438,-130 604,-176 604,-605 0,-713 -236,-2021 -586,-2638 -101,-177 -251,-278 -437,-369 -448,-220 -1068,-375 -1402,-614 -645,-460 -159,245 -1505,245 -152,0 -357,-111 -476,-178 -331,-187 -214,-217 -431,-275 -300,201 -407,380 -1026,586 -392,131 -874,281 -1057,605 -324,571 -587,1807 -587,2689z"/>
   <path class="fil0" d="M2066 1411c0,293 34,393 50,610 37,483 -325,258 203,1556 216,533 757,1310 1309,1310 481,0 762,-128 1135,-527 345,-368 779,-1496 779,-1690 0,-270 -61,-313 -38,-539 41,-404 219,-941 -224,-1415 -453,-484 -1258,-716 -1955,-716 -308,0 -1259,614 -1259,1411z"/>
  </g>
 </g>
</svg>
