<?xml version="1.0" encoding="UTF-8"?>
<!DOCTYPE svg PUBLIC "-//W3C//DTD SVG 1.1//EN" "http://www.w3.org/Graphics/SVG/1.1/DTD/svg11.dtd">
<!-- Creator: CorelDRAW X7 -->
<svg xmlns="http://www.w3.org/2000/svg" xml:space="preserve" width="144.537mm" height="45.6636mm" version="1.1" style="shape-rendering:geometricPrecision; text-rendering:geometricPrecision; image-rendering:optimizeQuality; fill-rule:evenodd; clip-rule:evenodd"
viewBox="0 0 106738 33722"
 xmlns:xlink="http://www.w3.org/1999/xlink">
 <defs>
  <style type="text/css">
   <![CDATA[
    .fil0 {fill:#007734}
    .fil1 {fill:#76B600}
   ]]>
  </style>
 </defs>
 <g id="Capa_x0020_1">
  <metadata id="CorelCorpID_0Corel-Layer"/>
  <g id="_305612512">
   <path class="fil0" d="M64705 8211l0 367 -123 0 0 368 -612 0 0 1838 -123 0 0 245 -490 0 0 368 -123 0 0 490 -122 0 0 245 -123 0 0 245 -122 0 0 245 -123 0 0 123 -123 0 0 122 -122 0 0 736 122 0 0 735 -245 0 0 123 -122 0 0 612 122 0 0 123 123 0 0 122 245 0 0 -245 123 0 0 -122 122 0 0 -368 368 0 0 -122 122 0 0 -123 123 0 0 -122 122 0 0 -123 368 0 0 -123 245 0 0 -122 123 0 0 -245 367 0 0 -123 123 0 0 -122 122 0 0 -245 368 0 0 -123 980 0 0 -123 123 0 0 -245 123 0 0 -122 245 0 0 -245 122 0 0 -245 368 0 0 -123 122 0 0 -122 123 0 0 -123 245 0 0 -123 368 0 0 246 -245 0 0 122 -123 0 0 490 -123 0 0 613 -122 0 0 123 -123 0 0 122 -122 0 0 245 -123 0 0 1226 -367 0 0 122 -491 0 0 123 -122 0 0 122 -123 0 0 245 -245 0 0 123 -122 0 0 245 -123 0 0 245 -245 0 0 123 -122 0 0 245 -246 0 0 122 -245 0 0 123 -122 0 0 122 -123 0 0 123 -122 0 0 123 -123 0 0 245 -122 0 0 735 -368 0 0 122 -123 0 0 123 -122 0 0 123 -123 0 0 122 -122 0 0 123 -123 0 0 245 -122 0 0 245 -123 0 0 122 -122 0 0 123 -123 0 0 858 -123 0 0 613 -122 0 0 612 -123 0 0 368 -122 0c0,2232 610,4657 2941,4657l0 122 245 0 0 123 368 0 0 -123 122 0 0 -122 123 0 0 -123 245 0 0 -123 122 0 0 -245 123 0 0 -367 123 0 0 -123 245 0 0 -122 245 0 0 -123 122 0 0 -122 123 0 0 -123 122 0 0 -122 123 0 0 -123 245 0 0 -245 245 0 0 -123 490 0 0 -122 123 0 0 -123 122 0 0 -122 123 0 0 -123 123 0 0 -245 122 0 0 -122 245 0 0 -123 490 0 0 -123 245 0 0 -245 123 0 0 -122 123 0 0 -123 122 0 0 -613 123 0 0 -367 857 0 0 122 368 0 0 -122 245 0 0 -123 245 0 0 -122 123 0 0 -123 122 0 0 -122 123 0 0 -123 122 0 0 -122 123 0 0 -123 123 0 0 -122 245 0 0 -123 122 0 0 -123 123 0 0 -735 122 0 0 -245 123 0 0 -122 122 0 0 -123 246 0 0 -123 367 0 0 -122 123 0 0 -123 122 0 0 -122 245 0 0 -123 245 0 0 -122 123 0 0 -123 122 0 0 -122 123 0 0 -123 245 0 0 -123 123 0 0 -122 122 0 0 -245 245 0 0 -123 123 0 0 -122 122 0 0 -123 123 0 0 -122 245 0 0 -123 123 0 0 -245c543,0 4038,-3676 4779,-3676l0 -123 368 0 0 -123 245 0 0 -122 122 0 0 -123 490 0 0 -122 246 0 0 -123 245 0 0 -122 122 0 0 -123 123 0 0 -122 367 0 0 -123 123 0 0 -122 122 0 0 -123 246 0 0 -123 490 0 0 -122 122 0 0 -123 123 0 0 -122 245 0 0 -123 858 0 0 1593 -123 0 0 123 123 0 0 2206 -123 0 0 245 -122 0 0 490 122 0 0 368 123 0 0 858 -123 0 0 122 -122 0 0 123 -123 0 0 245 123 0 0 245 122 0 0 122 123 0 0 1471 122 0 0 368 123 0 0 735 -123 0 0 490 -122 0 0 123 122 0 0 612 123 0 0 245 245 0 0 613 122 0 0 368 123 0c0,1051 2619,3554 4044,3554l0 122 245 0 0 123 735 0 0 -123 246 0 0 -122 122 0 0 122 858 0 0 123 735 0 0 -123 123 0 0 -122 367 0 0 -123 123 0 0 -123 122 0 0 -122 123 0 0 -123 368 0 0 -122 245 0 0 -123 122 0 0 -122 123 0 0 -123 122 0 0 -122 245 0 0 -123 123 0 0 -245 123 0 0 -122 245 0 0 -123 122 0 0 -245 123 0 0 -123c1557,0 1871,-2328 2941,-2328l0 -123 122 0 0 -122 123 0 0 -123 245 0 0 -245 123 0 0 -122 367 0 0 -123 245 0 0 -122 123 0 0 -123c539,0 3921,-3636 3921,-3799l123 0 0 -122 122 0 0 -123 123 0 0 -123 123 0 0 -245 122 0 0 -122 123 0 0 -123 122 0 0 -245 123 0 0 -613 122 0 0 -735 -122 0 0 -1470 122 0 0 -123 123 0 0 -123 122 0 0 -490 -122 0 0 -122 -123 0 0 -123 -122 0 0 -245 -245 0 0 -122 -491 0 0 122 -367 0 0 123 -123 0 0 245 -245 0 0 122 -245 0 0 245 -122 0 0 123 -123 0 0 122 -245 0 0 123 -123 0 0 123 -122 0 0 122 -245 0 0 123 -123 0 0 122 -122 0 0 245 -368 0 0 123 -122 0 0 122 -123 0 0 123 -123 0 0 123 -245 0 0 122 -245 0 0 123 -122 0 0 122 -123 0 0 123 -245 0 0 122 -368 0 0 123 -122 0 0 122 -123 0 0 123 -122 0 0 122 -368 0 0 123 -245 0 0 122 -123 0 0 123 -122 0 0 123 -123 0 0 122 -122 0 0 123 -123 0 0 122 -122 0 0 123 -123 0 0 367 -122 0 0 246 -246 0 0 122 -122 0 0 245 -123 0 0 368 -122 0 0 122 -123 0 0 123 -980 0 0 122 -123 0 0 123 -122 0 0 245 -123 0 0 123 -122 0 0 122 -123 0 0 123 -122 0 0 122 -123 0 0 123 -122 0 0 122 -123 0 0 123 -123 0 0 123 -122 0 0 122 -245 0 0 123 -123 0 0 245 -122 0 0 122 -123 0 0 123 -122 0 0 122 -123 0 0 123 -122 0 0 122 -613 0 0 123 -368 0 0 123 -122 0 0 122 -123 0 0 -122 -245 0 0 -123 -245 0 0 -490 -123 0 0 -368 -122 0 0 -122 -245 0 0 -491 -123 0 0 -367 -122 0 0 -245 -245 0 0 -491 122 0 0 -122 123 0 0 -245 122 0 0 -123 123 0 0 -367 245 0 0 -123 122 0 0 -368 123 0 0 -3308 123 0 0 -123 122 0 0 -613 123 0 0 -2450 -123 0 0 -123c673,0 -878,-3554 -1348,-3554l0 -245 -123 0 0 -123 -245 0 0 -122 -122 0 0 -245 -123 0 0 -123 -245 0 0 -122 -122 0 0 -123 -123 0 0 -122 -123 0 0 -123 -367 0 0 -122 -368 0 0 -123 -122 0 0 -123 -123 0 0 -122 -2206 0 0 122 -122 0 0 123 -123 0 0 123 -490 0 0 122 -613 0 0 123 -245 0 0 122 -122 0 0 123 -246 0 0 122 -490 0 0 123 -245 0 0 122 -122 0 0 123 -123 0 0 122 -613 0 0 123 -245 0 0 245 -122 0 0 123 -490 0 0 122 -245 0 0 123 -246 0 0 122 -122 0 0 123 -490 0 0 122 -245 0 0 123 -123 0 0 122 -123 0 0 123 -122 0 0 122c-295,0 -3064,2084 -3064,2206l-245 0 0 123 -122 0 0 123 -368 0 0 122 -245 0 0 123 -245 0 0 245 -123 0 0 122 -122 0 0 123 -123 0 0 122 -122 0 0 123 -123 0 0 245 -123 0 0 245 -122 0 0 123 -245 0 0 122 -123 0 0 123 -122 0 0 122 -123 0 0 123 -367 0 0 122 -123 0 0 123 -123 0 0 122 -122 0 0 123 -613 0 0 -123 123 0 0 -122 122 0 0 -368 123 0 0 -490 122 0 0 -368 123 0 0 -245 122 0c0,-4373 -1685,-6862 -5759,-6862l0 122 -245 0 0 123 -123 0 0 122 -122 0 0 123 -123 0 0 122 -122 0 0 123 -123 0 0 123 -123 0 0 367 -122 0 0 245 -123 0 0 123 -122 0 0 122 -123 0 0 245 -122 0 0 123 -123 0 0 122 -122 0 0 123 -123 0 0 123 -245 0 0 122 -123 0 0 123 -122 0 0 122 -123 0 0 123 -367 0 0 122 -123 0 0 123 -122 0 0 245 -613 0 0 122 -735 0 0 123 -123 0 0 245 -368 0 0 123 -122 0z"/>
   <path class="fil1" d="M30514 16054l613 0 0 -123 123 0 0 -245 122 0 0 -123 245 0 0 -122 245 0 0 -245 123 0 0 -123 612 0 0 -122 123 0 0 -123 123 0 0 -245 1348 0 0 123 122 0 0 1103 -122 0 0 122 -123 0 0 123 -122 0 0 122 -123 0 0 736 123 0 0 367 122 0 0 123 123 0 0 735 -123 0 0 123 -122 0 0 245 -123 0 0 367 -123 0 0 245 -245 0 0 123 -122 0 0 245 -123 0 0 123 -490 0 0 122 -123 0 0 1103 123 0 0 245 123 0 0 123 122 0 0 245 123 0 0 367 122 0 0 368 123 0 0 123 122 0 0 122 123 0 0 490c103,0 2083,2290 2083,2329l123 0 0 122 122 0 0 123 123 0 0 122 122 0 0 123 123 0 0 122 122 0 0 123 123 0 0 245 123 0 0 490c180,0 1933,2084 2573,2084l0 122 123 0 0 245 122 0 0 123 245 0 0 122 245 0 0 123 246 0 0 123 245 0 0 122 367 0 0 123 368 0 0 122 122 0 0 368 123 0 0 122 367 0 0 123 368 0 0 122 245 0 0 123 368 0 0 122 122 0 0 123 123 0 0 123 123 0 0 122 1103 0 0 123 122 0 0 122 123 0 0 123 122 0 0 122 368 0 0 123 1470 0 0 122 123 0 0 123 122 0 0 122 246 0 0 123 2205 0 0 -123 491 0 0 -122 245 0 0 -123 122 0 0 -122 858 0 0 -123 613 0 0 -122 122 0 0 -245 123 0 0 -123 122 0 0 -122 1348 0 0 122 245 0 0 -122 246 0 0 -123 245 0 0 -123 245 0 0 -122 367 0 0 -123 123 0 0 -122 123 0 0 -123 245 0 0 -122 245 0 0 -123 122 0 0 -245 123 0 0 -122 122 0 0 -245 123 0 0 -736 122 0 0 -122 123 0 0 -123 122 0 0 -122 123 0 0 -123 -123 0 0 -123 -122 0 0 -245 -123 0 0 -245 123 0 0 -122 245 0 0 -245 245 0 0 -123 123 0 0 -123 122 0 0 -245 123 0 0 -122 245 0 0 -123 122 0 0 -122 123 0 0 -123 123 0 0 -122 245 0 0 -123 122 0 0 -1225 123 0 0 -123 122 0 0 -122 368 0 0 -123 122 0 0 -122 123 0 0 -246 123 0 0 -490 -123 0 0 -122 -123 0 0 -123 -122 0 0 -368 122 0 0 123 736 0 0 -123 122 0 0 -367 368 0 0 -245 123 0 0 -245 490 0 0 -123 367 0 0 -123 123 0 0 -490 -123 0 0 -122 -122 0 0 -123 -123 0 0 -612 245 0 0 -123 123 0 0 -368 122 0 0 -367 123 0 0 -245 -123 0 0 -368 123 0 0 -123 245 0 0 -245 123 0 0 -245 -123 0 0 -1470 123 0 0 -123 367 0 0 -122 245 0 0 -123 123 0 0 -123 490 0 0 -122 245 0 0 -245 123 0 0 -245 -123 0 0 -245 -122 0 0 -123 -123 0 0 -368 -245 0 0 -122 -123 0 0 -123 -122 0 0 -612 122 0 0 -123 245 0 0 -735 -122 0 0 -736 122 0 0 -122 123 0 0 -123 123 0 0 -245 122 0 0 -245 123 0 0 -245 122 0 0 -490 123 0 0 -368 490 0 0 -245 123 0 0 -1838 612 0 0 -368 123 0 0 -367 -245 0 0 -123 -245 0 0 -122 245 0 0 -123 367 0 0 -123 245 0 0 -857 -122 0 0 -123 -123 0 0 -122 -245 0 0 -246 245 0 0 -245 123 0 0 -367 122 0 0 -490 123 0 0 -245 123 0 0 -123 122 0 0 -123 368 0 0 -122 122 0 0 -368 123 0 0 -245 122 0 0 -122 -122 0 0 -491 -123 0 0 -490 -122 0 0 -122 -123 0 0 -123 -122 0 0 -123 -245 0 0 -122 -491 0 0 122 -245 0 0 123 -245 0 0 245 -122 0 0 123 -123 0 0 122 -735 0 0 245 -123 0 0 613 -245 0 0 123 -245 0 0 122 -123 0 0 123 -122 0 0 122 -245 0 0 245 -123 0 0 858 -245 0 0 123 -122 0 0 122 -123 0 0 123 -245 0 0 122 -245 0 0 123 -123 0 0 122 -122 0 0 123 -123 0 0 613 -122 0 0 367 -123 0 0 491 -122 0 0 122 -123 0 0 245 -122 0 0 368 -123 0 0 122 -245 0 0 123 -123 0 0 613 -122 0 0 245 -123 0 0 122 -122 0 0 246 -123 0 0 490 -122 0 0 122 -245 0 0 123 -123 0 0 245 -123 0 0 245 -122 0 0 613 122 0 0 122 -122 0 0 123 -123 0 0 122 -122 0 0 123 -123 0 0 367 -122 0 0 123 -123 0 0 123 -122 0 0 122 -123 0 0 245 -122 0 0 123 -123 0 0 122 -245 0 0 245 -123 0 0 123 -122 0 0 123 -245 0 0 122 -123 0 0 123 -122 0 0 122 -123 0 0 245 245 0 0 613 -245 0 0 122 -123 0 0 246 -245 0 0 122 -245 0 0 123 -122 0 0 1348 -123 0 0 122 -245 0 0 123 -122 0 0 122 -123 0 0 123 -245 0 0 122 -123 0 0 491 -122 0 0 245 -123 0 0 122 -122 0 0 245 -123 0 0 246 -122 0 0 122 -123 0 0 123 -122 0 0 245 -123 0 0 122 -123 0 0 123 -122 0 0 122c-666,0 -2451,1608 -2451,2206l-368 0 0 123 -367 0 0 122 -123 0 0 245 -122 0 0 123 -858 0 0 -123 -735 0 0 123 -368 0 0 245 -123 0 0 123 -122 0 0 -123 -123 0 0 -123 -245 0 0 -122 -613 0 0 -123 -490 0 0 -122 -122 0 0 -123 -245 0 0 -122 -368 0 0 -123 -368 0 0 -245 -122 0 0 -123 -123 0 0 -122 -612 0 0 -123 -123 0 0 -367 -123 0 0 -123c-394,0 -3079,-3921 -3186,-3921l0 -123 -122 0 0 -122 -123 0 0 -613 -122 0 0 -490 -123 0 0 -123 -122 0 0 -122 -123 0 0 -123 -123 0 0 -368 -122 0 0 -245 -123 0 0 -122 -122 0 0 -245 -123 0 0 -490 -122 0 0 -246 -245 0 0 -122 -123 0 0 -1471 -123 0 0 -490 -122 0 0 -122 -123 0 0 -368 -122 0 0 -980 -123 0 0 -368 -122 0 0 -245 -123 0 0 -123 -122 0 0 -858 -123 0 0 -367 -123 0 0 -245 -245 0 0 -613 -122 0 0 -490 -123 0c0,-954 -2328,-3908 -2328,-3922l-123 0 0 -122 -367 0 0 -123 -123 0 0 -245 -245 0 0 -123 -735 0 0 -122 -245 0 0 -123 -245 0 0 123 -246 0 0 122 -735 0 0 123 -245 0 0 858 -122 0 0 122 -123 0 0 123 -122 0 0 245 -123 0 0 613 -123 0 0 245 -122 0 0 245 122 0 0 368 -122 0 0 122 -123 0 0 123 -122 0 0 490 -123 0 0 490 -122 0 0 123 -123 0 0 122 -122 0 0 245 -123 0 0 368 -122 0 0 122 -123 0 0 123 -123 0 0 368 -122 0 0 980 -123 0 0 123 -122 0 0 122 -123 0 0 981 -122 0 0 245 122 0 0 490 123 0 0 122 122 0 0 368 123 0 0 613 122 0 0 367 123 0 0 123 123 0 0 245 122 0 0 1593 123 0 0 490 122 0 0 123 123 0 0 367 122 0 0 491z"/>
   <path class="fil0" d="M32597 20588l0 -858 123 0 0 -122 490 0 0 -123 123 0 0 -245 122 0 0 -123 245 0 0 -245 123 0 0 -367 123 0 0 -245 122 0 0 -123 123 0 0 -735 -123 0 0 -123 -122 0 0 -367 -123 0 0 -736 123 0 0 -122 122 0 0 -123 123 0 0 -122 122 0 0 -1103 -122 0 0 -123 -1348 0 0 245 -123 0 0 123 -123 0 0 122 -612 0 0 123 -123 0 0 245 -245 0 0 122 -245 0 0 123 -122 0 0 245 -123 0 0 123 -735 0 0 245 -245 0 0 122 -123 0 0 368 -122 0 0 245 -123 0 0 123 -123 0 0 122 -245 0 0 123 -980 0 0 122 -123 0 0 123 -122 0 0 122 -123 0 0 123 -122 0 0 122 -245 0 0 123 -123 123c-1130,0 -2170,2328 -3431,2328l-245 368 -491 0 0 122 -122 0 0 123 -123 0 0 122 -122 0 0 123 -368 0 0 122 -245 0 0 245 -123 0 0 123 -367 0 0 122 -735 0 0 123c-12,0 -5282,3309 -6005,3309l0 122 -368 0 0 123 -122 0 0 122 -123 0 0 123 -245 0 0 122 -245 0 0 123 -123 0 0 123 -122 0 0 122 -123 0 0 245 -122 0 0 123 -245 0 0 122 -491 0 0 123 -367 0 0 122 -245 0 0 123 -123 0 0 123 -245 0 0 122 -1225 0 0 123 -858 0 0 122 -368 0 0 123 -245 0 0 122 -3309 0 0 -245 -122 0 0 -122 -123 0 0 -123 -245 0 0 -368 -122 0 0 -367 122 0 0 -490 123 0 0 -123 122 0 0 -490 123 0 0 -1593 122 0 0 -245 245 0 0 -123 123 0 0 -245 123 0 0 -490 122 0 0 -368 -122 0 0 -858 245 0 0 -122 245 0 0 -368 245 0 0 -122 245 0 0 -123 122 0 0 -122 123 0 0 -123 122 0 0 -122 123 0 0 -123 123 0 0 -123 122 0 0 -122 123 0 0 -123 122 0 0 -367 123 0 0 -245 122 0 0 -123 123 0 0 -122 122 0 0 -368 123 0 0 -245 122 0 0 -123 123 0 0 -122 123 0 0 -245 122 0 0 -246 245 0 0 -122 123 0 0 -245 122 0 0 -245 123 0 0 -123 122 0 0 -122 123 0 0 -123 123 0 0 -368 122 0 0 -122 123 0 0 -123 122 0 0 -245 245 0 0 -122 613 0 0 -123 123 0 0 -122 122 0 0 -123c389,-195 4044,-2355 4044,-2696l368 0 0 -123 122 0 0 -122 123 0 0 -123 122 0 0 -122 246 0 0 -123 122 0 0 -245 123 0 0 -122 490 0 0 122 245 0 0 123 122 0 0 122 245 0 0 -122 123 0 0 -123 245 0 0 -122 613 0 0 -123 368 0 0 -122 245 0 0 -123 367 0 0 123 123 0 0 122 368 0 0 123c1091,0 1297,367 1592,367l0 123 246 0 0 122 245 0 0 123 122 0 0 122 123 0 0 123 1225 0 0 -123c577,-307 1496,-638 1961,-1102l0 -246 245 0 0 -122 123 0 0 -123 122 0 0 -245 123 0 0 -122 122 0 0 -123 123 0 0 -122 122 0 0 -1593 -122 0 0 -246 -123 0 0 -245 -122 0 0 -367 -123 0 0 -736 -122 0 0 -245 -123 0 0 -122 -122 0 0 -123 -123 0 0 -367 -122 0 0 -123 -123 0 0 -123 -123 0 0 -122 -122 0 0 -123 -490 0 0 -122 -123 0 0 -123 -122 0 0 -122 -123 0 0 -123 -368 0 0 -122 -612 0 0 -123 -245 0 0 123 -246 0 0 122 -490 0 0 123 -367 0 0 -123 -736 0 0 -122 -367 0 0 -123 -123 0 0 -122 -245 0 0 -123 -980 0 0 123 -368 0 0 122 -122 0 0 123 -246 0 0 122 -2696 0 0 123 -122 0 0 122 -123 0 0 123 -122 0 0 122 -123 0 0 123 -245 0 0 122 -122 0 0 246 -1471 0 0 122 -245 0 0 123 -245 0 0 245 -368 0 0 122 -245 0 0 123 -123 0 0 122 -122 0 0 123 -368 0 0 122 -245 0 0 123 -122 0 0 123 -123 0 0 122 -122 0 0 123 -368 0 0 122 -123 0 0 123 -122 0 0 122 -245 0 0 123 -245 0 0 122 -123 0 0 123 -122 0 0 245c-450,0 -5147,3523 -5147,5147l-123 0 0 123 -245 0 0 245 -123 0 0 122 -367 0 0 123 -123 0 0 245 -122 0 0 122 -245 0 0 123 -123 0 0 245 -123 0 0 123 -122 0 0 122 -123 0 0 123 -122 0 0 245 -123 0 0 367 -122 0 0 123 -123 0 0 123 -122 0 0 245 -123 0 0 367 -245 0 0 245 -123 0 0 368 -122 0 0 735c-2003,0 -2451,6148 -2451,7721l123 0 0 245 122 0 0 122 123 0 0 736 122 0 0 735 123 0 0 123 122 0 0 122 123 0 0 245 122 0 0 368 246 0 0 122 122 0 0 123 123 0 0 245 122 0 0 123 368 0 0 122 122 0 0 123 123 0 0 122 122 0 0 123 123 0 0 122 122 0 0 245 123 0 0 123 123 0 0 122 122 0 0 491 123 0 0 245 122 0 0 122 245 0 0 123 490 0 0 122 123 0 0 245 368 0 0 123 490 0 0 123 122 0 0 245 246 0 0 122 245 0c0,663 2083,418 2083,0l613 0c0,1342 3629,490 4534,490l0 -122 122 0 0 -245 123 0 0 -123 245 0 0 -122 123 0 0 -368 122 0 0 -490 245 0 0 122 123 0 0 123 122 0 0 122 245 0 0 123 613 0 0 -123 368 0 0 -122 122 0 0 -123 123 0 0 -122 122 0 0 -123 123 0 0 -122 123 0 0 -123 122 0 0 -122 123 0 0 -123 490 0 0 -122 368 0 0 -123 122 0 0 -123 368 0 0 -122 122 0 0 -123 245 0 0 -122 368 0 0 -123 858 0 0 -122 367 0 0 -123 123 0 0 -122 123 0 0 -245 122 0 0 -123 245 0 0 -245 123 0 0 -123 245 0 0 -122 245 0 0 -245 123 0 0 -123 245 0 0 -122 122 0 0 -123 123 0 0 -245 245 0 0 -123 122 0 0 -367 1226 -123 0 -122 122 0 0 -123 123 0 0 -122 122 0 0 -123 245 0 0 -123 123 0 0 -122 123 0 0 -123 122 0 0 -122 245 0 0 -123 245 0 0 -122 245 -245c519,0 2329,-1595 2329,-2084l245 0 0 123 368 0 0 123 367 0 0 122 123 0 0 -122 122 0 0 -123 123 0 0 -123 122 0 0 -122 123 0 0 -123 122 0 0 -122 123 0 0 -123 123 0 0 -122 122 0 0 -123 123 0 0 -122 122 0 0 -123 123 0 0 -123c383,0 1846,-1960 2941,-1960l0 -123 122 0 0 -490 245 0z"/>
   <path class="fil1" d="M47426 123l-490 0 0 122 -123 0 0 123c-847,0 -2573,1781 -2573,2328l-246 0 0 245 -122 0 0 245 -123 0 0 736 123 0 0 612 -123 0 0 245 -122 0 0 123 -123 0 0 123 -122 0 0 245 -123 0 0 735 -122 0 0 122 -123 0 0 123 -123 0 0 245 -122 0 0 1593 122 0 0 490 123 0 0 245 123 0 0 123 122 0 0 490 123 0 0 245 122 0 0 245 245 0 0 368 123 0 0 245 122 0 0 123 123 0 0 122 123 0 0 245 122 0 0 245 123 0 0 123 245 0 0 122 122 0 0 123 123 0 245 245 0 123 245 0 0 122c7,0 2173,981 4412,981l0 -123 735 0 0 -123 123 0 0 -122 122 0 0 -123 245 0 0 -122 368 0 0 -123 122 0 0 -122 123 0 0 -123 122 0 0 -122 245 0 0 -123 123 0 0 -245 122 0 0 -123 246 0 0 -122 122 0 0 -245 123 0 0 -245 122 0 0 -123 123 0 0 -122 122 0 0 -245 123 0 0 -368 122 0 0 -123 123 0 0 -122 123 0 0 -368 122 0 0 -735 123 0 0 -245 122 0 0 -123 123 0 0 -2818 -123 0 0 -245 -122 0c0,-2054 -2813,-5147 -4780,-5147l0 -123 -1715 0 0 123z"/>
  </g>
 </g>
</svg>
