<?xml version="1.0" encoding="UTF-8"?>
<!DOCTYPE svg PUBLIC "-//W3C//DTD SVG 1.1//EN" "http://www.w3.org/Graphics/SVG/1.1/DTD/svg11.dtd">
<!-- Creator: CorelDRAW X7 -->
<svg xmlns="http://www.w3.org/2000/svg" xml:space="preserve" width="113.842mm" height="113.842mm" version="1.1" style="shape-rendering:geometricPrecision; text-rendering:geometricPrecision; image-rendering:optimizeQuality; fill-rule:evenodd; clip-rule:evenodd"
viewBox="0 0 74117 74117"
 xmlns:xlink="http://www.w3.org/1999/xlink">
 <defs>
  <style type="text/css">
   <![CDATA[
    .fil0 {fill:#3A3435}
    .fil1 {fill:white}
   ]]>
  </style>
 </defs>
 <g id="Capa_x0020_1">
  <metadata id="CorelCorpID_0Corel-Layer"/>
  <g id="_299515888">
   <rect class="fil0" width="74117" height="74117"/>
   <g>
    <g>
     <path class="fil1" d="M43726 33335l0 209 -70 0 0 209 -348 0 0 1045 -70 0 0 139 -278 0 0 209 -70 0 0 279 -70 0 0 139 -69 0 0 140 -70 0 0 139 -70 0 0 70 -69 0 0 69 -70 0 0 418 70 0 0 418 -140 0 0 70 -69 0 0 348 69 0 0 70 70 0 0 70 139 0 0 -140 70 0 0 -69 70 0 0 -209 209 0 0 -70 69 0 0 -70 70 0 0 -69 70 0 0 -70 209 0 0 -70 139 0 0 -69 70 0 0 -140 209 0 0 -69 69 0 0 -70 70 0 0 -139 209 0 0 -70 557 0 0 -70 70 0 0 -139 70 0 0 -70 139 0 0 -139 70 0 0 -139 209 0 0 -70 69 0 0 -70 70 0 0 -69 139 0 0 -70 209 0 0 139 -139 0 0 70 -70 0 0 279 -69 0 0 348 -70 0 0 70 -70 0 0 69 -69 0 0 140 -70 0 0 696 -209 0 0 70 -279 0 0 70 -69 0 0 69 -70 0 0 140 -139 0 0 69 -70 0 0 140 -70 0 0 139 -139 0 0 70 -70 0 0 139 -139 0 0 70 -139 0 0 69 -70 0 0 70 -70 0 0 70 -69 0 0 69 -70 0 0 140 -70 0 0 418 -209 0 0 69 -69 0 0 70 -70 0 0 70 -70 0 0 69 -69 0 0 70 -70 0 0 139 -70 0 0 140 -69 0 0 69 -70 0 0 70 -70 0 0 488 -69 0 0 348 -70 0 0 348 -70 0 0 209 -69 0c0,1269 347,2648 1672,2648l0 69 139 0 0 70 209 0 0 -70 70 0 0 -69 69 0 0 -70 140 0 0 -70 69 0 0 -139 70 0 0 -209 70 0 0 -70 139 0 0 -69 139 0 0 -70 70 0 0 -70 70 0 0 -69 69 0 0 -70 70 0 0 -70 139 0 0 -139 140 0 0 -70 278 0 0 -69 70 0 0 -70 70 0 0 -70 69 0 0 -69 70 0 0 -140 70 0 0 -69 139 0 0 -70 279 0 0 -70 139 0 0 -139 70 0 0 -70 69 0 0 -69 70 0 0 -349 70 0 0 -209 487 0 0 70 209 0 0 -70 140 0 0 -69 139 0 0 -70 70 0 0 -70 69 0 0 -69 70 0 0 -70 70 0 0 -70 69 0 0 -69 70 0 0 -70 139 0 0 -70 70 0 0 -69 70 0 0 -418 69 0 0 -140 70 0 0 -69 70 0 0 -70 139 0 0 -70 209 0 0 -69 69 0 0 -70 70 0 0 -70 140 0 0 -69 139 0 0 -70 70 0 0 -70 69 0 0 -69 70 0 0 -70 139 0 0 -70 70 0 0 -69 69 0 0 -140 140 0 0 -69 69 0 0 -70 70 0 0 -70 70 0 0 -69 139 0 0 -70 70 0 0 -139c309,0 2295,-2090 2717,-2090l0 -70 209 0 0 -70 139 0 0 -69 70 0 0 -70 278 0 0 -70 140 0 0 -69 139 0 0 -70 70 0 0 -70 69 0 0 -69 209 0 0 -70 70 0 0 -70 70 0 0 -69 139 0 0 -70 279 0 0 -70 69 0 0 -69 70 0 0 -70 139 0 0 -70 488 0 0 906 -70 0 0 70 70 0 0 1254 -70 0 0 139 -69 0 0 279 69 0 0 209 70 0 0 487 -70 0 0 70 -69 0 0 70 -70 0 0 139 70 0 0 139 69 0 0 70 70 0 0 836 70 0 0 209 69 0 0 418 -69 0 0 279 -70 0 0 69 70 0 0 349 69 0 0 139 140 0 0 348 69 0 0 209 70 0c0,598 1489,2021 2299,2021l0 69 139 0 0 70 418 0 0 -70 140 0 0 -69 69 0 0 69 488 0 0 70 418 0 0 -70 70 0 0 -69 209 0 0 -70 69 0 0 -70 70 0 0 -69 70 0 0 -70 209 0 0 -70 139 0 0 -69 70 0 0 -70 69 0 0 -70 70 0 0 -69 139 0 0 -70 70 0 0 -139 70 0 0 -70 139 0 0 -70 70 0 0 -139 69 0 0 -70c885,0 1064,-1323 1672,-1323l0 -70 70 0 0 -70 70 0 0 -69 139 0 0 -140 70 0 0 -69 209 0 0 -70 139 0 0 -70 70 0 0 -69c306,0 2229,-2068 2229,-2160l70 0 0 -70 69 0 0 -69 70 0 0 -70 70 0 0 -139 69 0 0 -70 70 0 0 -70 70 0 0 -139 69 0 0 -348 70 0 0 -418 -70 0 0 -836 70 0 0 -70 70 0 0 -70 69 0 0 -278 -69 0 0 -70 -70 0 0 -70 -70 0 0 -139 -139 0 0 -70 -279 0 0 70 -209 0 0 70 -69 0 0 139 -140 0 0 70 -139 0 0 139 -70 0 0 70 -69 0 0 69 -140 0 0 70 -69 0 0 70 -70 0 0 69 -139 0 0 70 -70 0 0 70 -70 0 0 139 -209 0 0 70 -69 0 0 69 -70 0 0 70 -70 0 0 70 -139 0 0 69 -139 0 0 70 -70 0 0 70 -70 0 0 69 -139 0 0 70 -209 0 0 70 -70 0 0 69 -69 0 0 70 -70 0 0 70 -209 0 0 69 -139 0 0 70 -70 0 0 70 -70 0 0 69 -69 0 0 70 -70 0 0 70 -70 0 0 69 -69 0 0 70 -70 0 0 209 -70 0 0 139 -139 0 0 70 -70 0 0 139 -69 0 0 209 -70 0 0 70 -70 0 0 70 -557 0 0 69 -70 0 0 70 -69 0 0 139 -70 0 0 70 -70 0 0 70 -69 0 0 69 -70 0 0 70 -70 0 0 70 -69 0 0 69 -70 0 0 70 -70 0 0 70 -69 0 0 69 -140 0 0 70 -69 0 0 139 -70 0 0 70 -70 0 0 70 -69 0 0 69 -70 0 0 70 -70 0 0 70 -348 0 0 69 -209 0 0 70 -70 0 0 70 -69 0 0 -70 -140 0 0 -70 -139 0 0 -278 -70 0 0 -209 -69 0 0 -70 -140 0 0 -279 -69 0 0 -209 -70 0 0 -139 -139 0 0 -279 69 0 0 -69 70 0 0 -140 70 0 0 -69 69 0 0 -209 140 0 0 -70 69 0 0 -209 70 0 0 -1881 70 0 0 -70 69 0 0 -348 70 0 0 -1393 -70 0 0 -70c383,0 -499,-2020 -766,-2020l0 -140 -70 0 0 -69 -139 0 0 -70 -70 0 0 -139 -69 0 0 -70 -140 0 0 -70 -69 0 0 -69 -70 0 0 -70 -70 0 0 -70 -209 0 0 -69 -209 0 0 -70 -69 0 0 -70 -70 0 0 -69 -1254 0 0 69 -70 0 0 70 -69 0 0 70 -279 0 0 69 -348 0 0 70 -140 0 0 70 -69 0 0 69 -140 0 0 70 -278 0 0 70 -140 0 0 69 -69 0 0 70 -70 0 0 70 -348 0 0 69 -140 0 0 140 -69 0 0 69 -279 0 0 70 -139 0 0 70 -140 0 0 69 -69 0 0 70 -279 0 0 70 -139 0 0 69 -70 0 0 70 -70 0 0 70 -69 0 0 69c-168,0 -1742,1185 -1742,1254l-139 0 0 70 -70 0 0 70 -209 0 0 69 -139 0 0 70 -139 0 0 139 -70 0 0 70 -70 0 0 70 -69 0 0 69 -70 0 0 70 -70 0 0 139 -70 0 0 140 -69 0 0 69 -140 0 0 70 -69 0 0 70 -70 0 0 69 -70 0 0 70 -209 0 0 70 -69 0 0 69 -70 0 0 70 -69 0 0 70 -349 0 0 -70 70 0 0 -70 70 0 0 -209 69 0 0 -278 70 0 0 -209 70 0 0 -140 69 0c0,-2485 -958,-3901 -3274,-3901l0 70 -139 0 0 69 -70 0 0 70 -70 0 0 70 -69 0 0 69 -70 0 0 70 -70 0 0 70 -69 0 0 209 -70 0 0 139 -70 0 0 70 -69 0 0 69 -70 0 0 140 -70 0 0 69 -69 0 0 70 -70 0 0 70 -70 0 0 69 -139 0 0 70 -70 0 0 70 -69 0 0 69 -70 0 0 70 -209 0 0 70 -70 0 0 69 -69 0 0 140 -349 0 0 69 -418 0 0 70 -69 0 0 139 -209 0 0 70 -70 0z"/>
     <path class="fil1" d="M24289 37794l349 0 0 -70 69 0 0 -139 70 0 0 -70 139 0 0 -70 140 0 0 -139 69 0 0 -70 349 0 0 -69 69 0 0 -70 70 0 0 -139 766 0 0 69 70 0 0 627 -70 0 0 70 -69 0 0 70 -70 0 0 69 -70 0 0 418 70 0 0 209 70 0 0 70 69 0 0 418 -69 0 0 70 -70 0 0 139 -70 0 0 209 -69 0 0 139 -140 0 0 70 -69 0 0 139 -70 0 0 70 -279 0 0 70 -69 0 0 627 69 0 0 139 70 0 0 70 70 0 0 139 69 0 0 209 70 0 0 209 70 0 0 70 69 0 0 69 70 0 0 279c59,0 1184,1302 1184,1324l70 0 0 69 70 0 0 70 69 0 0 70 70 0 0 69 70 0 0 70 69 0 0 70 70 0 0 139 70 0 0 279c102,0 1099,1184 1463,1184l0 70 69 0 0 139 70 0 0 69 139 0 0 70 140 0 0 70 139 0 0 70 139 0 0 69 209 0 0 70 209 0 0 70 70 0 0 209 70 0 0 69 209 0 0 70 209 0 0 70 139 0 0 69 209 0 0 70 70 0 0 70 69 0 0 69 70 0 0 70 627 0 0 69 70 0 0 70 69 0 0 70 70 0 0 69 209 0 0 70 836 0 0 70 69 0 0 70 70 0 0 69 140 0 0 70 1253 0 0 -70 279 0 0 -69 139 0 0 -70 70 0 0 -70 488 0 0 -70 348 0 0 -69 70 0 0 -140 70 0 0 -69 69 0 0 -70 766 0 0 70 140 0 0 -70 139 0 0 -69 139 0 0 -70 140 0 0 -70 209 0 0 -69 69 0 0 -70 70 0 0 -70 139 0 0 -69 140 0 0 -70 69 0 0 -139 70 0 0 -70 70 0 0 -139 69 0 0 -418 70 0 0 -70 70 0 0 -70 69 0 0 -69 70 0 0 -70 -70 0 0 -70 -69 0 0 -139 -70 0 0 -139 70 0 0 -70 139 0 0 -139 139 0 0 -70 70 0 0 -70 70 0 0 -139 69 0 0 -70 140 0 0 -69 69 0 0 -70 70 0 0 -70 70 0 0 -69 139 0 0 -70 70 0 0 -697 69 0 0 -69 70 0 0 -70 209 0 0 -70 70 0 0 -69 69 0 0 -140 70 0 0 -278 -70 0 0 -70 -69 0 0 -70 -70 0 0 -209 70 0 0 70 418 0 0 -70 69 0 0 -209 209 0 0 -139 70 0 0 -139 279 0 0 -70 209 0 0 -70 69 0 0 -278 -69 0 0 -70 -70 0 0 -70 -70 0 0 -348 140 0 0 -70 69 0 0 -209 70 0 0 -209 70 0 0 -139 -70 0 0 -209 70 0 0 -70 139 0 0 -139 70 0 0 -139 -70 0 0 -836 70 0 0 -70 209 0 0 -70 139 0 0 -69 70 0 0 -70 278 0 0 -70 140 0 0 -139 69 0 0 -139 -69 0 0 -140 -70 0 0 -69 -70 0 0 -209 -139 0 0 -70 -70 0 0 -70 -69 0 0 -348 69 0 0 -70 140 0 0 -418 -70 0 0 -418 70 0 0 -69 69 0 0 -70 70 0 0 -139 70 0 0 -140 69 0 0 -139 70 0 0 -279 70 0 0 -209 278 0 0 -139 70 0 0 -1045 348 0 0 -209 70 0 0 -209 -139 0 0 -70 -140 0 0 -69 140 0 0 -70 209 0 0 -70 139 0 0 -487 -70 0 0 -70 -69 0 0 -70 -140 0 0 -139 140 0 0 -139 69 0 0 -209 70 0 0 -279 70 0 0 -139 69 0 0 -70 70 0 0 -70 209 0 0 -69 70 0 0 -209 69 0 0 -140 70 0 0 -69 -70 0 0 -279 -69 0 0 -279 -70 0 0 -69 -70 0 0 -70 -69 0 0 -70 -140 0 0 -69 -278 0 0 69 -140 0 0 70 -139 0 0 139 -70 0 0 70 -69 0 0 70 -418 0 0 139 -70 0 0 348 -139 0 0 70 -140 0 0 70 -69 0 0 69 -70 0 0 70 -139 0 0 139 -70 0 0 488 -139 0 0 70 -70 0 0 69 -70 0 0 70 -139 0 0 70 -139 0 0 69 -70 0 0 70 -70 0 0 70 -69 0 0 348 -70 0 0 209 -70 0 0 279 -69 0 0 69 -70 0 0 140 -70 0 0 209 -69 0 0 69 -140 0 0 70 -69 0 0 348 -70 0 0 140 -70 0 0 69 -69 0 0 140 -70 0 0 278 -70 0 0 70 -139 0 0 70 -70 0 0 139 -69 0 0 139 -70 0 0 349 70 0 0 69 -70 0 0 70 -70 0 0 70 -69 0 0 69 -70 0 0 209 -70 0 0 70 -69 0 0 70 -70 0 0 69 -70 0 0 140 -69 0 0 69 -70 0 0 70 -139 0 0 139 -70 0 0 70 -70 0 0 70 -139 0 0 69 -70 0 0 70 -69 0 0 70 -70 0 0 139 139 0 0 348 -139 0 0 70 -70 0 0 139 -139 0 0 70 -139 0 0 70 -70 0 0 766 -70 0 0 70 -139 0 0 69 -70 0 0 70 -69 0 0 70 -140 0 0 69 -69 0 0 279 -70 0 0 139 -70 0 0 70 -69 0 0 139 -70 0 0 140 -70 0 0 69 -69 0 0 70 -70 0 0 139 -70 0 0 70 -69 0 0 70 -70 0 0 69c-378,0 -1393,914 -1393,1254l-209 0 0 70 -209 0 0 70 -70 0 0 139 -70 0 0 70 -487 0 0 -70 -418 0 0 70 -209 0 0 139 -70 0 0 70 -69 0 0 -70 -70 0 0 -70 -139 0 0 -69 -349 0 0 -70 -278 0 0 -70 -70 0 0 -69 -139 0 0 -70 -209 0 0 -70 -209 0 0 -139 -70 0 0 -70 -70 0 0 -69 -348 0 0 -70 -70 0 0 -209 -69 0 0 -70c-225,0 -1751,-2229 -1812,-2229l0 -70 -69 0 0 -69 -70 0 0 -349 -70 0 0 -278 -69 0 0 -70 -70 0 0 -70 -70 0 0 -69 -69 0 0 -209 -70 0 0 -140 -70 0 0 -69 -69 0 0 -140 -70 0 0 -278 -70 0 0 -140 -139 0 0 -69 -70 0 0 -836 -69 0 0 -279 -70 0 0 -70 -70 0 0 -209 -69 0 0 -557 -70 0 0 -209 -70 0 0 -139 -69 0 0 -70 -70 0 0 -488 -70 0 0 -209 -69 0 0 -139 -140 0 0 -348 -69 0 0 -279 -70 0c0,-542 -1324,-2221 -1324,-2229l-69 0 0 -70 -209 0 0 -70 -70 0 0 -139 -139 0 0 -70 -418 0 0 -69 -140 0 0 -70 -139 0 0 70 -139 0 0 69 -418 0 0 70 -140 0 0 488 -69 0 0 69 -70 0 0 70 -70 0 0 139 -69 0 0 349 -70 0 0 139 -70 0 0 139 70 0 0 209 -70 0 0 70 -69 0 0 70 -70 0 0 278 -70 0 0 279 -69 0 0 70 -70 0 0 69 -70 0 0 140 -69 0 0 209 -70 0 0 69 -70 0 0 70 -69 0 0 209 -70 0 0 557 -70 0 0 70 -69 0 0 70 -70 0 0 557 -70 0 0 139 70 0 0 279 70 0 0 70 69 0 0 209 70 0 0 348 70 0 0 209 69 0 0 70 70 0 0 139 70 0 0 906 69 0 0 278 70 0 0 70 70 0 0 209 69 0 0 279z"/>
     <path class="fil1" d="M25474 40371l0 -487 69 0 0 -70 279 0 0 -70 70 0 0 -139 69 0 0 -70 140 0 0 -139 69 0 0 -209 70 0 0 -139 70 0 0 -70 69 0 0 -418 -69 0 0 -70 -70 0 0 -209 -70 0 0 -418 70 0 0 -69 70 0 0 -70 69 0 0 -70 70 0 0 -627 -70 0 0 -69 -766 0 0 139 -70 0 0 70 -69 0 0 69 -349 0 0 70 -69 0 0 139 -140 0 0 70 -139 0 0 70 -70 0 0 139 -69 0 0 70 -418 0 0 139 -140 0 0 70 -69 0 0 209 -70 0 0 139 -70 0 0 70 -69 0 0 69 -140 0 0 70 -557 0 0 70 -70 0 0 69 -69 0 0 70 -70 0 0 70 -70 0 0 69 -139 0 0 70 -70 70c-642,0 -1233,1323 -1950,1323l-140 209 -278 0 0 70 -70 0 0 70 -70 0 0 69 -69 0 0 70 -209 0 0 70 -140 0 0 139 -69 0 0 70 -209 0 0 69 -418 0 0 70c-7,0 -3003,1881 -3414,1881l0 70 -209 0 0 69 -69 0 0 70 -70 0 0 70 -139 0 0 69 -140 0 0 70 -69 0 0 70 -70 0 0 69 -70 0 0 140 -69 0 0 69 -140 0 0 70 -278 0 0 70 -209 0 0 69 -140 0 0 70 -69 0 0 70 -140 0 0 69 -696 0 0 70 -488 0 0 70 -209 0 0 69 -139 0 0 70 -1881 0 0 -139 -70 0 0 -70 -70 0 0 -70 -139 0 0 -209 -70 0 0 -209 70 0 0 -278 70 0 0 -70 69 0 0 -279 70 0 0 -905 70 0 0 -140 139 0 0 -69 70 0 0 -140 69 0 0 -278 70 0 0 -209 -70 0 0 -488 140 0 0 -70 139 0 0 -209 139 0 0 -69 140 0 0 -70 69 0 0 -70 70 0 0 -69 70 0 0 -70 69 0 0 -70 70 0 0 -69 70 0 0 -70 69 0 0 -70 70 0 0 -209 70 0 0 -139 69 0 0 -70 70 0 0 -69 70 0 0 -209 69 0 0 -140 70 0 0 -69 70 0 0 -70 69 0 0 -139 70 0 0 -140 139 0 0 -69 70 0 0 -140 70 0 0 -139 69 0 0 -70 70 0 0 -69 70 0 0 -70 69 0 0 -209 70 0 0 -70 70 0 0 -69 69 0 0 -140 140 0 0 -69 348 0 0 -70 70 0 0 -70 69 0 0 -69c221,-111 2299,-1339 2299,-1533l209 0 0 -70 70 0 0 -69 70 0 0 -70 69 0 0 -70 140 0 0 -69 69 0 0 -140 70 0 0 -69 279 0 0 69 139 0 0 70 69 0 0 70 140 0 0 -70 69 0 0 -70 140 0 0 -69 348 0 0 -70 209 0 0 -70 139 0 0 -69 209 0 0 69 70 0 0 70 209 0 0 70c621,0 738,209 906,209l0 69 139 0 0 70 139 0 0 70 70 0 0 69 70 0 0 70 696 0 0 -70c328,-174 851,-362 1115,-627l0 -139 139 0 0 -70 70 0 0 -69 70 0 0 -140 69 0 0 -69 70 0 0 -70 70 0 0 -70 69 0 0 -905 -69 0 0 -140 -70 0 0 -139 -70 0 0 -209 -69 0 0 -418 -70 0 0 -139 -70 0 0 -70 -69 0 0 -70 -70 0 0 -209 -70 0 0 -69 -69 0 0 -70 -70 0 0 -70 -70 0 0 -69 -278 0 0 -70 -70 0 0 -70 -70 0 0 -69 -69 0 0 -70 -209 0 0 -70 -349 0 0 -69 -139 0 0 69 -139 0 0 70 -279 0 0 70 -209 0 0 -70 -418 0 0 -70 -209 0 0 -69 -70 0 0 -70 -139 0 0 -70 -557 0 0 70 -209 0 0 70 -70 0 0 69 -139 0 0 70 -1533 0 0 70 -69 0 0 69 -70 0 0 70 -70 0 0 70 -69 0 0 69 -140 0 0 70 -69 0 0 139 -836 0 0 70 -140 0 0 70 -139 0 0 139 -209 0 0 70 -139 0 0 69 -70 0 0 70 -70 0 0 70 -209 0 0 69 -139 0 0 70 -70 0 0 70 -69 0 0 69 -70 0 0 70 -209 0 0 70 -70 0 0 69 -69 0 0 70 -140 0 0 70 -139 0 0 69 -70 0 0 70 -69 0 0 139c-256,0 -2926,2003 -2926,2926l-70 0 0 70 -139 0 0 139 -70 0 0 70 -209 0 0 70 -70 0 0 139 -69 0 0 70 -140 0 0 69 -69 0 0 140 -70 0 0 69 -70 0 0 70 -69 0 0 70 -70 0 0 139 -70 0 0 209 -69 0 0 70 -70 0 0 69 -70 0 0 140 -69 0 0 209 -140 0 0 139 -69 0 0 209 -70 0 0 418c-1139,0 -1393,3495 -1393,4389l69 0 0 139 70 0 0 70 70 0 0 418 69 0 0 418 70 0 0 70 70 0 0 69 69 0 0 140 70 0 0 208 139 0 0 70 70 0 0 70 70 0 0 139 69 0 0 70 209 0 0 70 70 0 0 69 70 0 0 70 69 0 0 70 70 0 0 69 70 0 0 140 69 0 0 69 70 0 0 70 70 0 0 278 69 0 0 140 70 0 0 69 139 0 0 70 279 0 0 70 70 0 0 139 209 0 0 70 278 0 0 70 70 0 0 139 139 0 0 70 140 0c0,376 1184,237 1184,0l348 0c0,762 2063,278 2578,278l0 -70 70 0 0 -139 69 0 0 -69 140 0 0 -70 69 0 0 -209 70 0 0 -279 139 0 0 70 70 0 0 70 70 0 0 69 139 0 0 70 348 0 0 -70 209 0 0 -69 70 0 0 -70 70 0 0 -70 69 0 0 -70 70 0 0 -69 70 0 0 -70 69 0 0 -70 70 0 0 -69 279 0 0 -70 209 0 0 -69 69 0 0 -70 209 0 0 -70 70 0 0 -69 139 0 0 -70 209 0 0 -70 488 0 0 -69 209 0 0 -70 70 0 0 -70 69 0 0 -139 70 0 0 -70 139 0 0 -139 70 0 0 -70 139 0 0 -70 139 0 0 -139 70 0 0 -69 139 0 0 -70 70 0 0 -70 70 0 0 -139 139 0 0 -70 70 0 0 -209 696 -69 0 -70 70 0 0 -70 70 0 0 -69 69 0 0 -70 140 0 0 -70 69 0 0 -69 70 0 0 -70 70 0 0 -70 139 0 0 -69 139 0 0 -70 140 -139c295,0 1323,-907 1323,-1185l140 0 0 70 209 0 0 70 209 0 0 69 69 0 0 -69 70 0 0 -70 70 0 0 -70 69 0 0 -69 70 0 0 -70 70 0 0 -70 69 0 0 -69 70 0 0 -70 70 0 0 -70 69 0 0 -69 70 0 0 -70 70 0 0 -70c218,0 1049,-1114 1672,-1114l0 -70 69 0 0 -279 140 0z"/>
     <path class="fil1" d="M33903 28737l-278 0 0 70 -70 0 0 69c-481,0 -1463,1013 -1463,1324l-139 0 0 139 -70 0 0 140 -70 0 0 418 70 0 0 348 -70 0 0 139 -69 0 0 70 -70 0 0 70 -70 0 0 139 -69 0 0 418 -70 0 0 70 -70 0 0 69 -69 0 0 140 -70 0 0 905 70 0 0 279 69 0 0 139 70 0 0 70 70 0 0 279 69 0 0 139 70 0 0 139 139 0 0 209 70 0 0 140 70 0 0 69 69 0 0 70 70 0 0 139 70 0 0 140 69 0 0 69 140 0 0 70 69 0 0 70 70 0 139 139 0 70 140 0 0 69c3,0 1235,558 2507,558l0 -70 418 0 0 -70 70 0 0 -69 70 0 0 -70 139 0 0 -70 209 0 0 -69 70 0 0 -70 70 0 0 -70 69 0 0 -69 139 0 0 -70 70 0 0 -139 70 0 0 -70 139 0 0 -70 70 0 0 -139 69 0 0 -139 70 0 0 -70 70 0 0 -70 69 0 0 -139 70 0 0 -209 70 0 0 -70 69 0 0 -69 70 0 0 -209 70 0 0 -418 69 0 0 -140 70 0 0 -69 70 0 0 -1603 -70 0 0 -139 -70 0c0,-1167 -1599,-2926 -2717,-2926l0 -70 -975 0 0 70z"/>
    </g>
   </g>
  </g>
 </g>
</svg>
