<?xml version="1.0" encoding="UTF-8"?>
<!DOCTYPE svg PUBLIC "-//W3C//DTD SVG 1.1//EN" "http://www.w3.org/Graphics/SVG/1.1/DTD/svg11.dtd">
<!-- Creator: CorelDRAW X7 -->
<svg xmlns="http://www.w3.org/2000/svg" xml:space="preserve" width="108.371mm" height="95.2685mm" version="1.1" style="shape-rendering:geometricPrecision; text-rendering:geometricPrecision; image-rendering:optimizeQuality; fill-rule:evenodd; clip-rule:evenodd"
viewBox="0 0 29386 25833"
 xmlns:xlink="http://www.w3.org/1999/xlink">
 <defs>
  <style type="text/css">
   <![CDATA[
    .fil2 {fill:#007734}
    .fil0 {fill:#3A3435}
    .fil3 {fill:#76B600}
    .fil1 {fill:white}
   ]]>
  </style>
   <mask id="id0">
  <linearGradient id="id1" gradientUnits="userSpaceOnUse" x1="6075.46" y1="8828.08" x2="17498" y2="14512">
   <stop offset="0" style="stop-opacity:1; stop-color:white"/>
   <stop offset="0.101961" style="stop-opacity:0.501961; stop-color:white"/>
   <stop offset="1" style="stop-opacity:0; stop-color:white"/>
  </linearGradient>
    <rect style="fill:url(#id1)" x="616" y="22" width="22341" height="23295"/>
   </mask>
    <clipPath id="id2">
     <path d="M2060 6630l27326 0 0 18343 -27326 0 0 -18343z"/>
    </clipPath>
 </defs>
 <g id="Capa_x0020_1">
  <metadata id="CorelCorpID_0Corel-Layer"/>
  <circle class="fil0" cx="13704" cy="12916" r="12916"/>
  <path class="fil1" style="mask:url(#id0)" d="M12730 8855c-4248,5731 -839,10363 -6887,14462 -5731,-4248 -6933,-12337 -2686,-18068 4248,-5731 12338,-6933 18068,-2685 5731,4247 -4247,560 -8495,6291z"/>
  <g id="_286572960">
   <g style="clip-path:url(#id2)">
    <image x="2060" y="6630" width="27325" height="18343" xlink:href="logo_Images\logo_ImgID1.jpg"/>
   </g>
  </g>
  <g id="_286573224">
   <path class="fil2" d="M15138 8862l45 95 -32 16 45 96 -159 75 226 480 -32 15 30 64 -128 60 46 96 -32 15 60 128 -32 16 30 63 -32 16 30 64 -31 15 30 64 -32 15 15 32 -32 15 15 32 -32 15 91 192 32 -15 90 192 -64 30 15 32 -32 15 76 160 32 -15 15 32 32 -15 15 32 64 -30 -30 -64 32 -16 -15 -32 32 -15 -46 -96 96 -45 -15 -32 32 -15 -15 -32 32 -15 -15 -32 32 -15 -15 -32 96 -45 -15 -32 64 -31 -15 -32 32 -15 -31 -64 96 -45 -15 -32 32 -15 -15 -32 32 -15 -30 -64 96 -45 -15 -32 256 -121 -15 -32 32 -15 -31 -64 32 -15 -15 -32 64 -31 -30 -64 32 -15 -30 -64 96 -45 -15 -32 32 -15 -15 -32 32 -15 -16 -32 64 -30 -15 -32 96 -46 31 64 -64 30 15 32 -32 16 60 128 -32 15 76 160 -32 15 15 32 -32 15 15 32 -32 15 30 64 -32 15 151 320 -96 45 15 32 -128 61 15 32 -32 15 15 32 -32 15 31 64 -64 30 15 32 -32 15 30 64 -32 15 30 64 -64 30 15 32 -32 15 31 64 -64 31 15 32 -64 30 15 32 -32 15 15 32 -32 15 15 32 -32 15 15 32 -32 15 30 64 -32 15 91 192 -96 45 15 32 -32 16 15 32 -32 15 15 32 -32 15 15 32 -32 15 16 32 -32 15 30 64 -32 15 30 64 -32 15 15 32 -32 15 15 32 -32 15 106 224 -32 15 75 160 -32 15 76 160 -32 15 45 96 -32 15c275,583 733,1141 1342,854l15 32 64 -31 15 32 96 -45 -15 -32 32 -15 -15 -32 32 -15 -15 -32 64 -30 -15 -32 32 -15 -31 -64 32 -15 -45 -96 32 -16 -15 -32 64 -30 -15 -32 64 -30 -15 -32 32 -15 -15 -32 32 -15 -15 -32 32 -15 -16 -32 32 -15 -15 -32 64 -31 -30 -63 64 -31 -15 -32 128 -60 -15 -32 32 -15 -15 -32 32 -15 -15 -32 32 -15 -15 -32 31 -15 -30 -64 32 -16 -15 -32 64 -30 -15 -32 128 -60 -15 -32 64 -30 -30 -64 32 -15 -15 -32 32 -15 -16 -32 32 -16 -75 -160 32 -15 -45 -96 224 -105 15 32 96 -46 -16 -32 64 -30 -15 -32 64 -30 -15 -32 32 -15 -15 -32 32 -15 -15 -32 32 -15 -15 -32 32 -15 -15 -32 32 -16 -15 -31 32 -16 -15 -32 64 -30 -16 -32 32 -15 -15 -32 32 -15 -90 -192 32 -15 -30 -64 31 -15 -15 -32 32 -15 -15 -32 64 -30 -15 -32 96 -46 -15 -32 32 -15 -15 -32 32 -15 -15 -32 64 -30 -15 -32 64 -30 -15 -32 32 -15 -16 -32 32 -15 -15 -32 32 -16 -15 -32 64 -30 -15 -32 32 -15 -15 -32 32 -15 -30 -64 64 -30 -15 -32 32 -15 -15 -32 32 -15 -16 -32 32 -15 -15 -32 64 -31 -15 -32 32 -15 -30 -64c142,-67 601,-1457 795,-1548l-16 -32 96 -46 -15 -32 64 -30 -15 -32 32 -15 -15 -32 128 -60 -15 -32 64 -30 -15 -32 64 -31 -15 -32 32 -15 -15 -32 32 -15 -16 -32 96 -45 -15 -32 32 -15 -15 -32 32 -15 -15 -32 64 -31 -15 -32 128 -60 -15 -32 32 -15 -15 -32 32 -15 -15 -32 64 -30 -16 -32 224 -106 197 416 -32 15 15 32 32 -15 272 576 -32 15 30 64 -32 15 60 128 32 -15 46 96 32 -15 105 224 -32 15 15 32 -32 15 16 32 -32 15 30 64 32 -15 30 64 32 -15 15 32 32 -16 181 384 32 -15 46 96 31 -15 91 192 -32 15 61 128 -32 15 15 32 32 -15 75 160 32 -15 30 64 64 -30 76 160 32 -15 45 95 32 -15c130,275 1122,605 1494,430l15 32 64 -30 15 32 192 -91 -15 -32 64 -30 -15 -32 32 -15 15 32 224 -106 15 32 192 -91 -15 -32 32 -15 -15 -32 95 -45 -15 -32 32 -15 -15 -32 32 -15 -15 -32 32 -15 -15 -32 96 -46 -15 -32 64 -30 -15 -32 32 -15 -15 -32 32 -15 -15 -32 32 -15 -16 -32 64 -30 -15 -32 32 -15 -30 -64 32 -16 -15 -32 64 -30 -15 -32 32 -15 -30 -64 32 -15 -15 -32c406,-192 201,-838 480,-970l-15 -32 32 -15 -15 -32 32 -15 -15 -32 64 -31 -30 -64 32 -15 -15 -32 96 -45 -15 -32 64 -30 -16 -32 32 -15 -15 -32c141,-67 576,-1433 556,-1475l32 -15 -15 -32 32 -15 -15 -32 32 -15 -16 -32 32 -16 -30 -64 32 -15 -15 -32 32 -15 -15 -32 32 -15 -30 -64 32 -15 -76 -160 32 -15 -90 -192 -32 15 -182 -384 32 -15 -15 -32 32 -15 -15 -32 32 -15 -60 -128 -32 15 -15 -32 -32 15 -15 -32 -32 15 -31 -64 -64 31 -15 -32 -128 60 15 32 -95 45 15 32 -32 15 30 64 -64 31 15 32 -64 30 30 64 -32 15 15 32 -32 15 15 32 -64 30 16 32 -32 15 15 32 -32 15 15 32 -64 31 15 32 -32 15 15 32 -32 15 30 64 -96 45 15 32 -32 15 15 32 -32 15 16 32 -32 15 15 32 -64 31 15 32 -64 30 15 32 -32 15 15 32 -32 15 15 32 -64 30 15 32 -96 45 15 32 -32 16 16 31 -32 16 15 32 -32 15 15 32 -96 45 15 32 -64 30 15 32 -32 15 15 32 -32 15 15 32 -32 15 15 32 -32 16 15 32 -32 15 16 32 -32 15 15 32 -32 15 45 96 -32 15 30 64 -64 30 15 32 -32 15 31 64 -32 15 45 96 -32 15 15 32 -32 15 15 32 -256 121 15 32 -32 15 15 32 -32 15 31 64 -32 15 15 32 -32 16 15 32 -32 15 15 32 -32 15 15 32 -32 15 15 32 -32 15 15 32 -32 15 15 32 -32 15 16 32 -32 15 15 32 -64 30 15 32 -32 16 30 63 -32 16 15 32 -32 15 15 32 -32 15 15 32 -32 15 15 32 -32 15 16 32 -160 75 15 32 -96 46 15 32 -32 15 15 32 -32 15 -15 -32 -64 30 -15 -32 -64 30 -61 -128 -32 16 -45 -96 -32 15 -15 -32 -64 30 -60 -128 -32 15 -46 -96 -32 15 -30 -64 -64 30 -60 -128 32 -15 -15 -32 32 -15 -31 -64 32 -15 -15 -32 32 -15 -45 -96 64 -30 -15 -32 32 -15 -46 -96 32 -15 -407 -864 32 -15 -15 -32 32 -15 -76 -160 32 -15 -302 -640 -32 15 -15 -32c176,-83 -667,-819 -790,-762l-30 -64 -32 16 -15 -32 -64 30 -15 -32 -32 15 -30 -64 -32 15 -16 -32 -64 30 -15 -32 -32 15 -15 -32 -32 15 -15 -32 -32 16 -15 -32 -96 45 -15 -32 -96 45 -15 -32 -32 15 -15 -32 -32 15 -15 -32 -576 272 15 32 -32 15 15 32 -32 15 15 32 -128 61 15 32 -160 75 16 32 -64 31 15 32 -32 15 15 32 -64 30 15 32 -128 60 15 32 -64 30 15 32 -32 16 15 32 -32 15 15 32 -160 75 16 32 -64 30 30 64 -32 15 15 32 -128 61 15 32 -64 30 15 32 -64 30 15 32 -32 15 15 32 -128 61 16 32 -64 30 15 32 -32 15 15 32 -32 15 15 32 -32 15 15 32c-77,36 -543,922 -528,954l-64 30 15 32 -32 15 15 32 -96 45 15 32 -63 30 15 32 -64 31 30 63 -32 16 15 32 -32 15 15 32 -32 15 15 32 -32 15 15 32 -32 15 30 64 -32 15 31 64 -32 15 15 32 -64 30 15 32 -32 15 15 32 -32 15 15 32 -32 16 15 32 -96 45 15 32 -32 15 16 32 -32 15 15 32 -32 15 15 32 -160 76 -15 -32 32 -15 -15 -32 32 -16 -46 -96 32 -15 -60 -128 32 -15 -45 -96 32 -15 -31 -64 32 -15c-539,-1141 -1285,-1584 -2349,-1081l15 32 -64 30 15 32 -32 15 15 32 -32 15 16 32 -32 15 15 32 -32 15 15 32 -32 15 15 32 -32 15 45 96 -32 15 30 64 -32 15 15 32 -31 16 15 32 -32 15 30 64 -32 15 15 32 -32 15 15 32 -32 15 15 32 -32 15 15 32 -64 30 15 32 -32 15 16 32 -32 15 15 32 -32 15 15 32 -96 46 15 32 -32 15 15 32 -32 15 30 64 -160 75 15 32 -192 91 16 32 -32 15 30 64 -96 45 15 32 -32 16z"/>
   <path class="fil3" d="M7179 15122l160 -75 -15 -32 32 -15 -30 -64 32 -15 -15 -32 64 -31 -15 -32 64 -30 -31 -64 32 -15 -15 -32 160 -75 -15 -32 32 -15 -15 -32 32 -15 -30 -64 352 -167 15 32 32 -15 136 288 -32 15 15 32 -32 15 15 32 -32 16 15 31 -32 16 91 192 32 -16 45 96 32 -15 15 32 32 -15 91 192 -32 15 15 32 -32 15 30 64 -32 15 45 96 -32 15 31 64 -64 31 15 32 -32 15 30 64 -32 15 15 32 -128 60 15 32 -32 15 136 288 32 -15 30 64 32 -15 15 32 32 -15 31 64 32 -15 45 96 32 -15 45 96 32 -15 15 32 32 -16 15 32 32 -15 61 128c27,-12 826,341 831,351l32 -15 15 32 32 -15 15 32 32 -15 15 32 32 -15 15 32 32 -15 15 32 32 -15 15 32 32 -15 30 64 32 -16 61 128c47,-22 761,306 928,227l15 32 32 -15 30 64 32 -15 16 32 64 -30 15 32 64 -31 15 32 64 -30 15 32 64 -30 15 32 96 -45 15 32 96 -46 15 32 32 -15 45 96 32 -15 15 32 96 -45 15 32 96 -46 16 32 64 -30 15 32 96 -45 15 32 32 -15 15 32 32 -15 15 32 32 -15 15 32 288 -136 15 32 32 -15 15 32 32 -16 15 32 32 -15 15 32 96 -45 15 32 384 -181 15 32 32 -15 15 32 32 -15 15 32 64 -31 16 32 575 -272 -15 -32 128 -60 -15 -32 64 -30 -15 -32 32 -15 -15 -32 224 -106 -15 -32 160 -75 -15 -32 32 -16 -31 -63 32 -16 -15 -32 32 -15 -15 -32 352 -166 15 32 64 -30 -15 -32 64 -30 -15 -32 64 -30 -15 -32 64 -31 -15 -32 96 -45 -15 -32 32 -15 -16 -32 32 -15 -15 -32 64 -30 -15 -32 64 -30 -15 -32 32 -16 -30 -64 32 -15 -15 -32 32 -15 -31 -64 32 -15 -90 -192 32 -15 -15 -32 32 -15 -15 -32 32 -15 -15 -32 32 -15 -16 -32 -32 15 -15 -32 -32 15 -30 -64 -32 15 -30 -64 32 -15 -15 -32 64 -30 -30 -64 64 -30 -16 -32 33 -15 -16 -32 32 -15 -30 -64 32 -15 -15 -33 64 -30 -15 -32 32 -15 -15 -32 32 -15 -15 -32 32 -15 -15 -32 64 -30 -16 -32 32 -15 -151 -320 32 -15 -15 -32 32 -15 -15 -32 96 -46 -15 -32 32 -15 -15 -32 32 -15 -30 -64 32 -15 -61 -128 -32 15 -15 -32 -32 15 -15 -32 -32 15 -45 -96 32 -15 15 32 192 -90 -15 -32 32 -15 -46 -96 96 -46 -30 -64 32 -15 -30 -64 128 -60 -15 -32 96 -45 -15 -32 32 -15 -61 -128 -32 15 -15 -32 -32 15 -15 -32 -32 15 -75 -160 64 -30 -16 -32 33 -15 -46 -96 32 -15 -45 -96 32 -16 -30 -63 -32 15 -46 -96 32 -15 -15 -32 64 -31 -30 -64 32 -15 -30 -64 -32 15 -181 -383 32 -16 -16 -32 96 -45 -15 -32 64 -30 -15 -32 32 -15 -15 -32 128 -61 -15 -32 64 -30 -30 -64 32 -15 -30 -64 -32 15 -31 -64 -32 15 -15 -32 -32 16 -45 -96 -64 30 -15 -32 -32 15 -15 -32 -32 15 -76 -160 32 -15 -15 -32 64 -30 -90 -192 -32 15 -91 -192 32 -15 -15 -32 32 -15 -15 -32 32 -15 -30 -64 31 -15 -30 -64 32 -16 -30 -63 32 -16 -60 -128 32 -15 -46 -96 128 -60 -30 -64 32 -15 -226 -480 159 -75 -45 -96 32 -16 -45 -95 -64 30 -15 -32 -64 30 -15 -32 64 -30 -15 -32 96 -46 -16 -32 64 -30 -105 -224 -32 15 -15 -32 -32 16 -15 -32 -64 30 -31 -64 64 -30 -30 -64 32 -16 -45 -95 32 -16 -61 -128 32 -15 -30 -64 32 -15 -15 -32 32 -15 -15 -32 96 -45 -15 -32 32 -15 -46 -96 32 -15 -30 -64 32 -15 -15 -32 -32 15 -60 -128 -32 15 -61 -128 -32 15 -15 -32 -32 15 -15 -32 -32 15 -15 -32 -64 30 -15 -31 -128 60 15 32 -64 30 15 32 -64 30 31 64 -32 15 15 32 -32 15 15 32 -192 91 30 64 -32 15 76 160 -64 30 15 32 -64 30 15 32 -32 16 15 32 -32 15 15 32 -64 30 30 64 -32 15 106 224 -64 30 15 32 -32 15 15 32 -32 15 15 32 -64 30 15 32 -64 31 16 32 -32 15 15 32 -32 15 15 32 -32 15 75 160 -32 15 46 96 -32 15 60 128 -32 15 15 32 -32 15 30 64 -32 15 46 96 -32 15 15 32 -64 31 15 32 -32 15 75 160 -32 15 31 64 -32 15 15 32 -32 15 30 64 -32 15 60 128 -32 15 15 32 -63 30 15 32 -32 15 30 64 -32 15 30 64 -32 15 76 160 32 -15 15 32 -32 15 15 32 -32 16 15 31 -32 16 15 32 -32 15 45 96 -32 15 15 32 -32 15 16 32 -32 15 15 32 -32 15 30 64 -32 15 15 32 -32 15 15 32 -64 30 30 64 -32 15 15 32 -32 16 16 32 -64 30 15 32 -32 15 15 32 -32 15 15 32 -32 15 30 64 64 -30 76 160 -64 30 15 32 -32 15 30 64 -64 30 15 32 -64 30 15 32 -32 16 166 351 -32 16 15 32 -64 30 16 32 -32 15 15 32 -32 15 15 32 -64 30 15 32 -32 15 60 128 -32 15 31 64 -32 15 15 32 -32 15 30 64 -32 15 30 64 -32 16 15 32 -32 15 15 32 -32 15 30 64 -31 15 15 32 -32 15 15 32 -32 15 15 32c-174,82 -442,722 -368,878l-96 45 15 32 -96 45 15 32 -32 16 30 64 -32 15 15 32 -223 105 -16 -32 -191 91 15 32 -96 45 30 64 -32 15 15 32 -32 15 -15 -32 -32 16 -15 -32 -64 30 -15 -32 -160 75 -15 -32 -128 61 -15 -32 -32 15 -16 -32 -63 30 -16 -32 -96 45 -15 -32 -96 46 -30 -64 -32 15 -15 -32 -32 15 -15 -32 -160 75 -15 -32 -32 16 -45 -96 -32 15 -15 -32c-104,48 -1287,-645 -1315,-631l-16 -32 -32 15 -15 -32 -32 15 -75 -160 -32 15 -61 -128 -32 15 -15 -32 -32 15 -15 -32 -32 15 -15 -32 -32 16 -45 -96 -32 15 -30 -64 -32 15 -15 -32 -32 15 -31 -64 -32 15 -60 -128 -32 15 -30 -64 -64 30 -15 -32 -32 16 -181 -384 -32 15 -61 -128 -32 15 -15 -32 -32 15 -45 -96 -32 15 -121 -256 -32 15 -45 -96 -32 15 -31 -64 -32 16 -15 -32 -32 15 -105 -224 -32 15 -46 -96 -32 15 -30 -64 -64 30 -75 -160 -32 15 -61 -128 -32 15c-117,-249 -1089,-733 -1091,-736l-32 15 -15 -32 -96 45 -15 -32 -32 15 -30 -64 -64 31 -15 -32 -192 90 -15 -32 -64 30 -15 -32 -64 31 15 32 -64 30 15 32 -192 90 15 32 -64 31 106 224 -32 15 15 32 -32 15 15 32 -32 15 30 64 -32 15 76 160 -32 15 30 64 -32 15 30 64 32 -15 45 96 -32 15 16 32 -32 15 15 32 -32 15 60 128 -32 15 61 128 -32 15 15 32 -32 15 15 32 -32 15 30 64 -32 16 45 96 -32 15 15 32 -32 15 15 32 -32 15 46 96 -32 15 121 256 -32 15 15 32 -32 15 15 32 -32 15 121 256 -32 15 30 64 32 -15 60 128 32 -15 15 32 32 -15 46 96 32 -15 75 160 32 -16 45 96 32 -15 16 32 32 -15 30 64 32 -15 196 416 32 -15 60 128 32 -15 16 32 32 -15 45 96 32 -16 60 128z"/>
   <path class="fil2" d="M8282 16049l-106 -224 32 -15 -15 -32 128 -60 -15 -32 32 -15 -30 -64 32 -15 -15 -32 64 -31 -31 -64 32 -15 -45 -96 32 -15 -30 -64 32 -15 -15 -32 32 -15 -91 -192 -32 15 -15 -32 -32 15 -45 -96 -32 16 -91 -192 32 -16 -15 -31 32 -16 -15 -32 32 -15 -15 -32 32 -15 -136 -288 -32 15 -15 -32 -352 167 30 64 -32 15 15 32 -32 15 15 32 -160 75 15 32 -32 15 31 64 -64 30 15 32 -64 31 15 32 -32 15 30 64 -32 15 15 32 -192 90 30 64 -64 31 16 32 -32 15 45 96 -32 15 30 64 -32 15 15 32 -32 15 15 32 -64 30 15 32 -255 121 15 32 -32 15 15 32 -32 15 15 32 -32 15 15 32 -32 15 15 32 -64 31 15 32 -17 47c-295,139 -279,875 -608,1030l-19 126 -128 61 15 32 -32 15 15 32 -32 15 15 32 -32 15 15 32 -96 45 16 32 -64 31 30 64 -32 15 15 32 -96 45 15 32 -192 91 15 32c-3,1 -971,1514 -1160,1603l16 32 -96 46 15 32 -32 15 15 32 -32 15 15 32 -64 30 15 32 -64 30 15 32 -32 15 15 32 -32 15 15 32 -32 15 31 64 -32 16 15 32 -64 30 15 32 -128 60 15 32 -96 45 15 32 -64 31 15 32 -32 15 15 32 -64 30 15 32 -319 151 15 32 -224 106 15 32 -96 45 15 32 -64 30 15 32 -864 408 -30 -64 -32 15 -15 -32 -32 15 -15 -32 -64 30 -45 -96 -32 15 -46 -95 32 -16 -60 -128 32 -15 -15 -32 32 -15 -61 -128 32 -15 -196 -416 32 -15 -30 -64 64 -30 -15 -32 32 -15 -30 -64 32 -15 -61 -128 32 -15 -45 -96 -32 15 -106 -224 64 -30 -15 -32 64 -30 -45 -96 64 -31 -15 -32 63 -30 -15 -32 32 -15 -15 -32 32 -15 -15 -32 32 -15 -15 -32 32 -15 -15 -32 32 -15 -15 -32 32 -15 -15 -32 32 -15 -15 -32 32 -15 -46 -96 32 -16 -30 -64 32 -15 -15 -32 32 -15 -15 -32 32 -15 -45 -96 32 -15 -31 -64 32 -15 -15 -32 32 -15 -15 -32 32 -15 -30 -64 32 -15 -30 -64 64 -30 -15 -32 32 -15 -31 -65 32 -15 -30 -64 32 -15 -15 -32 32 -15 -15 -32 32 -15 -15 -32 32 -15 -46 -96 32 -15 -15 -32 32 -15 -15 -32 32 -15 -30 -64 64 -30 -15 -32 160 -76 -15 -32 32 -15 -15 -32 32 -15 -15 -32c77,-99 765,-1113 723,-1202l96 -46 -15 -32 32 -15 -15 -32 32 -15 -15 -32 32 -15 -16 -32 64 -30 -15 -32 32 -15 -30 -64 32 -15 -15 -32 128 -61 15 32 64 -30 15 32 32 -15 15 32 64 -30 -15 -32 32 -15 -15 -32 64 -30 -15 -32 160 -76 -15 -32 96 -45 -15 -32 64 -30 -16 -32 96 -46 16 32 32 -15 15 32 96 -45 15 32c285,-135 384,-64 461,-100l15 31 64 -30 15 32 64 -30 15 32 32 -15 15 32 32 -15 15 32 320 -151 -15 -32c113,-151 312,-351 376,-530l-30 -64 64 -30 -15 -32 32 -15 -15 -32 32 -15 -31 -64 32 -15 -15 -32 32 -15 -15 -32 32 -15 -15 -32 32 -15 -196 -416 -32 15 -31 -64 -31 15 -31 -64 -32 15 -45 -96 -32 15 -91 -192 -32 15 -30 -64 -32 15 -15 -32 -32 16 -15 -32 -32 15 -45 -96 -32 15 -15 -32 -32 15 -15 -32 -32 15 -16 -32 -32 15 -15 -32 -128 61 -15 -32 -32 15 -15 -32 -32 15 -15 -32 -32 15 -15 -32 -96 45 -15 -32 -160 76 -15 -32 -64 30 15 32 -64 30 15 32 -128 61 15 32 -96 45 -15 -32 -192 90 -15 -32 -96 46 -15 -32 -32 15 -15 -32 -64 30 -15 -32 -256 121 15 32 -96 45 15 32 -32 15 15 32 -64 31 15 32 -703 332 15 32 -32 15 15 32 -32 15 15 32 -32 15 15 32 -32 15 15 32 -64 30 15 32 -32 15 31 64 -384 182 15 32 -64 30 15 32 -64 30 30 64 -96 45 15 32 -64 31 15 31 -32 16 16 32 -32 15 15 32 -96 45 15 32 -64 30 15 32 -32 15 15 32 -32 15 15 32 -32 15 15 32 -96 46 15 32 -32 15 16 32 -32 15 15 32 -64 30 15 32 -64 30 15 32 -32 15 15 32 -32 16 30 63c-117,56 -909,1554 -709,1978l-32 15 15 32 -64 31 30 64 -32 15 15 32 -96 45 16 32 -32 15 30 64 -32 15 15 32 -64 30 15 32 -32 15 30 64 -32 16 15 32 -32 15 15 32 -32 15 16 32 -32 15 30 64 -32 15 45 96 -32 15 15 32 -32 15 15 32 -32 15 30 64 -32 15 46 96 -64 30 30 64 -32 16 45 96 -32 15 91 192c-523,246 118,1906 312,2317l32 -15 30 64 32 -15 15 32 32 -15 90 192 32 -16 91 192 32 -15 15 32 32 -15 15 32 32 -15 30 64 32 -15 46 96 64 -30 15 32 32 -15 15 32 32 -16 30 64 32 -15 15 32 96 -45 15 32 32 -15 15 32 32 -15 15 32 32 -15 16 32 32 -15 15 32 32 -16 30 64 32 -15 15 32 32 -15 15 32 32 -15 60 128 32 -15 31 64 32 -15 15 32 64 -30 15 32 128 -61 15 32 32 -15 30 64 96 -45 15 32 128 -61 15 32 32 -15 30 64 64 -30 15 32 64 -30c82,173 596,-148 544,-257l160 -75c166,350 1008,-320 1244,-431l-15 -32 32 -15 -30 -64 32 -15 -15 -32 64 -31 -15 -32 32 -15 -46 -96 32 -15 -60 -128 64 -30 15 32 32 -15 15 32 32 -15 15 32 64 -30 15 32 160 -76 -15 -32 96 -45 -15 -32 32 -15 -15 -32 32 -15 -15 -32 32 -16 -15 -31 32 -16 -15 -32 32 -15 -16 -32 32 -15 -15 -32 32 -15 -15 -32 128 -60 -15 -32 96 -46 -15 -32 32 -15 -15 -32 96 -45 -15 -32 32 -15 -15 -32 64 -30 -16 -32 96 -46 -15 -32 224 -105 -15 -32 96 -46 -15 -32 32 -15 -15 -32 32 -15 -30 -64 32 -15 -15 -32 64 -30 -31 -64 32 -15 -15 -32 64 -30 -15 -32 64 -30 -30 -64 32 -16 -15 -32 64 -30 -15 -32 32 -15 -15 -32 32 -15 -31 -64 64 -30 -15 -32 32 -15 -45 -96 305 -183 -15 -32 32 -15 -15 -32 31 -15 -15 -32 32 -15 -15 -32 64 -31 -15 -32 32 -15 -15 -32 32 -15 -15 -32 32 -15 -15 -32 64 -30 -15 -32 64 -30 -15 -32 33 -94c136,-64 412,-704 351,-831l64 -30 15 32 96 -46 16 32 96 -45 15 32 32 -15 -15 -32 32 -15 -16 -32 32 -15 -15 -32 32 -15 -15 -32 32 -16 -15 -32 32 -15 -15 -32 32 -15 -15 -32 32 -15 -15 -32 32 -15 -15 -32 32 -15 -15 -32 32 -15 -16 -32 32 -15 -15 -32c100,-47 241,-740 526,-874l-15 -32 32 -16 -60 -128 64 -30z"/>
   <path class="fil3" d="M9631 8880l-128 60 15 32 -32 15 15 32c-221,104 -452,782 -385,925l-64 30 30 64 -32 15 30 64 -32 15 91 192 32 -15 76 160 -32 15 30 64 -32 15 15 32 -32 15 15 32 -32 16 30 64 -32 15 91 192 -32 15 15 32 -32 15 15 32 -32 15 30 64 -32 15 197 416 32 -15 60 128 32 -15 30 64 32 -16 15 32 32 -15 61 128 32 -15 30 64 32 -15 30 64 64 -30 45 96 32 -15 31 64 32 -15 15 32 32 -16 15 32 32 -15 30 64 32 -15 30 64 32 -15 15 32 64 -30 15 32 32 -15 15 32 32 -15 95 33 15 32 64 -30 15 32c1,-1 688,-12 1272,-288l-15 -32 192 -90 -15 -32 32 -15 -15 -32 32 -15 -15 -32 64 -31 -15 -32 96 -45 -16 -32 32 -15 -15 -32 32 -15 -15 -32 32 -15 -15 -32 64 -30 -15 -32 32 -15 -30 -64 32 -15 -15 -32 64 -31 -15 -32 31 -15 -30 -64 32 -15 -30 -64 32 -15 -15 -32 32 -15 -15 -32 32 -15 -30 -64 32 -15 -46 -96 32 -15 -15 -32 32 -15 -15 -32 32 -15 -45 -96 32 -15 -91 -192 32 -16 -30 -64 32 -15 -15 -32 32 -15 -348 -735 -31 15 -31 -64 -32 15c-253,-536 -1368,-997 -1882,-755l-15 -32 -448 212 16 32z"/>
  </g>
 </g>
</svg>
