<?xml version="1.0" encoding="UTF-8"?>
<!DOCTYPE svg PUBLIC "-//W3C//DTD SVG 1.1//EN" "http://www.w3.org/Graphics/SVG/1.1/DTD/svg11.dtd">
<!-- Creator: CorelDRAW X7 -->
<svg xmlns="http://www.w3.org/2000/svg" xml:space="preserve" width="112.526mm" height="48.4366mm" version="1.1" style="shape-rendering:geometricPrecision; text-rendering:geometricPrecision; image-rendering:optimizeQuality; fill-rule:evenodd; clip-rule:evenodd"
viewBox="0 0 434529 187042"
 xmlns:xlink="http://www.w3.org/1999/xlink">
 <defs>
  <style type="text/css">
   <![CDATA[
    .fil1 {fill:#020202}
    .fil2 {fill:#FCFCFC}
    .fil0 {fill:white}
   ]]>
  </style>
 </defs>
 <g id="Capa_x0020_1">
  <metadata id="CorelCorpID_0Corel-Layer"/>
  <g id="_1164141256">
   <path class="fil0" d="M50076 66573c-2000,3898 -3754,9725 -5344,13910 -1862,4898 -3509,9200 -5313,14037 -2953,7913 -31005,80792 -31909,84666 2272,-460 70459,-29564 75240,-31663 41060,-18024 84658,-35463 126018,-53413 33278,-14441 66904,-28047 100352,-42512 16713,-7228 33273,-13810 50399,-21274l37619 -16007c2236,-947 3998,-1669 6228,-2577 1612,-656 4793,-2316 6262,-2627 -3123,-92 -85957,13584 -89693,14138 -30164,4479 -59826,9734 -89863,14361 -30034,4626 -59807,9422 -89827,14372 -7747,1277 -85268,13280 -90169,14589z"/>
   <path class="fil1" d="M154755 151816c3146,-2810 9158,-6155 13205,-8803l85608 -55053c2206,-1387 4202,-2866 6371,-4183 6235,-3784 21749,-14559 26823,-16696 10323,-4347 20201,-8351 30262,-12830 3621,-1612 57840,-24871 61035,-25587l-125671 69549c-4877,2726 -9177,5104 -13887,7631 -9317,4998 -18623,10120 -27769,15315l-55977 30657zm-104679 -85243c4901,-1309 82422,-13312 90169,-14589 30020,-4950 59793,-9746 89827,-14372 30037,-4627 59699,-9882 89863,-14361 3736,-554 86570,-14230 89693,-14138 -1469,311 -4650,1971 -6262,2627 -2230,908 -3992,1630 -6228,2577l-37619 16007c-17126,7464 -33686,14046 -50399,21274 -33448,14465 -67074,28071 -100352,42512 -41360,17950 -84958,35389 -126018,53413 -4781,2099 -72968,31203 -75240,31663 904,-3874 28956,-76753 31909,-84666 1804,-4837 3451,-9139 5313,-14037 1590,-4185 3344,-10012 5344,-13910zm337388 -60509l-329465 43860 15834 -43724 313631 -136zm-383996 180974l85658 -36341c3240,3652 21770,29461 23824,29851 2474,-156 8307,-3809 10545,-5017 3229,-1742 6950,-3760 10207,-5618l183312 -101187c13694,-7511 27334,-15211 40788,-22511l71380 -39414c1731,-962 4387,-1542 5023,-2990 1171,-2665 -1035,-4203 -3369,-3725 -8013,754 -18875,231 -27258,231l-332071 600c-2014,442 -1984,1563 -2763,3771l-14464 39616c-4019,11659 -3969,8339 -227,12505 920,1024 1332,1701 1766,3079 -2516,1018 -7796,489 -9668,2227 -986,915 -32987,86264 -35322,92638 -2136,5831 -4311,11410 -6405,16903 -3133,8217 -7655,15594 -956,15382z"/>
   <polygon class="fil0" points="73833,6200 57999,49924 387464,6064 "/>
   <path class="fil2" d="M154755 151816l55977 -30657c9146,-5195 18452,-10317 27769,-15315 4710,-2527 9010,-4905 13887,-7631l125671 -69549c-3195,716 -57414,23975 -61035,25587 -10061,4479 -19939,8483 -30262,12830 -5074,2137 -20588,12912 -26823,16696 -2169,1317 -4165,2796 -6371,4183l-85608 55053c-4047,2648 -10059,5993 -13205,8803z"/>
  </g>
 </g>
</svg>
