<?xml version="1.0" encoding="UTF-8"?>
<!DOCTYPE svg PUBLIC "-//W3C//DTD SVG 1.1//EN" "http://www.w3.org/Graphics/SVG/1.1/DTD/svg11.dtd">
<!-- Creator: CorelDRAW X7 -->
<svg xmlns="http://www.w3.org/2000/svg" xml:space="preserve" width="17.6302mm" height="13.0913mm" version="1.1" style="shape-rendering:geometricPrecision; text-rendering:geometricPrecision; image-rendering:optimizeQuality; fill-rule:evenodd; clip-rule:evenodd"
viewBox="0 0 1472 1093"
 xmlns:xlink="http://www.w3.org/1999/xlink">
 <defs>
  <style type="text/css">
   <![CDATA[
    .fil0 {fill:#3A3435}
   ]]>
  </style>
 </defs>
 <g id="Capa_x0020_1">
  <metadata id="CorelCorpID_0Corel-Layer"/>
  <path class="fil0" d="M409 240c0,43 27,64 70,64 30,0 256,-154 277,-154 14,0 135,96 155,101 -11,16 -292,181 -327,201 -60,35 -35,32 -82,132 -79,166 18,106 -313,217 -27,9 -54,18 -80,26 -23,8 -59,17 -78,28 -54,31 -33,117 31,117 23,0 295,-98 359,-116 23,-7 36,-13 60,-21l62 -18 94 -231c7,-16 6,-22 18,-31l45 164c6,20 13,38 14,61l-235 171c-37,27 -65,36 -65,85 0,12 26,97 115,35 77,-55 213,-165 285,-212 62,-41 23,-111 2,-187l-33 -127c40,-22 75,-42 115,-67l115 -67 11 251 390 0c49,0 58,-38 58,-74 0,-59 -73,-54 -133,-54 -64,0 -128,0 -193,0l-10 -278 -46 -29c-21,-14 -317,-227 -328,-227 -8,0 -79,44 -93,52l-140 84c-18,11 -30,16 -47,27 -30,20 -73,32 -73,77zm796 6c0,49 2,69 41,108 87,84 216,5 216,-92 0,-106 -139,-164 -218,-90 -14,13 -39,50 -39,74z"/>
 </g>
</svg>
