<?xml version="1.0" encoding="UTF-8"?>
<!DOCTYPE svg PUBLIC "-//W3C//DTD SVG 1.1//EN" "http://www.w3.org/Graphics/SVG/1.1/DTD/svg11.dtd">
<!-- Creator: CorelDRAW X7 -->
<svg xmlns="http://www.w3.org/2000/svg" xml:space="preserve" width="18.8729mm" height="16.0134mm" version="1.1" style="shape-rendering:geometricPrecision; text-rendering:geometricPrecision; image-rendering:optimizeQuality; fill-rule:evenodd; clip-rule:evenodd"
viewBox="0 0 1522 1291"
 xmlns:xlink="http://www.w3.org/1999/xlink">
 <defs>
  <style type="text/css">
   <![CDATA[
    .fil0 {fill:#3A3435}
   ]]>
  </style>
 </defs>
 <g id="Capa_x0020_1">
  <metadata id="CorelCorpID_0Corel-Layer"/>
  <path class="fil0" d="M433 249l640 0 -236 290c-24,28 -59,28 -97,22 -27,-5 -15,1 -28,-13 -5,-5 -11,-14 -19,-22l-152 -158c-1,-1 -2,-2 -3,-3l-16 -19c-29,-34 -68,-58 -89,-97zm-433 -196l0 345c0,70 91,57 150,57 88,0 67,-98 67,-206l87 0c-7,33 1,44 22,65l238 253c14,14 91,91 91,105l-5 227c-43,-30 -225,-150 -242,-150 -69,0 -68,58 -68,98 1,61 -5,103 -5,160 0,27 0,55 0,82 1,50 -21,150 12,185 27,28 91,27 104,-38l8 -317 126 81c74,44 48,52 158,43 62,-5 169,11 199,-12 36,-28 79,-80 111,-101l60 290c21,82 120,67 120,-2 0,-43 -15,-87 -24,-126l-26 -122c-6,-27 -34,-170 -43,-185 -48,-86 -143,33 -149,37 -32,26 -59,64 -93,82 0,-38 2,-87 -1,-124 -4,-54 -20,-104 4,-130 9,-10 7,-8 14,-17 11,-14 18,-21 28,-34l224 -272c10,-11 19,-21 29,-33 12,-16 12,-24 16,-45l88 0c0,209 -16,206 150,206 45,0 72,-27 72,-72l0 -305c0,-93 -68,-77 -155,-77 -43,0 -67,34 -67,62l0 150 -98 0c-23,0 -7,-21 -57,-21 -31,0 -27,21 -46,21l-671 0c-29,0 -46,-6 -67,-6 -21,0 -37,6 -67,6l-77 0c0,-227 17,-212 -155,-212 -33,0 -62,19 -62,52zm758 484c162,0 164,-197 53,-233 -49,-15 -104,-4 -134,29 -79,87 -9,204 81,204z"/>
 </g>
</svg>
