<?xml version="1.0" encoding="UTF-8"?>
<!DOCTYPE svg PUBLIC "-//W3C//DTD SVG 1.1//EN" "http://www.w3.org/Graphics/SVG/1.1/DTD/svg11.dtd">
<!-- Creator: CorelDRAW X7 -->
<svg xmlns="http://www.w3.org/2000/svg" xml:space="preserve" width="16.7839mm" height="17.5316mm" version="1.1" style="shape-rendering:geometricPrecision; text-rendering:geometricPrecision; image-rendering:optimizeQuality; fill-rule:evenodd; clip-rule:evenodd"
viewBox="0 0 980 1024"
 xmlns:xlink="http://www.w3.org/1999/xlink">
 <defs>
  <style type="text/css">
   <![CDATA[
    .fil0 {fill:#3A3435}
   ]]>
  </style>
 </defs>
 <g id="Capa_x0020_1">
  <metadata id="CorelCorpID_0Corel-Layer"/>
  <path class="fil0" d="M12 239c0,11 100,169 118,196 47,70 38,76 172,-3 19,-11 95,-60 117,-62 -9,37 -4,11 -4,52l-1 194c-2,8 -19,28 -26,37l-112 145 -245 140c-55,29 -26,86 7,86 36,0 105,-51 141,-69 23,-11 42,-24 64,-37 22,-13 77,-38 93,-56 8,-8 17,-20 23,-29l131 -172 161 135c-18,5 -64,60 -82,76 -39,34 -99,73 -68,118 35,51 86,-18 97,-26l112 -105c38,-39 80,-68 19,-115l-143 -115c-17,-14 -9,-47 -6,-98l7 -142c13,1 33,10 45,15 7,3 12,6 20,9 36,15 267,110 279,110 60,0 63,-63 20,-83 -16,-8 -31,-14 -48,-20l-287 -116c-40,-17 -63,-13 -118,-16 -17,-1 -14,-3 -30,-4 -11,0 -23,1 -34,0 -56,-5 -30,-10 -100,28 -24,13 -115,69 -132,73l-95 -151c-4,-6 -3,-5 -7,-11 -17,-26 -14,-28 -51,-28 -22,0 -37,23 -37,44zm11 -156c0,35 2,59 36,87 74,59 188,-20 150,-112 -42,-98 -186,-60 -186,25zm419 82c0,41 32,86 85,86 134,0 108,-172 15,-172 -37,0 -74,6 -93,52 -2,5 -7,27 -7,34z"/>
 </g>
</svg>
