<?xml version="1.0" encoding="UTF-8"?>
<!DOCTYPE svg PUBLIC "-//W3C//DTD SVG 1.1//EN" "http://www.w3.org/Graphics/SVG/1.1/DTD/svg11.dtd">
<!-- Creator: CorelDRAW X7 -->
<svg xmlns="http://www.w3.org/2000/svg" xml:space="preserve" width="18.1807mm" height="17.3439mm" version="1.1" style="shape-rendering:geometricPrecision; text-rendering:geometricPrecision; image-rendering:optimizeQuality; fill-rule:evenodd; clip-rule:evenodd"
viewBox="0 0 990 944"
 xmlns:xlink="http://www.w3.org/1999/xlink">
 <defs>
  <style type="text/css">
   <![CDATA[
    .fil0 {fill:#3A3435}
   ]]>
  </style>
 </defs>
 <g id="Capa_x0020_1">
  <metadata id="CorelCorpID_0Corel-Layer"/>
  <path class="fil0" d="M739 279c-22,-33 -45,-20 -82,-9l-141 37 -130 -79c-47,-30 -44,-22 -124,-22 -43,0 -53,15 -78,33l-129 95c-79,59 -62,50 -18,136 7,15 12,24 20,38 27,44 79,28 79,-16 0,-12 -13,-34 -18,-44l-23 -43c37,-20 67,-54 104,-74l0 175c0,28 -45,72 -70,103 -24,29 -45,48 -45,74l0 216c0,50 59,61 78,22 11,-24 6,-158 6,-189 0,-53 -5,-35 39,-90l58 -74 225 127c22,12 19,27 27,60 5,21 37,163 45,174 25,30 73,8 73,-20 0,-24 -23,-109 -30,-137 -6,-26 -18,-112 -40,-127 -16,-12 -36,-21 -53,-31 -18,-11 -34,-19 -53,-30 -19,-12 -35,-19 -54,-30 -17,-11 -35,-22 -53,-31l0 -219 112 69c50,30 35,26 106,5 12,-3 22,-5 33,-8l66 -18c82,-23 59,-19 76,-49 5,-9 6,-8 27,-15l218 -75 0 -14c-18,-4 -43,9 -61,16l-125 42c-22,8 -42,17 -65,22zm-547 -205c0,18 -1,31 9,47 3,5 13,18 16,22 14,12 36,20 58,20 84,-4 103,-97 56,-141 -53,-50 -139,-8 -139,52z"/>
 </g>
</svg>
