<?xml version="1.0" encoding="UTF-8"?>
<!DOCTYPE svg PUBLIC "-//W3C//DTD SVG 1.1//EN" "http://www.w3.org/Graphics/SVG/1.1/DTD/svg11.dtd">
<!-- Creator: CorelDRAW X7 -->
<svg xmlns="http://www.w3.org/2000/svg" xml:space="preserve" width="17.2711mm" height="17.6598mm" version="1.1" style="shape-rendering:geometricPrecision; text-rendering:geometricPrecision; image-rendering:optimizeQuality; fill-rule:evenodd; clip-rule:evenodd"
viewBox="0 0 801 819"
 xmlns:xlink="http://www.w3.org/1999/xlink">
 <defs>
  <style type="text/css">
   <![CDATA[
    .fil0 {fill:#3A3435}
   ]]>
  </style>
 </defs>
 <g id="Capa_x0020_1">
  <metadata id="CorelCorpID_0Corel-Layer"/>
  <path class="fil0" d="M0 325c0,25 15,36 39,36 8,0 50,-21 60,-26 20,-10 41,-18 61,-28l122 -56c10,19 21,35 31,54 58,107 53,53 11,178 -7,23 -14,43 -22,64 -12,33 -23,204 -23,244 0,22 25,32 44,26 35,-11 25,-75 30,-124 4,-35 9,-107 20,-135 9,-25 57,-160 57,-174 8,6 34,54 42,66l42 70c35,53 27,31 109,40l137 11c51,4 55,-67 8,-71 -23,-2 -41,-2 -65,-3 -43,-2 -76,-9 -127,-9l-64 -108c-6,-7 -7,-10 -12,-18l-99 -164 83 20c55,14 38,-1 61,46l33 73c19,37 18,59 54,59 15,0 41,-19 27,-51l-50 -110c-28,-66 -23,-67 -96,-82 -20,-4 -37,-8 -57,-14 -66,-16 -58,-20 -115,8 -8,4 -15,7 -25,11l-279 130c-17,8 -37,13 -37,37zm365 409c0,77 91,89 122,51 25,-30 28,-66 0,-96 -43,-47 -122,-11 -122,45zm-163 -676l0 18c0,31 31,62 62,62l15 0c74,0 91,-128 -2,-138 -42,-4 -75,34 -75,58z"/>
 </g>
</svg>
