<?xml version="1.0" encoding="UTF-8"?>
<!DOCTYPE svg PUBLIC "-//W3C//DTD SVG 1.1//EN" "http://www.w3.org/Graphics/SVG/1.1/DTD/svg11.dtd">
<!-- Creator: CorelDRAW X7 -->
<svg xmlns="http://www.w3.org/2000/svg" xml:space="preserve" width="15.1352mm" height="17.6275mm" version="1.1" style="shape-rendering:geometricPrecision; text-rendering:geometricPrecision; image-rendering:optimizeQuality; fill-rule:evenodd; clip-rule:evenodd"
viewBox="0 0 531 619"
 xmlns:xlink="http://www.w3.org/1999/xlink">
 <defs>
  <style type="text/css">
   <![CDATA[
    .fil0 {fill:#3A3435}
   ]]>
  </style>
 </defs>
 <g id="Capa_x0020_1">
  <metadata id="CorelCorpID_0Corel-Layer"/>
  <path class="fil0" d="M90 212c-8,-2 -18,-9 -25,-13 0,-19 1,-29 -7,-40 -15,-20 -58,-19 -58,6 0,29 20,41 45,41 18,0 9,-6 26,5 19,11 12,-1 18,21 5,22 26,23 46,15l55 -20c11,-3 47,-18 57,-19l2 85c0,13 2,16 3,29 0,14 2,17 -5,25 -5,5 -11,10 -16,15 -10,10 -20,21 -31,31 -36,32 -27,24 -48,70 -12,25 -37,70 -37,91 0,19 34,38 50,3 6,-10 10,-19 15,-30 5,-11 10,-19 15,-30 26,-57 7,-32 54,-79 45,-45 36,-42 70,-42 5,0 91,65 96,73l52 145c6,15 14,23 22,25l12 0c11,-3 20,-15 20,-27 0,-10 -29,-83 -35,-100 -6,-16 -22,-69 -29,-78 -5,-5 -10,-9 -15,-13l-94 -70 -7 -132c18,0 21,8 32,16l86 66c27,18 26,26 51,26 12,0 19,-10 21,-22 2,-12 -5,-20 -13,-27l-99 -76c-12,-9 -39,-34 -53,-35 -25,-2 -61,1 -85,-3 -32,-4 -43,8 -68,16l-111 42c-6,5 -7,7 -12,10zm112 -155c0,34 26,63 63,63 79,0 81,-118 0,-120 -39,-1 -63,34 -63,57zm-43 227c0,16 23,16 23,0 0,-12 -23,-12 -23,0z"/>
 </g>
</svg>
