<?xml version="1.0" encoding="UTF-8"?>
<!DOCTYPE svg PUBLIC "-//W3C//DTD SVG 1.1//EN" "http://www.w3.org/Graphics/SVG/1.1/DTD/svg11.dtd">
<!-- Creator: CorelDRAW X7 -->
<svg xmlns="http://www.w3.org/2000/svg" xml:space="preserve" width="13.8827mm" height="17.4154mm" version="1.1" style="shape-rendering:geometricPrecision; text-rendering:geometricPrecision; image-rendering:optimizeQuality; fill-rule:evenodd; clip-rule:evenodd"
viewBox="0 0 914 1147"
 xmlns:xlink="http://www.w3.org/1999/xlink">
 <defs>
  <style type="text/css">
   <![CDATA[
    .fil0 {fill:#3A3435}
   ]]>
  </style>
 </defs>
 <g id="Capa_x0020_1">
  <metadata id="CorelCorpID_0Corel-Layer"/>
  <path class="fil0" d="M189 410l17 -10 0 26 -17 -16zm544 -161l0 42 -518 0c-25,0 -63,26 -89,41 -31,19 -110,51 -51,108l105 97c12,9 27,20 30,37l1 127 -72 129c-22,43 -139,242 -139,265 0,52 55,67 85,35 9,-9 10,-15 16,-26l215 -392c13,9 32,37 41,52l236 337c38,57 102,57 102,-18 0,-19 -30,-52 -46,-76l-103 -146c-18,-26 -33,-49 -52,-74 -18,-24 -32,-47 -50,-72 -10,-12 -19,-25 -27,-37 -18,-28 -17,-19 -17,-46 0,-40 0,-81 0,-122 0,-46 -4,-81 -4,-122l324 0c11,0 59,-22 59,-38l0 -76c59,0 135,12 135,-21 0,-15 -11,-25 -21,-25l-139 0c-10,0 -21,11 -21,21zm-531 -135c0,59 48,114 97,114l38 0c46,0 97,-56 97,-101 0,-42 -4,-61 -37,-94 -73,-74 -195,-13 -195,81z"/>
 </g>
</svg>
