<?xml version="1.0" encoding="UTF-8"?>
<!DOCTYPE svg PUBLIC "-//W3C//DTD SVG 1.1//EN" "http://www.w3.org/Graphics/SVG/1.1/DTD/svg11.dtd">
<!-- Creator: CorelDRAW X7 -->
<svg xmlns="http://www.w3.org/2000/svg" xml:space="preserve" width="11.6494mm" height="16.8014mm" version="1.1" style="shape-rendering:geometricPrecision; text-rendering:geometricPrecision; image-rendering:optimizeQuality; fill-rule:evenodd; clip-rule:evenodd"
viewBox="0 0 549 792"
 xmlns:xlink="http://www.w3.org/1999/xlink">
 <defs>
  <style type="text/css">
   <![CDATA[
    .fil0 {fill:#3A3435}
   ]]>
  </style>
 </defs>
 <g id="Capa_x0020_1">
  <metadata id="CorelCorpID_0Corel-Layer"/>
  <path class="fil0" d="M21 271c0,28 -9,91 33,91 51,0 29,-54 49,-54l42 0 0 156c0,11 -43,90 -52,108l-58 106c-7,12 -11,23 -18,36 -11,23 -17,20 -17,46 0,28 46,53 69,6 10,-18 129,-249 139,-256 3,10 45,69 56,86 4,7 8,11 12,18l71 106c11,17 35,61 57,61 26,0 42,-22 37,-43 -2,-13 -32,-52 -41,-67 -4,-6 -5,-7 -9,-13l-88 -131c-60,-91 -38,-47 -37,-132 0,-32 2,-52 2,-84l67 -3c23,0 48,2 71,-2 51,-7 107,16 107,-41 0,-34 -46,-33 -67,-33 -20,0 -28,3 -45,3 -85,3 -206,0 -295,0 0,-63 -61,-52 -70,-15 -2,9 -2,20 -5,28 -4,8 -10,11 -10,23zm118 -132c0,75 81,98 123,59 56,-52 8,-129 -45,-129 -45,0 -78,35 -78,70zm386 135c0,88 2,106 -28,193 -25,75 -73,121 -39,121 19,0 66,-123 73,-148 20,-70 24,-160 10,-233l-58 -207 -18 0c-4,15 -2,17 4,32 26,65 56,178 56,242z"/>
 </g>
</svg>
