<?xml version="1.0" encoding="UTF-8"?>
<!DOCTYPE svg PUBLIC "-//W3C//DTD SVG 1.1//EN" "http://www.w3.org/Graphics/SVG/1.1/DTD/svg11.dtd">
<!-- Creator: CorelDRAW X7 -->
<svg xmlns="http://www.w3.org/2000/svg" xml:space="preserve" width="15.7953mm" height="17.2212mm" version="1.1" style="shape-rendering:geometricPrecision; text-rendering:geometricPrecision; image-rendering:optimizeQuality; fill-rule:evenodd; clip-rule:evenodd"
viewBox="0 0 852 929"
 xmlns:xlink="http://www.w3.org/1999/xlink">
 <defs>
  <style type="text/css">
   <![CDATA[
    .fil0 {fill:#3A3435}
   ]]>
  </style>
 </defs>
 <g id="Capa_x0020_1">
  <metadata id="CorelCorpID_0Corel-Layer"/>
  <path class="fil0" d="M131 397c0,31 17,41 45,41 26,0 50,-50 67,-78l57 -91c25,0 47,2 72,4 18,1 56,3 73,6l-86 128c-6,8 -7,10 -13,19 -6,7 -7,12 -12,19 -45,71 -39,39 -73,143 -11,32 -20,63 -31,94 -7,17 -5,11 -36,26 -27,14 -177,80 -186,93 -16,23 -11,65 36,65 13,0 97,-43 114,-52l115 -54c29,-16 37,-66 54,-112 4,-11 5,-20 9,-32 5,-13 8,-19 11,-30 8,-29 15,-37 29,-58l68 63c11,10 26,19 28,37 3,21 -1,44 2,67l5 195c6,45 55,47 73,24 5,-6 10,-16 10,-28l-3 -69c0,-51 -4,-90 -4,-141 0,-28 -3,-42 -3,-69 0,-32 -13,-37 -32,-55 0,0 -1,-1 -2,-1l-57 -54c-6,-5 -5,-4 -9,-11 3,-14 12,-23 20,-35 7,-12 13,-22 21,-34 10,-14 33,-58 45,-65 70,132 56,146 162,93l71 -36c26,-13 81,-26 81,-64 0,-20 -17,-38 -45,-38 -21,0 -144,71 -166,72l-70 -136c-10,-16 -15,-32 -35,-38l-264 -19c-24,0 -59,69 -77,99 -12,19 -64,94 -64,112zm507 -214c61,0 96,-40 96,-100 0,-37 -41,-83 -79,-83 -30,0 -64,-1 -87,30 -13,18 -22,40 -21,65 2,49 41,88 91,88z"/>
 </g>
</svg>
