<?xml version="1.0" encoding="UTF-8"?>
<!DOCTYPE svg PUBLIC "-//W3C//DTD SVG 1.1//EN" "http://www.w3.org/Graphics/SVG/1.1/DTD/svg11.dtd">
<!-- Creator: CorelDRAW X7 -->
<svg xmlns="http://www.w3.org/2000/svg" xml:space="preserve" width="20.0885mm" height="11.2372mm" version="1.1" style="shape-rendering:geometricPrecision; text-rendering:geometricPrecision; image-rendering:optimizeQuality; fill-rule:evenodd; clip-rule:evenodd"
viewBox="0 0 1194 668"
 xmlns:xlink="http://www.w3.org/1999/xlink">
 <defs>
  <style type="text/css">
   <![CDATA[
    .fil0 {fill:#3A3435}
   ]]>
  </style>
 </defs>
 <g id="Capa_x0020_1">
  <metadata id="CorelCorpID_0Corel-Layer"/>
  <path class="fil0" d="M704 29c0,18 9,28 16,41l57 118c27,53 51,105 79,157 -42,0 -71,4 -111,4 -25,-48 -75,-158 -98,-198 -21,-36 -58,-16 -58,8 0,22 7,24 14,39 15,29 103,205 104,219 10,110 -37,54 117,157 17,12 118,83 138,83 21,0 40,-19 26,-45 -8,-15 -168,-113 -196,-131 -30,-19 -23,-12 -24,-30 30,0 147,-3 162,-12 14,-9 163,-165 197,-196 11,-10 67,-54 67,-65 0,-20 -10,-35 -27,-37 -24,-2 -71,51 -90,67 -33,28 -53,50 -83,81 -17,17 -49,52 -66,63l-114 -228c-10,-24 -53,-114 -69,-122 -17,-8 -41,9 -41,27zm-704 593c0,33 25,31 38,31 8,0 47,-35 56,-43 19,-15 36,-29 55,-44 55,-44 56,-35 56,-141 51,0 21,-28 82,33 12,12 7,6 6,27 -3,55 -8,102 -8,156 0,15 14,27 31,27 43,0 32,-70 34,-114 3,-109 28,-91 -33,-153 -11,-11 -21,-15 -28,-26 8,-11 18,-17 30,-27 7,-7 9,-8 16,-14 10,-9 5,-8 19,-12l18 46c22,54 38,35 111,0 20,-10 68,-23 68,-50 0,-66 -98,-5 -129,12 -17,-37 -44,-133 -68,-133 -36,0 -39,21 -63,40l-125 114c-36,36 -13,50 -23,121 -5,29 -5,25 -44,55 -10,8 -14,13 -25,21 -10,8 -18,14 -27,22 -10,8 -18,15 -28,22 -10,8 -19,12 -19,30zm396 -437c0,87 132,85 132,0 0,-84 -132,-86 -132,0zm144 251c0,78 90,76 115,46 43,-51 -4,-111 -47,-111 -35,0 -68,29 -68,65z"/>
 </g>
</svg>
