<?xml version="1.0" encoding="UTF-8"?>
<!DOCTYPE svg PUBLIC "-//W3C//DTD SVG 1.1//EN" "http://www.w3.org/Graphics/SVG/1.1/DTD/svg11.dtd">
<!-- Creator: CorelDRAW X7 -->
<svg xmlns="http://www.w3.org/2000/svg" xml:space="preserve" width="16.9536mm" height="16.7055mm" version="1.1" style="shape-rendering:geometricPrecision; text-rendering:geometricPrecision; image-rendering:optimizeQuality; fill-rule:evenodd; clip-rule:evenodd"
viewBox="0 0 727 716"
 xmlns:xlink="http://www.w3.org/1999/xlink">
 <defs>
  <style type="text/css">
   <![CDATA[
    .fil0 {fill:#3A3435}
   ]]>
  </style>
 </defs>
 <g id="Capa_x0020_1">
  <metadata id="CorelCorpID_0Corel-Layer"/>
  <path class="fil0" d="M118 318c0,33 15,45 36,63 -53,5 -32,69 -36,108 -2,20 -19,2 -71,2l41 77c-21,5 -50,13 -69,22 -11,5 -15,3 -16,16 16,0 19,-3 30,-8 10,-5 19,-6 31,-10 138,-41 256,36 319,23 77,-15 105,-19 185,-19 37,0 85,13 115,25l36 14c10,0 1,1 8,-3 -4,-14 -15,-14 -35,-22 -101,-41 -192,-28 -294,-11 -18,3 -32,3 -52,3 14,-21 39,-40 57,-58 7,-6 5,2 6,-11 -51,0 -120,-16 -170,-16l2 -47c31,0 162,4 181,-5 23,-11 28,-58 -19,-61 -20,-1 -46,-4 -66,-5 -44,-1 -86,-8 -134,-8 1,-1 1,-2 2,-1l5 -3c5,-2 6,-2 10,-4 52,-27 45,-124 -36,-124 -39,0 -66,35 -66,63zm304 -296c0,13 6,19 12,30 21,35 55,101 62,141 28,154 -19,242 -19,295 0,42 78,3 90,-4 19,-9 39,-19 55,-32 76,-65 82,-133 29,-222l-28 -44c-5,-7 -10,-12 -16,-20 -29,-35 -48,-61 -82,-95 -7,-7 -12,-12 -18,-18 -16,-18 -38,-53 -63,-53 -13,0 -22,9 -22,22zm-419 622c11,10 64,-30 145,-30 81,0 162,39 222,39l71 -12c46,-9 80,-8 127,-8 36,0 57,7 85,14 6,2 14,3 19,5 8,3 10,5 18,8 18,7 28,14 37,9 -1,-12 -1,-9 -11,-13l-61 -22c-62,-21 -147,-16 -211,-7 -67,10 -63,20 -133,3 -111,-28 -188,-47 -297,1 -8,4 -10,3 -11,13zm-3 36l0 11c12,0 39,-11 59,-18 67,-23 140,-12 207,5 79,20 91,24 170,8 81,-16 189,-13 263,22 21,11 16,9 25,5 -3,-13 -14,-14 -33,-22 -77,-31 -162,-33 -246,-21 -54,8 -71,21 -128,6 -16,-4 -29,-6 -45,-10 -93,-23 -159,-33 -252,6 -7,3 -12,6 -20,8z"/>
 </g>
</svg>
