<?xml version="1.0" encoding="UTF-8"?>
<!DOCTYPE svg PUBLIC "-//W3C//DTD SVG 1.1//EN" "http://www.w3.org/Graphics/SVG/1.1/DTD/svg11.dtd">
<!-- Creator: CorelDRAW X7 -->
<svg xmlns="http://www.w3.org/2000/svg" xml:space="preserve" width="17.3373mm" height="15.3999mm" version="1.1" style="shape-rendering:geometricPrecision; text-rendering:geometricPrecision; image-rendering:optimizeQuality; fill-rule:evenodd; clip-rule:evenodd"
viewBox="0 0 1159 1029"
 xmlns:xlink="http://www.w3.org/1999/xlink">
 <defs>
  <style type="text/css">
   <![CDATA[
    .fil0 {fill:#3A3435}
   ]]>
  </style>
 </defs>
 <g id="Capa_x0020_1">
  <metadata id="CorelCorpID_0Corel-Layer"/>
  <path class="fil0" d="M329 448c0,24 24,51 56,51 11,0 139,-67 161,-78l79 -41c18,-10 71,-38 85,-39 6,24 147,206 154,231 -22,0 -70,5 -87,-3l-65 -60c-36,-36 -52,-33 -103,-8 -18,10 -33,16 -52,25 -18,9 -32,14 -50,23 -13,7 -39,23 -54,23l-453 0 0 98 590 0c19,0 51,33 65,46 12,11 19,15 30,26 15,14 146,130 157,133l-4 82c0,14 70,69 81,72 22,-14 36,-34 53,-54 16,-20 43,-35 50,-61 -6,-10 -66,-60 -77,-60 -101,0 -59,29 -174,-74 -12,-10 -18,-13 -30,-25 -16,-16 -87,-72 -95,-85l513 0 0 -98c-151,0 -109,22 -184,-90l-162 -244c-37,-61 -77,-25 -106,-11 -112,53 -228,117 -341,172 -17,9 -37,26 -37,49zm218 -355c0,34 5,56 31,80 59,56 170,22 172,-72 0,-25 -13,-56 -28,-71 -64,-64 -175,-17 -175,63z"/>
 </g>
</svg>
