<?xml version="1.0" encoding="UTF-8"?>
<!DOCTYPE svg PUBLIC "-//W3C//DTD SVG 1.1//EN" "http://www.w3.org/Graphics/SVG/1.1/DTD/svg11.dtd">
<!-- Creator: CorelDRAW X7 -->
<svg xmlns="http://www.w3.org/2000/svg" xml:space="preserve" width="17.3262mm" height="9.7218mm" version="1.1" style="shape-rendering:geometricPrecision; text-rendering:geometricPrecision; image-rendering:optimizeQuality; fill-rule:evenodd; clip-rule:evenodd"
viewBox="0 0 717 402"
 xmlns:xlink="http://www.w3.org/1999/xlink">
 <defs>
  <style type="text/css">
   <![CDATA[
    .fil0 {fill:#3A3435}
   ]]>
  </style>
 </defs>
 <g id="Capa_x0020_1">
  <metadata id="CorelCorpID_0Corel-Layer"/>
  <path class="fil0" d="M374 132l-52 28c-36,21 -46,16 -46,44 0,6 10,26 39,8l21 -11c13,-7 72,-38 78,-47 8,-12 5,-40 5,-59l39 35c6,7 11,13 18,19 9,8 12,7 19,18 -14,8 -29,25 -43,36 -25,19 -23,19 -23,59 0,26 2,57 0,82 -1,28 -10,58 21,58 25,0 22,-28 22,-52 0,-26 0,-52 0,-77 -1,-44 -3,-26 43,-68 19,-19 20,-17 36,-17l7 78c3,25 -3,19 35,49 20,17 84,69 104,69 16,0 35,-30 3,-43 -23,-9 -52,-37 -74,-54 -4,-3 -21,-17 -23,-19 -5,-7 -9,-61 -10,-75 -1,-45 -4,-33 -27,-55 -13,-12 -125,-119 -134,-119 -23,0 -24,17 -43,45 -17,26 -15,26 -15,68zm-286 143c0,17 35,51 39,69l-108 0c-28,3 -24,43 5,43l143 0c13,0 24,-8 24,-22 0,-12 -7,-17 -12,-25 -7,-10 -13,-16 -15,-25l77 3c0,93 -13,82 103,82 41,0 41,-45 3,-45l-63 0 0 -35c0,-11 34,-31 27,-53 -9,-24 -44,-13 -70,-13 -29,0 -58,0 -87,0 -27,0 -66,-5 -66,21zm227 14c0,61 93,59 93,0 0,-58 -93,-60 -93,0zm-26 -247c0,16 4,25 14,34 27,28 74,10 77,-29 2,-22 -15,-47 -41,-47l-13 0c-19,0 -37,22 -37,42z"/>
 </g>
</svg>
