<?xml version="1.0" encoding="UTF-8"?>
<!DOCTYPE svg PUBLIC "-//W3C//DTD SVG 1.1//EN" "http://www.w3.org/Graphics/SVG/1.1/DTD/svg11.dtd">
<!-- Creator: CorelDRAW X7 -->
<svg xmlns="http://www.w3.org/2000/svg" xml:space="preserve" width="16.0692mm" height="17.3575mm" version="1.1" style="shape-rendering:geometricPrecision; text-rendering:geometricPrecision; image-rendering:optimizeQuality; fill-rule:evenodd; clip-rule:evenodd"
viewBox="0 0 1133 1223"
 xmlns:xlink="http://www.w3.org/1999/xlink">
 <defs>
  <style type="text/css">
   <![CDATA[
    .fil0 {fill:#3A3435}
   ]]>
  </style>
 </defs>
 <g id="Capa_x0020_1">
  <metadata id="CorelCorpID_0Corel-Layer"/>
  <path class="fil0" d="M189 501c0,33 10,59 54,59 38,0 64,-57 93,-101l79 -115 158 13c-5,16 -130,208 -154,244 -38,57 -37,104 -57,185 -6,22 -10,41 -15,63 -8,36 -6,28 -37,43l-220 105c-40,16 -90,34 -90,72 0,38 31,65 64,55l216 -100c146,-74 144,-44 169,-146 9,-35 15,-71 24,-103 4,-19 7,-30 11,-51 4,-18 11,-34 12,-51 14,3 15,11 24,21 9,10 14,16 23,26l69 71c10,10 39,42 41,53l-4 279c-3,19 -11,54 6,80 24,33 88,27 97,-26l6 -373c-7,-32 -112,-123 -136,-158l59 -100c13,-19 49,-84 63,-94 19,36 72,167 104,167 52,0 41,-9 94,-36 25,-13 44,-26 69,-40 25,-14 44,-25 70,-39 92,-48 41,-111 0,-113 -24,0 -137,66 -165,84 -13,9 -18,16 -37,17l-99 -202c-26,-43 -107,-27 -187,-38 -43,-7 -73,-5 -106,-8l-103 -8c-38,3 -65,60 -92,98l-30 46c-16,27 -73,97 -73,121zm550 -401c0,137 148,144 198,76 5,-7 6,-10 10,-17 59,-113 -87,-210 -175,-130 -14,13 -33,45 -33,71z"/>
 </g>
</svg>
