<?xml version="1.0" encoding="UTF-8"?>
<!DOCTYPE svg PUBLIC "-//W3C//DTD SVG 1.1//EN" "http://www.w3.org/Graphics/SVG/1.1/DTD/svg11.dtd">
<!-- Creator: CorelDRAW X7 -->
<svg xmlns="http://www.w3.org/2000/svg" xml:space="preserve" width="12.6194mm" height="17.5246mm" version="1.1" style="shape-rendering:geometricPrecision; text-rendering:geometricPrecision; image-rendering:optimizeQuality; fill-rule:evenodd; clip-rule:evenodd"
viewBox="0 0 544 755"
 xmlns:xlink="http://www.w3.org/1999/xlink">
 <defs>
  <style type="text/css">
   <![CDATA[
    .fil0 {fill:#3A3435}
   ]]>
  </style>
 </defs>
 <g id="Capa_x0020_1">
  <metadata id="CorelCorpID_0Corel-Layer"/>
  <path class="fil0" d="M61 298c0,23 16,31 35,47 7,5 8,8 17,11 -11,47 -47,140 -63,204l-15 46c-5,21 -35,104 -35,116 0,22 14,33 36,33 27,0 33,-34 39,-57l68 -224 218 0c17,2 142,6 159,1 26,-7 49,-65 -32,-64l-226 0c-19,0 -28,-3 -44,-3 0,-23 -5,-56 8,-74 15,-20 40,-34 44,-50 11,7 19,12 29,20 38,29 48,23 74,-8l44 -50c5,-6 11,-11 17,-17l23 -26c17,-31 -23,-72 -56,-34 -3,5 -2,3 -5,6 -3,4 -4,4 -7,8l-58 62c-10,-2 -91,-64 -105,-74 -51,-38 -53,-30 -111,46 -9,13 -18,25 -29,37 -7,10 -25,31 -25,44zm102 -226c0,64 67,88 111,67 9,-5 13,-10 19,-17 43,-44 14,-122 -59,-122 -39,0 -71,33 -71,72z"/>
 </g>
</svg>
