<?xml version="1.0" encoding="UTF-8"?>
<!DOCTYPE svg PUBLIC "-//W3C//DTD SVG 1.1//EN" "http://www.w3.org/Graphics/SVG/1.1/DTD/svg11.dtd">
<!-- Creator: CorelDRAW X7 -->
<svg xmlns="http://www.w3.org/2000/svg" xml:space="preserve" width="17.4653mm" height="16.3528mm" version="1.1" style="shape-rendering:geometricPrecision; text-rendering:geometricPrecision; image-rendering:optimizeQuality; fill-rule:evenodd; clip-rule:evenodd"
viewBox="0 0 888 831"
 xmlns:xlink="http://www.w3.org/1999/xlink">
 <defs>
  <style type="text/css">
   <![CDATA[
    .fil0 {fill:#3A3435}
   ]]>
  </style>
 </defs>
 <g id="Capa_x0020_1">
  <metadata id="CorelCorpID_0Corel-Layer"/>
  <path class="fil0" d="M104 404c0,51 37,45 69,30l176 -78c15,-6 62,-29 74,-30 0,14 5,35 7,51 3,14 6,35 9,50 3,21 10,87 16,100l-82 45c-10,6 -19,10 -29,16l-166 95c-19,11 -36,21 -56,32 -20,11 -36,20 -56,31 -9,5 -18,10 -27,16 -36,24 -9,84 37,66 23,-9 43,-25 65,-36l326 -185c12,-7 22,-12 33,-19 25,-14 18,-14 30,-22 10,42 14,89 22,131 18,90 0,70 148,87l142 13c38,3 46,-17 46,-42 0,-46 -74,-35 -116,-41 -23,-3 -49,-6 -70,-8l-71 -6 -23 -131c-15,-74 -30,-185 -43,-262 -24,-136 -21,-121 -159,-59 -17,7 -35,14 -52,22 -17,9 -35,15 -54,24 -35,18 -71,31 -105,48 -8,4 -16,7 -25,11 -29,11 -66,24 -66,51zm-104 -150c0,96 113,114 153,66 34,-40 35,-83 1,-122 -29,-33 -88,-35 -124,-5 -12,10 -30,42 -30,61zm325 -175c0,29 2,45 25,69 53,55 151,12 151,-53 0,-29 -2,-46 -24,-70 -47,-50 -152,-21 -152,54z"/>
 </g>
</svg>
