<?xml version="1.0" encoding="UTF-8"?>
<!DOCTYPE svg PUBLIC "-//W3C//DTD SVG 1.1//EN" "http://www.w3.org/Graphics/SVG/1.1/DTD/svg11.dtd">
<!-- Creator: CorelDRAW X7 -->
<svg xmlns="http://www.w3.org/2000/svg" xml:space="preserve" width="16.391mm" height="15.9463mm" version="1.1" style="shape-rendering:geometricPrecision; text-rendering:geometricPrecision; image-rendering:optimizeQuality; fill-rule:evenodd; clip-rule:evenodd"
viewBox="0 0 694 675"
 xmlns:xlink="http://www.w3.org/1999/xlink">
 <defs>
  <style type="text/css">
   <![CDATA[
    .fil0 {fill:#3A3435}
   ]]>
  </style>
 </defs>
 <g id="Capa_x0020_1">
  <metadata id="CorelCorpID_0Corel-Layer"/>
  <path class="fil0" d="M0 92c0,31 2,50 28,76 35,35 65,27 99,25 6,8 46,42 56,52 2,1 13,12 14,13 6,10 2,10 4,23 3,14 16,25 32,25 12,0 60,-29 76,-38 13,-6 23,-12 37,-20 12,-6 24,-17 41,-18l3 149c0,6 -53,81 -63,97 -8,12 -14,21 -22,33 -16,25 -83,120 -83,133 0,28 36,53 66,8l159 -238 98 72c14,12 11,17 20,39l49 122c18,50 65,17 65,-1 0,-17 -20,-60 -27,-80 -3,-10 -7,-19 -10,-28 -30,-73 -19,-80 -69,-115l-64 -48c-8,-11 -6,-121 -6,-143 14,2 65,49 76,57 13,10 25,20 38,30 23,18 38,39 65,19 17,-12 15,-35 -3,-51l-66 -53c-19,-16 -76,-67 -93,-67l-144 0c-18,0 -29,10 -42,18l-120 64 -73 -68c0,-21 31,-84 -56,-125 -19,-10 -62,-18 -77,9 -3,6 -8,20 -8,29zm379 -21c0,36 30,73 65,73l19 0c56,0 87,-83 44,-122 -32,-29 -75,-29 -105,-1 -11,10 -23,30 -23,50zm273 346c39,0 39,-54 0,-54 -33,0 -33,54 0,54z"/>
 </g>
</svg>
