<?xml version="1.0" encoding="UTF-8"?>
<!DOCTYPE svg PUBLIC "-//W3C//DTD SVG 1.1//EN" "http://www.w3.org/Graphics/SVG/1.1/DTD/svg11.dtd">
<!-- Creator: CorelDRAW X7 -->
<svg xmlns="http://www.w3.org/2000/svg" xml:space="preserve" width="17.0177mm" height="6.6516mm" version="1.1" style="shape-rendering:geometricPrecision; text-rendering:geometricPrecision; image-rendering:optimizeQuality; fill-rule:evenodd; clip-rule:evenodd"
viewBox="0 0 1211 473"
 xmlns:xlink="http://www.w3.org/1999/xlink">
 <defs>
  <style type="text/css">
   <![CDATA[
    .fil0 {fill:#3A3435}
   ]]>
  </style>
 </defs>
 <g id="Capa_x0020_1">
  <metadata id="CorelCorpID_0Corel-Layer"/>
  <path class="fil0" d="M756 396l0 0zm0 0c36,-31 16,-22 32,-55 56,0 31,-1 63,23 20,15 34,18 69,18l0 5c-56,0 -111,9 -164,9zm27 -118c12,1 16,-9 28,41 -13,1 -13,2 -23,4 0,-17 1,-33 -5,-45zm-186 -223c0,27 22,71 29,97 9,27 24,76 34,98 -67,0 -158,2 -209,-2 -45,-4 -90,-29 -201,-29 -86,0 -148,20 -222,50 -17,6 -17,2 -19,22 17,8 8,6 23,1 27,-9 30,-17 80,-30 124,-31 177,-27 302,2 -4,16 -8,12 -13,36 -35,0 -85,-13 -173,-13 -48,0 -158,25 -204,51 -12,6 -14,6 -15,22 40,8 73,-50 264,-50 43,0 85,6 121,16 50,13 -10,19 100,36 42,6 76,15 116,20l104 19c1,1 3,1 4,1l6 3c-95,2 -58,41 -236,-5 -120,-32 -256,-62 -382,-21 -32,11 -91,26 -106,49 28,19 36,-8 103,-25 133,-33 180,-25 315,3 46,10 92,23 145,33 70,13 87,-3 152,-11 171,-23 247,-34 418,23 25,8 40,22 69,22l0 -18c-17,-4 -40,-16 -58,-23 -75,-27 -133,-41 -220,-41l0 -9c84,0 66,-35 100,-36 38,0 173,55 174,55 17,0 1,1 13,-5 -5,-20 -13,-19 -33,-26 -17,-6 -29,-12 -45,-18 -20,-8 -76,-24 -99,-24 1,-22 8,-22 9,-46 11,6 32,8 47,12l86 32c20,11 23,15 35,-3 -11,-16 -53,-29 -76,-38 -16,-6 -28,-9 -46,-13 -81,-19 -20,-40 -81,-96 -83,-78 -203,-15 -211,79l-23 0c-8,-35 -41,-114 -50,-150 59,0 118,0 178,0 22,0 71,2 90,-1 62,-12 48,-104 -8,-104l-337 0c-26,0 -50,19 -50,55z"/>
 </g>
</svg>
