<?xml version="1.0" encoding="UTF-8"?>
<!DOCTYPE svg PUBLIC "-//W3C//DTD SVG 1.1//EN" "http://www.w3.org/Graphics/SVG/1.1/DTD/svg11.dtd">
<!-- Creator: CorelDRAW X7 -->
<svg xmlns="http://www.w3.org/2000/svg" xml:space="preserve" width="14.5837mm" height="16.4015mm" version="1.1" style="shape-rendering:geometricPrecision; text-rendering:geometricPrecision; image-rendering:optimizeQuality; fill-rule:evenodd; clip-rule:evenodd"
viewBox="0 0 718 807"
 xmlns:xlink="http://www.w3.org/1999/xlink">
 <defs>
  <style type="text/css">
   <![CDATA[
    .fil0 {fill:#3A3435}
   ]]>
  </style>
 </defs>
 <g id="Capa_x0020_1">
  <metadata id="CorelCorpID_0Corel-Layer"/>
  <path class="fil0" d="M356 385l-78 -70c-15,-12 -22,-29 -45,-29 -52,0 -34,58 -34,58 0,2 -6,14 -9,18 -7,13 -13,23 -20,36 -12,24 -28,48 -41,72 -161,0 -153,227 -76,227 38,0 71,-24 89,-47 40,-54 48,-108 9,-167 22,-41 41,-82 63,-123 8,2 28,21 35,28 27,23 77,85 110,85 26,0 74,-71 94,-85l62 115c8,13 16,24 20,40 -59,40 -109,82 -160,133 -20,20 -64,51 -35,84 32,37 70,-15 86,-31 43,-43 90,-84 140,-118 9,-6 23,-17 35,-18l30 115c5,21 9,37 13,60 2,12 4,20 10,27 16,19 64,20 64,-26 0,-24 -8,-45 -13,-66 -4,-23 -10,-44 -16,-66 -10,-43 -23,-84 -39,-124 -15,-40 -31,-79 -50,-114l-62 -102c6,-9 13,-14 21,-24l106 -114c19,-18 37,-32 37,-57 0,-16 -19,-35 -35,-35 -24,0 -35,20 -46,33 -14,15 -25,23 -38,40l-169 181c-21,24 -42,39 -58,64zm-66 -195c0,94 115,102 142,36 37,-86 -77,-140 -126,-76 -3,3 -5,7 -8,11 -5,9 -8,16 -8,29zm-227 -173c0,110 -7,105 77,64 11,-6 13,-5 20,-14 -14,-26 -31,4 -53,4 -13,0 -25,-16 -25,-38 -1,-11 2,-24 -3,-29 -11,-11 -16,3 -16,13z"/>
 </g>
</svg>
