<?xml version="1.0" encoding="UTF-8"?>
<!DOCTYPE svg PUBLIC "-//W3C//DTD SVG 1.1//EN" "http://www.w3.org/Graphics/SVG/1.1/DTD/svg11.dtd">
<!-- Creator: CorelDRAW X7 -->
<svg xmlns="http://www.w3.org/2000/svg" xml:space="preserve" width="15.575mm" height="16.2453mm" version="1.1" style="shape-rendering:geometricPrecision; text-rendering:geometricPrecision; image-rendering:optimizeQuality; fill-rule:evenodd; clip-rule:evenodd"
viewBox="0 0 695 725"
 xmlns:xlink="http://www.w3.org/1999/xlink">
 <defs>
  <style type="text/css">
   <![CDATA[
    .fil0 {fill:#3A3435}
   ]]>
  </style>
 </defs>
 <g id="Capa_x0020_1">
  <metadata id="CorelCorpID_0Corel-Layer"/>
  <path class="fil0" d="M250 348c15,0 33,-11 44,-18 8,-4 13,-7 20,-11 9,-5 11,-8 22,-11l-6 72c-8,71 32,44 -95,105 -28,13 -64,24 -57,55l36 124c9,30 13,44 42,44 18,0 31,-17 31,-31 0,-17 -34,-103 -34,-126l92 -45c8,-4 6,-3 15,-7 7,-3 10,-5 16,-8 7,5 9,9 16,15l116 107c7,6 10,7 17,15l50 44c11,12 60,53 75,53 37,0 48,-44 15,-63 -14,-8 -130,-113 -143,-126 -8,-8 -14,-15 -23,-23l-46 -42c-12,-9 -17,-8 -18,-28l3 -86c1,-29 14,-29 40,-52 20,-19 26,-40 3,-59 -8,-6 -83,-28 -97,-32 -31,-9 -76,39 -114,49 0,-10 -8,-35 -12,-43 -16,-40 -43,-23 -54,-20 -9,-6 -55,-64 -65,-75l-87 -105c-12,-15 -12,-20 -34,-20 -8,0 -15,12 -17,19 -6,19 25,43 48,65 8,7 12,9 20,17 8,7 13,12 20,20 7,7 12,11 19,18 8,8 13,11 21,19l58 56c11,12 1,3 9,31 5,20 12,38 18,59 4,14 12,44 36,44zm140 -214c0,39 29,69 60,69 22,0 44,-1 59,-21 22,-30 24,-63 -1,-91 -22,-24 -69,-30 -96,-3 -11,10 -22,27 -22,46zm228 203c0,48 77,53 77,-3 0,-45 -77,-48 -77,3z"/>
 </g>
</svg>
