<?xml version="1.0" encoding="UTF-8"?>
<!DOCTYPE svg PUBLIC "-//W3C//DTD SVG 1.1//EN" "http://www.w3.org/Graphics/SVG/1.1/DTD/svg11.dtd">
<!-- Creator: CorelDRAW X7 -->
<svg xmlns="http://www.w3.org/2000/svg" xml:space="preserve" width="17.5294mm" height="15.7979mm" version="1.1" style="shape-rendering:geometricPrecision; text-rendering:geometricPrecision; image-rendering:optimizeQuality; fill-rule:evenodd; clip-rule:evenodd"
viewBox="0 0 1733 1562"
 xmlns:xlink="http://www.w3.org/1999/xlink">
 <defs>
  <style type="text/css">
   <![CDATA[
    .fil0 {fill:#3A3435}
   ]]>
  </style>
 </defs>
 <g id="Capa_x0020_1">
  <metadata id="CorelCorpID_0Corel-Layer"/>
  <path class="fil0" d="M424 354c-69,0 -114,25 -114,108 0,16 13,42 21,54 13,18 30,27 50,33 24,8 34,8 59,-1 29,-11 31,-25 54,-29 45,-8 443,-7 511,-7 21,0 40,51 45,70 -86,0 -148,6 -234,6 -16,0 -133,-80 -171,82l-645 0 0 32 658 0c11,47 49,63 95,63 56,0 39,-32 145,-32 29,0 59,1 89,1 36,-1 43,-7 82,-7l31 95 -1100 0 0 31 1113 0c3,40 22,13 -33,68 -18,19 -36,46 -68,46l-1012 0c1,43 5,32 95,32l904 0 -412 416 101 104 493 -490 -5 96c-5,53 -7,35 19,77l204 314c18,20 33,39 62,46 2,-23 10,-48 15,-74 5,-23 8,-57 29,-66 -2,-23 -14,-34 -25,-50l-92 -142c-12,-17 -19,-30 -30,-47 -61,-97 -27,-56 -24,-184l368 1c29,-2 25,-1 31,-26 -26,-15 -343,-7 -399,-7l7 -114 373 0c17,0 15,-4 19,-18 -13,-18 -5,-13 -38,-14 -16,0 -34,1 -51,1l-316 0c-21,-39 -36,-81 -57,-120 75,0 425,11 462,-7l-7 -25 -474 0c-2,-20 -48,-113 -66,-162 -11,-32 -19,-54 -30,-84 -10,-29 -17,-61 -30,-89 -43,0 -202,11 -232,21 -32,11 -161,4 -205,4 -36,1 -48,7 -88,7 -32,0 -64,0 -95,0 -76,0 -47,-13 -82,-13zm537 -57c240,0 191,-297 19,-297 -39,0 -85,19 -106,39 -107,101 -19,258 87,258z"/>
 </g>
</svg>
