<?xml version="1.0" encoding="UTF-8"?>
<!DOCTYPE svg PUBLIC "-//W3C//DTD SVG 1.1//EN" "http://www.w3.org/Graphics/SVG/1.1/DTD/svg11.dtd">
<!-- Creator: CorelDRAW X7 -->
<svg xmlns="http://www.w3.org/2000/svg" xml:space="preserve" width="17.5315mm" height="13.5248mm" version="1.1" style="shape-rendering:geometricPrecision; text-rendering:geometricPrecision; image-rendering:optimizeQuality; fill-rule:evenodd; clip-rule:evenodd"
viewBox="0 0 1323 1021"
 xmlns:xlink="http://www.w3.org/1999/xlink">
 <defs>
  <style type="text/css">
   <![CDATA[
    .fil0 {fill:#3A3435}
   ]]>
  </style>
 </defs>
 <g id="Capa_x0020_1">
  <metadata id="CorelCorpID_0Corel-Layer"/>
  <path class="fil0" d="M874 539c33,-23 66,-41 116,-48 148,-21 280,94 280,217 0,46 -2,91 -25,130l-37 50c-160,176 -426,33 -426,-137 0,-60 -4,-45 10,-101 25,19 87,191 110,218 32,39 113,17 97,-54 -3,-13 -4,-14 -10,-24l-33 -68c-15,-32 -28,-57 -42,-88 -8,-18 -13,-31 -21,-47 -8,-16 -17,-27 -19,-48zm-599 150c30,0 72,-48 94,-65 29,-22 60,-60 89,-75 103,68 118,262 5,356 -220,182 -493,-58 -389,-278 24,-52 71,-94 123,-118 76,-34 110,-18 145,-18 -4,18 -53,53 -71,68 -11,10 -15,11 -26,22 -56,52 -10,108 30,108zm106 -242c-42,-3 -27,-9 -101,-9 -115,0 -206,75 -253,172 -45,92 -32,201 27,285 78,109 213,153 353,104 65,-22 121,-76 154,-136 65,-122 28,-288 -69,-353 10,-44 5,-112 5,-159 0,-27 -5,-29 -5,-53l145 0c-67,100 -84,28 -55,199 14,85 12,211 79,211 88,0 51,-104 42,-173l-18 -112c0,-14 62,-72 73,-87 35,-46 49,-34 125,-34 -7,29 -145,179 -145,208 0,63 42,42 17,98 -95,216 84,418 273,413 122,-4 219,-72 266,-168 97,-198 -63,-415 -251,-415 -86,0 -58,2 -131,19l144 -189c17,-22 70,-77 33,-118 -6,-7 -11,-10 -21,-13 -34,-14 -153,-8 -199,-8l-406 -6c-29,-2 -78,-3 -82,49 -6,79 0,192 0,275zm-256 -338c0,158 232,152 232,0 0,-49 -48,-107 -117,-109 -58,-1 -115,50 -115,109z"/>
 </g>
</svg>
