<?xml version="1.0" encoding="UTF-8"?>
<!DOCTYPE svg PUBLIC "-//W3C//DTD SVG 1.1//EN" "http://www.w3.org/Graphics/SVG/1.1/DTD/svg11.dtd">
<!-- Creator: CorelDRAW X7 -->
<svg xmlns="http://www.w3.org/2000/svg" xml:space="preserve" width="13.9466mm" height="9.9161mm" version="1.1" style="shape-rendering:geometricPrecision; text-rendering:geometricPrecision; image-rendering:optimizeQuality; fill-rule:evenodd; clip-rule:evenodd"
viewBox="0 0 671 477"
 xmlns:xlink="http://www.w3.org/1999/xlink">
 <defs>
  <style type="text/css">
   <![CDATA[
    .fil0 {fill:#3A3435}
   ]]>
  </style>
 </defs>
 <g id="Capa_x0020_1">
  <metadata id="CorelCorpID_0Corel-Layer"/>
  <path class="fil0" d="M234 182c7,1 97,54 105,64 -13,11 -108,-17 -127,-21 4,-15 18,-29 22,-43zm-92 21c-35,-3 -133,-55 -133,-55 -12,0 -1,-1 -9,3 7,27 103,60 123,62 -7,10 -34,28 -47,36 -30,20 -39,25 -39,53 0,17 17,31 37,31 15,0 55,-32 68,-43 24,-18 47,-26 61,-53l102 25c-9,11 -48,24 -60,36 -30,30 7,62 30,89 6,7 11,13 17,20 29,33 48,70 77,70 15,0 56,-20 19,-68 -6,-7 -14,-17 -21,-25 -8,-9 -13,-15 -21,-25 -9,-12 -13,-13 -20,-26 12,-3 63,-31 72,-36 29,-17 20,-15 86,-2 26,6 171,33 187,25 -4,-16 -16,-11 -51,-16l-177 -30c10,-13 37,-12 37,-46 0,-26 -48,-47 -80,-67 -12,-7 -21,-13 -32,-21l-94 -57c-60,-36 -61,-6 -113,82l-19 38zm-105 -132c0,30 27,71 65,71l18 0c52,0 89,-74 46,-120 -43,-45 -129,-17 -129,49z"/>
 </g>
</svg>
