<?xml version="1.0" encoding="UTF-8"?>
<!DOCTYPE svg PUBLIC "-//W3C//DTD SVG 1.1//EN" "http://www.w3.org/Graphics/SVG/1.1/DTD/svg11.dtd">
<!-- Creator: CorelDRAW X7 -->
<svg xmlns="http://www.w3.org/2000/svg" xml:space="preserve" width="16.1858mm" height="16.5629mm" version="1.1" style="shape-rendering:geometricPrecision; text-rendering:geometricPrecision; image-rendering:optimizeQuality; fill-rule:evenodd; clip-rule:evenodd"
viewBox="0 0 812 831"
 xmlns:xlink="http://www.w3.org/1999/xlink">
 <defs>
  <style type="text/css">
   <![CDATA[
    .fil0 {fill:#3A3435}
   ]]>
  </style>
 </defs>
 <g id="Capa_x0020_1">
  <metadata id="CorelCorpID_0Corel-Layer"/>
  <path class="fil0" d="M0 790c0,29 37,67 83,6l35 -39c8,-9 9,-11 16,-19 21,-27 113,-118 120,-141 5,-20 29,-105 29,-119l6 0c8,29 59,67 65,105 2,13 2,37 2,56 0,20 2,153 7,166 15,39 63,31 72,-1 6,-21 -1,-45 -2,-63 -1,-21 0,-46 0,-67 1,-24 -3,-40 -3,-67 0,-75 -1,-59 -32,-103 -19,-27 -39,-52 -58,-80l39 -42c0,74 14,60 65,111 16,16 29,27 45,42 6,6 7,6 12,10 9,7 25,26 42,26 21,0 38,-16 38,-41 0,-22 -22,-32 -34,-43l-83 -75c-15,-14 -11,-61 -11,-85 0,-10 27,-59 35,-73l140 17c21,4 37,27 57,49 9,10 17,18 27,27 9,10 16,17 26,26 18,18 16,22 42,22 19,0 32,-16 32,-39 0,-22 -29,-44 -42,-57 -10,-10 -17,-16 -25,-26 -3,-4 -2,-3 -6,-7 -1,-1 -1,-1 -2,-2 0,0 -1,-1 -1,-1l-4 -3c-69,-73 -40,-56 -155,-72 -31,-5 -60,-7 -89,-11 -73,-10 -53,-3 -95,39l-49 54c-10,11 -15,15 -24,27l-35 39c-5,5 -8,8 -13,13 -10,10 -14,17 -24,27 -7,7 -18,20 -22,30 -5,10 -7,27 -11,37l-31 123c-3,7 -15,21 -21,27l-24 27c-10,11 -15,18 -24,28l-73 81c-14,18 -42,41 -42,61zm401 -716c0,81 116,104 146,33 15,-35 10,-57 -14,-85 -12,-13 -27,-20 -43,-22l-19 0c-36,4 -70,32 -70,74zm109 565c0,73 78,101 126,61 31,-26 36,-77 4,-110 -43,-46 -130,-16 -130,49z"/>
 </g>
</svg>
