<?xml version="1.0" encoding="UTF-8"?>
<!DOCTYPE svg PUBLIC "-//W3C//DTD SVG 1.1//EN" "http://www.w3.org/Graphics/SVG/1.1/DTD/svg11.dtd">
<!-- Creator: CorelDRAW X7 -->
<svg xmlns="http://www.w3.org/2000/svg" xml:space="preserve" width="17.2768mm" height="17.2081mm" version="1.1" style="shape-rendering:geometricPrecision; text-rendering:geometricPrecision; image-rendering:optimizeQuality; fill-rule:evenodd; clip-rule:evenodd"
viewBox="0 0 1700 1693"
 xmlns:xlink="http://www.w3.org/1999/xlink">
 <defs>
  <style type="text/css">
   <![CDATA[
    .fil0 {fill:#3A3435}
   ]]>
  </style>
 </defs>
 <g id="Capa_x0020_1">
  <metadata id="CorelCorpID_0Corel-Layer"/>
  <path class="fil0" d="M762 900l-284 -201c7,-29 17,-45 28,-73 12,-29 21,-47 31,-76 11,-31 20,-43 30,-71l151 -372c0,-47 -96,-147 -159,6l-240 578c-15,38 -32,80 -48,115 -9,18 -44,102 -44,119l164 717c26,81 144,59 144,-18 0,-43 -131,-573 -151,-661 23,6 74,45 97,60 18,12 28,18 45,31l95 63c18,13 30,20 48,33 17,12 28,17 46,30 20,15 26,22 59,22l863 0c70,0 89,-110 20,-140 -27,-11 -75,-5 -108,-5l-687 0c18,-73 186,-498 218,-606l44 -126c15,-42 30,-77 45,-119 18,-54 40,-96 40,-143 0,-63 -90,-84 -128,-39 -15,18 -97,257 -109,287 -16,42 -28,79 -43,121l-147 407c-8,22 -15,38 -20,61zm-762 -258c0,160 173,196 254,115 162,-163 -125,-371 -237,-174 -10,17 -17,36 -17,59z"/>
 </g>
</svg>
