<?xml version="1.0" encoding="UTF-8"?>
<!DOCTYPE svg PUBLIC "-//W3C//DTD SVG 1.1//EN" "http://www.w3.org/Graphics/SVG/1.1/DTD/svg11.dtd">
<!-- Creator: CorelDRAW X7 -->
<svg xmlns="http://www.w3.org/2000/svg" xml:space="preserve" width="154.355mm" height="129.078mm" version="1.1" style="shape-rendering:geometricPrecision; text-rendering:geometricPrecision; image-rendering:optimizeQuality; fill-rule:evenodd; clip-rule:evenodd"
viewBox="0 0 129451 108253"
 xmlns:xlink="http://www.w3.org/1999/xlink">
 <defs>
  <style type="text/css">
   <![CDATA[
    .fil0 {fill:#3A3435}
   ]]>
  </style>
 </defs>
 <g id="Capa_x0020_1">
  <metadata id="CorelCorpID_0Corel-Layer"/>
  <path class="fil0" d="M12018 107341l0 0zm0 0c422,-367 192,-262 375,-644 665,0 370,-11 749,270 229,169 397,213 807,213l0 53c-655,0 -1302,108 -1931,108zm321 -1395c145,12 186,-102 322,483 -144,12 -145,25 -268,53 0,-207 10,-394 -54,-536zm-2199 -2628c0,323 260,836 353,1149 95,321 273,898 398,1157 -789,0 -1870,24 -2470,-27 -531,-45 -1058,-348 -2359,-348 -1019,0 -1751,238 -2626,593 -190,77 -198,28 -218,265 194,93 92,64 269,6 314,-103 353,-203 944,-350 1455,-361 2086,-322 3563,22 -51,189 -96,147 -161,429 -409,0 -994,-161 -2039,-161 -561,0 -1855,301 -2403,603 -134,73 -157,67 -173,256 472,99 857,-590 3112,-590 507,0 996,77 1420,189 598,159 -112,226 1187,423 493,75 889,179 1367,243l1223 225c12,4 28,10 39,14l76 32c-1115,25 -678,483 -2779,-65 -1416,-370 -3023,-727 -4498,-237 -384,127 -1074,301 -1254,570 334,224 420,-95 1212,-290 1568,-387 2127,-298 3711,35 547,116 1085,274 1707,386 830,149 1030,-31 1791,-134 2017,-271 2911,-391 4933,278 291,96 468,262 811,262l0 -215c-199,-46 -471,-195 -691,-274 -876,-317 -1565,-477 -2582,-477l0 -107c988,0 777,-423 1172,-424 448,-2 2045,638 2047,638 205,0 20,17 161,-53 -63,-234 -162,-220 -390,-308 -200,-76 -339,-137 -537,-214 -228,-89 -893,-283 -1166,-283 21,-252 102,-257 108,-536 130,62 376,87 556,141l1018 380c228,122 268,175 411,-39 -137,-186 -630,-341 -895,-445 -189,-75 -335,-105 -543,-155 -951,-228 -238,-471 -955,-1138 -979,-912 -2397,-176 -2489,934l-269 0c-95,-409 -490,-1342 -590,-1770 697,0 1395,0 2093,0 258,0 840,30 1061,-12 733,-138 570,-1222 -96,-1222l-3970 0c-306,0 -590,225 -590,644z"/>
  <path class="fil0" d="M13628 72576l225 -122 2 324 -227 -202zm6934 -2050l0 536 -6600 0c-316,0 -804,325 -1137,526 -395,239 -1390,645 -648,1366l1340 1235c150,125 351,267 388,471l11 1618 -920 1650c-280,541 -1770,3078 -1770,3379 0,663 701,843 1088,444 111,-115 126,-200 202,-334l2734 -4991c166,111 402,469 526,654l3004 4292c480,731 1299,735 1299,-226 0,-240 -388,-657 -590,-965l-1310 -1856c-231,-333 -421,-630 -661,-949 -232,-309 -410,-600 -643,-912 -116,-155 -239,-325 -334,-470 -233,-356 -221,-250 -222,-583 -1,-519 4,-1040 4,-1560 0,-586 -54,-1026 -54,-1555l4132 0c137,0 751,-276 751,-483l0 -965c745,0 1717,151 1717,-269 0,-197 -138,-321 -269,-321l-1770 0c-125,0 -268,143 -268,268zm-6761 -1717c0,754 603,1449 1234,1449l483 0c585,0 1234,-712 1234,-1288 0,-537 -47,-771 -468,-1195 -933,-940 -2483,-170 -2483,1034z"/>
  <path class="fil0" d="M71984 93220c0,853 613,752 1145,501l2902 -1283c249,-104 1019,-490 1211,-505 5,236 80,589 122,842 41,240 96,575 139,828 60,355 171,1438 276,1655l-1352 741c-170,102 -314,166 -483,268l-2737 1555c-311,187 -593,351 -920,529 -331,181 -597,339 -929,519 -150,82 -305,170 -440,258 -606,397 -149,1386 604,1089 377,-148 702,-409 1070,-596l5378 -3045c199,-118 359,-194 550,-308 408,-244 297,-235 493,-366 158,682 232,1456 370,2150 297,1486 -15,1159 2429,1434l2353 227c615,37 749,-278 749,-700 0,-751 -1211,-576 -1900,-674 -389,-56 -812,-92 -1163,-126l-1175 -112 -371 -2150c-247,-1222 -494,-3051 -717,-4326 -392,-2244 -347,-1992 -2615,-981 -282,126 -588,242 -858,376 -293,146 -592,241 -894,394 -574,289 -1171,507 -1734,787 -130,65 -259,114 -415,176 -483,190 -1088,400 -1088,843zm-1717 -2468c0,1577 1870,1875 2531,1083 550,-658 573,-1364 5,-2008 -477,-542 -1449,-584 -2039,-80 -193,164 -497,682 -497,1005zm5365 -2896c0,489 35,746 414,1142 878,917 2484,204 2484,-874 0,-485 -32,-762 -399,-1157 -771,-827 -2499,-338 -2499,889z"/>
  <path class="fil0" d="M58564 76493c0,487 265,644 698,644 414,0 777,-778 1042,-1211l890 -1417c386,0 728,25 1123,56 283,22 875,45 1130,104l-1338 1989c-83,128 -100,156 -195,287 -89,121 -116,185 -187,297 -705,1109 -600,605 -1144,2235 -166,496 -297,967 -479,1452 -99,265 -72,167 -556,410 -415,208 -2751,1239 -2896,1449 -239,346 -161,1000 571,1000 199,0 1503,-670 1770,-805l1790 -838c438,-251 573,-1020 832,-1743 62,-172 83,-313 147,-497 69,-197 122,-290 172,-473 123,-450 220,-572 440,-900l1060 978c167,168 414,295 444,575 36,340 -25,684 29,1044l81 3030c81,710 844,744 1125,383 81,-103 152,-250 160,-434l-55 -1071c0,-800 -57,-1404 -54,-2199 2,-441 -53,-653 -52,-1075 2,-489 -191,-574 -491,-849 -8,-8 -20,-19 -28,-26l-888 -829c-96,-87 -83,-70 -151,-171 51,-218 195,-365 312,-547 121,-189 213,-349 332,-526 148,-221 520,-900 697,-1019 1091,2061 868,2268 2518,1444l1113 -550c406,-205 1252,-414 1252,-1001 0,-315 -266,-590 -697,-590 -328,0 -2243,1098 -2576,1126l-1095 -2123c-148,-250 -233,-496 -545,-582l-4101 -299c-373,0 -922,1075 -1203,1533 -182,297 -997,1464 -997,1739zm7888 -3325c945,0 1502,-627 1502,-1556 0,-576 -649,-1287 -1234,-1287 -474,0 -993,-9 -1351,473 -199,268 -346,617 -330,1007 30,758 642,1363 1413,1363z"/>
  <path class="fil0" d="M47853 94815c0,458 319,610 698,912 131,105 155,169 322,214 -216,928 -914,2730 -1233,3970l-280 901c-111,411 -687,2025 -687,2263 0,427 275,644 698,644 525,0 638,-667 762,-1115l1330 -4357 4236 3c322,27 2762,117 3085,22 506,-149 955,-1269 -614,-1259l-4400 1c-374,2 -542,-54 -858,-54 0,-447 -92,-1091 164,-1444 284,-392 771,-656 855,-970 203,136 361,242 567,399 734,556 920,444 1434,-168l859 -966c102,-122 206,-210 320,-323l454 -512c333,-606 -451,-1408 -1086,-656 -70,83 -36,42 -101,113 -57,63 -73,82 -128,141l-1138 1221c-190,-50 -1766,-1242 -2039,-1448 -986,-742 -1041,-589 -2154,905 -184,247 -366,476 -566,721 -145,177 -500,588 -500,842zm1986 -4399c0,1262 1309,1727 2163,1305 171,-85 248,-195 373,-324 844,-866 271,-2375 -1141,-2375 -769,0 -1395,632 -1395,1394z"/>
  <path class="fil0" d="M26555 88575c0,386 117,697 644,697 441,0 758,-680 1105,-1201l934 -1373 1878 160c-51,191 -1543,2478 -1824,2897 -459,684 -445,1246 -687,2210 -65,260 -113,488 -170,742 -97,432 -79,336 -449,517l-2619 1244c-469,190 -1065,407 -1065,866 0,444 371,773 758,656l2569 -1193c1746,-881 1713,-524 2017,-1738 104,-416 182,-842 279,-1223 58,-229 86,-361 141,-610 47,-219 121,-405 138,-613 166,45 178,137 282,254 106,118 174,187 279,312l821 841c123,124 467,499 492,635l-58 3314c-26,229 -130,650 81,954 275,396 1046,318 1150,-313l66 -4439c-81,-375 -1330,-1460 -1611,-1880l698 -1180c154,-233 582,-1002 751,-1126 231,437 852,1985 1234,1985 624,0 497,-105 1126,-430 292,-151 523,-298 822,-466 297,-166 515,-300 824,-463 1098,-579 493,-1330 10,-1346 -287,-9 -1631,777 -1967,998 -153,101 -213,186 -440,205l-1180 -2414c-305,-501 -1276,-311 -2231,-452 -512,-75 -860,-57 -1253,-88l-1232 -101c-451,37 -774,718 -1086,1170l-365 546c-193,323 -862,1158 -862,1446zm6546 -4774c0,1633 1754,1711 2352,903 60,-81 73,-119 118,-204 698,-1340 -1031,-2493 -2080,-1543 -171,154 -390,532 -390,844z"/>
  <path class="fil0" d="M15457 10885c0,432 275,644 697,644 305,0 2572,-1556 2790,-1556 135,0 1351,965 1556,1020 -114,155 -2939,1814 -3289,2021 -598,351 -352,320 -824,1322 -788,1672 181,1069 -3137,2174 -276,92 -545,182 -805,269 -235,78 -596,172 -790,282 -535,307 -332,1173 314,1173 234,0 2969,-983 3607,-1168 235,-69 361,-131 598,-207l624 -181 946 -2326c67,-154 63,-215 181,-302l449 1643c65,196 136,380 141,610l-2361 1716c-369,277 -643,361 -643,858 0,117 259,974 1149,345 771,-546 2144,-1647 2865,-2124 620,-409 229,-1117 21,-1879l-333 -1276c404,-214 754,-425 1157,-667l1150 -674 107 2521 3917 0c492,0 590,-386 590,-751 0,-593 -741,-537 -1341,-537 -644,0 -1288,0 -1932,0l-107 -2789 -459 -292c-213,-142 -3187,-2283 -3297,-2283 -75,0 -787,441 -929,520l-1408 845c-179,108 -304,163 -475,276 -295,196 -729,322 -729,773zm7994 54c0,496 15,701 414,1088 869,845 2162,52 2162,-927 0,-1062 -1392,-1648 -2190,-902 -139,131 -386,500 -386,741z"/>
  <path class="fil0" d="M6492 57193l-2414 -1716c57,-248 143,-384 238,-621 97,-245 179,-403 265,-646 92,-263 170,-367 255,-604l1281 -3171c0,-401 -820,-1255 -1350,46l-2046 4927c-128,323 -271,689 -414,980 -76,156 -375,868 -375,1020l1403 6106c219,692 1225,508 1225,-152 0,-368 -1113,-4884 -1287,-5632 196,52 627,382 826,514 150,100 240,154 385,260l805 536c158,115 257,173 414,283 147,104 240,143 390,254 172,127 219,191 506,191l7351 0c596,0 761,-942 173,-1192 -226,-97 -641,-42 -924,-42l-5848 0c146,-629 1583,-4252 1855,-5172l377 -1071c125,-358 255,-659 377,-1018 157,-460 342,-810 342,-1214 0,-539 -763,-715 -1085,-333 -129,154 -831,2189 -932,2448 -137,353 -243,672 -364,1030l-1252 3468c-74,185 -131,326 -177,521zm-6492 -2199c0,1362 1477,1672 2162,982 1386,-1395 -1066,-3164 -2020,-1484 -80,141 -142,303 -142,502z"/>
  <path class="fil0" d="M47880 39517c375,-251 738,-457 1289,-535 1651,-231 3110,1047 3110,2413 0,512 -16,1009 -269,1447l-411 555c-1785,1960 -4739,371 -4739,-1520 0,-670 -37,-505 108,-1126 282,207 976,2123 1224,2424 361,438 1256,184 1083,-597 -32,-144 -47,-159 -109,-270l-374 -753c-158,-357 -303,-631 -466,-983 -91,-197 -141,-341 -232,-519 -90,-177 -184,-297 -214,-536zm-6653 1663c330,0 805,-530 1050,-720 316,-244 665,-665 988,-836 1144,766 1310,2923 48,3964 -2441,2015 -5474,-646 -4324,-3089 275,-583 790,-1050 1371,-1312 842,-381 1226,-206 1618,-206 -55,204 -600,593 -792,764 -120,106 -172,122 -297,240 -618,581 -101,1195 338,1195zm1180 -2682c-467,-39 -305,-107 -1127,-107 -1273,0 -2288,836 -2809,1912 -497,1028 -360,2243 302,3169 869,1217 2365,1702 3923,1162 723,-250 1348,-844 1706,-1513 729,-1363 318,-3203 -761,-3926 113,-484 54,-1245 54,-1770 0,-297 -54,-318 -54,-590l1610 0c-745,1111 -932,318 -614,2222 158,944 130,2338 882,2338 972,0 569,-1149 467,-1916l-199 -1249c0,-152 683,-805 805,-966 388,-512 550,-375 1395,-375 -85,318 -1610,1990 -1610,2306 0,699 464,466 186,1095 -1061,2399 933,4640 3028,4581 1356,-39 2433,-801 2958,-1866 1081,-2195 -702,-4614 -2791,-4614 -951,0 -643,26 -1449,214l1602 -2099c183,-244 771,-856 363,-1313 -65,-73 -128,-107 -230,-146 -385,-149 -1708,-89 -2218,-89l-4506 -58c-329,-28 -867,-38 -914,540 -73,879 1,2137 1,3058zm-2844 -3755c0,1752 2576,1690 2576,0 0,-547 -532,-1196 -1295,-1214 -646,-14 -1281,560 -1281,1214z"/>
  <path class="fil0" d="M14985 35488c-583,0 -966,214 -966,912 0,143 112,361 182,463 106,154 250,228 419,281 205,65 291,63 503,-13 250,-91 265,-208 457,-243 387,-72 3760,-59 4341,-59 177,0 339,430 376,590 -725,0 -1255,54 -1985,54 -132,0 -1128,-680 -1449,697l-5472 0 0 269 5579 0c94,402 416,536 805,536 482,0 338,-269 1232,-270 251,0 506,7 756,4 305,-4 370,-56 695,-56l268 805 -9335 0 0 268 9443 0c28,338 191,105 -282,577 -154,154 -303,388 -577,388l-8584 0c8,360 46,269 804,269l7673 0 -3501 3527 859 884 4185 -4156 -46 816c-37,444 -52,294 163,648l1735 2664c147,176 275,333 521,391 16,-190 83,-402 130,-622 42,-196 71,-488 246,-559 -16,-199 -121,-292 -214,-429l-781 -1204c-96,-143 -162,-256 -249,-394 -520,-826 -229,-479 -205,-1566l3119 6c248,-17 213,-10 262,-221 -221,-123 -2912,-54 -3381,-54l54 -965 3166 0c148,0 129,-42 161,-161 -111,-151 -40,-106 -317,-112 -137,-3 -294,5 -434,5l-2683 0c-174,-329 -308,-689 -483,-1019 632,0 3608,94 3917,-54l-61 -213 -4017 -2c-14,-168 -412,-957 -557,-1373 -94,-270 -165,-464 -255,-711 -90,-249 -145,-518 -261,-759 -361,0 -1710,91 -1969,178 -272,91 -1360,30 -1735,35 -310,4 -405,58 -748,57 -269,-1 -538,-2 -808,0 -640,5 -393,-109 -696,-109zm4561 -482c2035,0 1619,-2521 161,-2521 -334,0 -721,161 -902,332 -906,859 -157,2189 741,2189z"/>
  <path class="fil0" d="M35720 19619c0,305 299,643 698,643 145,0 1750,-848 2021,-983l986 -515c228,-117 894,-471 1070,-486 79,295 1850,2590 1932,2896 -267,0 -879,60 -1094,-33l-805 -751c-461,-460 -658,-419 -1292,-100 -235,119 -421,194 -654,312 -225,114 -402,172 -627,286 -167,84 -495,286 -679,286l-5687 0 0 1234 7404 0c234,0 640,407 818,577 148,141 236,184 376,321 186,181 1831,1639 1972,1677l-54 1019c0,180 882,875 1019,912 266,-178 447,-428 660,-682 207,-248 540,-437 628,-767 -80,-119 -828,-750 -966,-750 -1264,0 -744,361 -2187,-925 -150,-134 -222,-168 -374,-323 -194,-196 -1087,-899 -1195,-1059l6439 0 0 -1234c-1892,0 -1370,280 -2307,-1126l-2028 -3069c-468,-763 -976,-308 -1338,-135 -1402,671 -2862,1474 -4273,2165 -220,108 -463,328 -463,610zm2736 -4452c0,419 60,703 386,1008 738,691 2130,275 2156,-908 7,-309 -157,-698 -353,-894 -799,-800 -2189,-217 -2189,794z"/>
  <path class="fil0" d="M50634 51888c0,152 1438,2427 1696,2811 677,1007 546,1092 2467,-44 279,-165 1372,-863 1686,-889 -124,532 -57,161 -53,748l-15 2778c-32,118 -276,401 -377,535l-1617 2085 -3519 2006c-788,417 -365,1235 108,1235 516,0 1514,-727 2021,-984 329,-167 611,-343 919,-529 323,-195 1111,-557 1341,-805 108,-117 240,-295 334,-418l1877 -2468 2307 1932c-251,67 -916,864 -1167,1085 -563,496 -1429,1052 -980,1705 497,722 1237,-255 1396,-377l1597 -1514c549,-556 1155,-978 281,-1651l-2051 -1650c-250,-201 -135,-672 -95,-1407l107 -2038c185,15 466,151 637,222 103,42 174,81 298,131 511,204 3826,1578 4001,1578 866,0 904,-912 289,-1200 -228,-107 -442,-197 -685,-282l-4126 -1667c-575,-245 -907,-188 -1702,-230 -233,-13 -196,-42 -429,-54 -155,-8 -324,10 -480,-3 -808,-67 -427,-140 -1433,396 -355,189 -1652,998 -1896,1055l-1366 -2175c-58,-88 -54,-67 -112,-156 -239,-365 -192,-404 -722,-404 -324,0 -537,330 -537,643zm161 -2252c0,515 27,858 520,1251 1065,848 2701,-283 2144,-1607 -591,-1403 -2664,-854 -2664,356zm6010 1180c0,591 467,1233 1234,1233 1916,0 1549,-2467 214,-2467 -543,0 -1066,91 -1343,749 -30,72 -105,383 -105,485z"/>
  <path class="fil0" d="M59515 28380c126,30 1691,945 1824,1127 -219,182 -1872,-300 -2200,-376 62,-266 307,-494 376,-751zm-1610 376c-610,-51 -2304,-966 -2307,-966 -205,0 -19,-16 -161,54 124,464 1801,1044 2146,1072 -124,186 -600,489 -816,633 -521,347 -686,445 -686,923 0,306 297,537 644,537 269,0 956,-557 1195,-736 417,-313 809,-456 1058,-927l1771 429c-146,199 -828,424 -1035,628 -531,523 122,1087 515,1554 107,128 187,229 293,351 501,574 840,1221 1354,1221 261,0 968,-349 323,-1181 -107,-137 -243,-299 -365,-440 -136,-155 -233,-272 -364,-440 -160,-205 -226,-233 -346,-459 200,-47 1090,-536 1252,-627 505,-285 340,-253 1489,-21 461,92 2994,565 3269,433 -76,-283 -289,-190 -890,-291l-3081 -514c164,-224 644,-209 644,-804 0,-458 -841,-815 -1405,-1170 -197,-124 -358,-222 -558,-354l-1629 -1000c-1042,-629 -1067,-107 -1965,1420l-345 675zm-1824 -2307c0,522 468,1234 1127,1234l322 0c900,0 1550,-1278 794,-2081 -744,-790 -2243,-310 -2243,847z"/>
  <path class="fil0" d="M88613 42182c0,443 266,643 698,643 150,0 918,-379 1090,-465 372,-187 753,-322 1110,-500l2200 -1019c178,337 383,638 571,984 1050,1926 949,950 200,3220 -134,405 -260,764 -403,1153 -217,591 -422,3691 -422,4405 0,409 446,588 795,478 635,-203 462,-1351 555,-2240 67,-643 146,-1941 344,-2445 179,-453 1037,-2901 1042,-3142 146,107 611,970 751,1181l773 1265c634,964 486,566 1956,727l2492 194c910,85 989,-1209 146,-1275 -424,-34 -754,-32 -1182,-53 -776,-39 -1376,-161 -2307,-161l-1158 -1953c-91,-138 -118,-189 -206,-331l-1801 -2973 1501 376c1009,243 698,-26 1109,823l609 1323c334,672 323,1072 966,1072 270,0 743,-348 493,-921l-907 -1991c-509,-1189 -421,-1214 -1737,-1482 -368,-75 -665,-158 -1036,-251 -1188,-299 -1043,-371 -2071,140 -149,74 -283,115 -448,195l-5060 2344c-304,144 -663,247 -663,679zm6600 7402c0,1387 1650,1593 2210,922 456,-548 503,-1201 5,-1741 -782,-848 -2215,-201 -2215,819zm-2951 -12230l0 322c0,561 565,1126 1127,1126l268 0c1345,0 1649,-2312 -29,-2493 -756,-82 -1366,604 -1366,1045z"/>
  <path class="fil0" d="M27465 54803l6653 0 -2454 3018c-247,288 -621,295 -1008,228 -285,-50 -159,12 -297,-133 -54,-56 -113,-146 -198,-231l-1579 -1639c-7,-9 -18,-21 -25,-29l-171 -205c-306,-350 -706,-603 -921,-1009zm-4507 -2039l0 3594c0,731 943,590 1556,590 917,0 697,-1014 697,-2145l912 0c-81,350 7,457 228,684l2468 2628c149,148 953,942 953,1086l-54 2360c-453,-303 -2342,-1555 -2522,-1555 -714,0 -700,598 -698,1018 4,630 -54,1076 -53,1663 1,287 -1,573 0,859 3,518 -220,1559 122,1917 283,296 944,279 1084,-390l82 -3297 1305 841c775,457 499,544 1649,449 641,-53 1753,116 2070,-129 372,-287 819,-835 1146,-1054l631 3017c212,860 1247,704 1247,-13 0,-446 -157,-906 -246,-1310l-278 -1278c-58,-275 -352,-1758 -441,-1919 -499,-893 -1491,339 -1549,384 -333,266 -623,665 -974,851 0,-394 29,-906 -3,-1285 -46,-561 -211,-1088 38,-1358 90,-97 67,-74 149,-177 109,-137 183,-219 292,-352l2328 -2822c105,-117 198,-226 295,-350 129,-164 124,-251 174,-468l912 0c0,2172 -164,2145 1556,2145 470,0 751,-281 751,-751l0 -3165c0,-972 -704,-804 -1609,-804 -446,0 -698,348 -698,644l0 1555 -1019 0c-237,0 -70,-214 -590,-214 -323,0 -287,214 -483,214l-6975 0c-309,0 -480,-54 -698,-54 -217,0 -388,54 -697,54l-805 0c0,-2354 178,-2199 -1610,-2199 -346,0 -643,201 -643,536zm7887 5042c1675,0 1696,-2049 546,-2423 -506,-164 -1084,-47 -1391,292 -820,906 -100,2131 845,2131z"/>
  <path class="fil0" d="M84155 39465c-341,-509 -687,-310 -1268,-142l-2166 571 -2007 -1211c-720,-472 -682,-344 -1909,-344 -660,0 -816,222 -1204,513l-1977 1457c-1220,909 -958,766 -288,2088 120,236 188,373 319,593 402,678 1218,437 1218,-253 0,-176 -202,-524 -286,-679l-358 -662c574,-303 1036,-823 1610,-1126l3 2685c-7,436 -700,1119 -1089,1594 -360,440 -685,728 -685,1139l0 3325c0,767 900,932 1191,333 174,-358 98,-2425 97,-2908 -2,-815 -68,-540 607,-1377l895 -1144 3467 1951c327,188 288,410 410,932 76,325 565,2508 701,2679 371,465 1110,119 1110,-305 0,-380 -343,-1692 -451,-2124 -97,-388 -287,-1715 -620,-1955 -240,-174 -547,-326 -810,-478 -278,-160 -538,-291 -825,-462 -288,-172 -545,-292 -826,-462 -271,-164 -542,-329 -814,-473l0 -3379 1719 1070c766,459 532,392 1629,78 196,-56 338,-82 515,-129l1008 -279c1267,-345 920,-295 1177,-755 77,-140 86,-113 412,-232l3358 -1148 0 -214c-275,-59 -660,142 -934,246l-1924 651c-342,120 -651,254 -1005,336zm-8423 -3164c0,281 -24,487 129,729 48,76 200,274 260,329 210,192 552,321 884,308 1295,-52 1582,-1481 862,-2160 -819,-771 -2135,-132 -2135,794z"/>
  <path class="fil0" d="M85194 26871c0,495 618,1125 1395,108l577 -658c139,-137 157,-170 274,-316 352,-441 1890,-1973 1996,-2350 93,-334 480,-1753 480,-1987l107 0c127,477 990,1118 1091,1752 36,224 36,620 36,930 0,347 35,2556 118,2779 244,657 1038,511 1194,-19 100,-342 -8,-744 -25,-1043 -19,-352 0,-769 2,-1128 2,-401 -56,-671 -55,-1125 1,-1248 -17,-978 -536,-1717 -322,-457 -653,-873 -966,-1340l643 -698c0,1243 243,1010 1087,1864 263,266 481,445 751,698 101,94 115,90 209,166 140,113 412,437 690,437 366,0 644,-264 644,-697 0,-355 -374,-522 -578,-710l-1371 -1258c-252,-223 -197,-1010 -197,-1412 0,-181 460,-988 590,-1233l2341 288c348,62 618,460 948,822 157,172 289,295 453,459 156,156 274,272 429,429 303,305 274,362 711,362 310,0 537,-262 537,-644 0,-365 -495,-736 -711,-952 -164,-164 -277,-270 -416,-443 -51,-64 -36,-49 -99,-115 -8,-8 -20,-18 -28,-26 -8,-8 -20,-18 -27,-26l-54 -53c-1165,-1211 -672,-934 -2605,-1205 -515,-73 -1000,-113 -1482,-181 -1219,-170 -885,-43 -1593,655l-804 912c-172,178 -254,240 -413,446l-583 650c-74,88 -131,136 -213,217 -170,168 -232,285 -402,456 -111,111 -303,337 -369,490 -77,178 -122,454 -175,630l-526 2048c-55,121 -257,360 -351,454l-403 456c-167,171 -242,296 -402,456l-1213 1361c-236,292 -706,692 -706,1011zm6707 -11961c0,1354 1928,1738 2432,554 247,-580 166,-956 -231,-1413 -193,-222 -447,-341 -713,-375l-323 0c-599,73 -1165,543 -1165,1234zm1824 9440c0,1225 1305,1694 2103,1030 521,-433 591,-1291 59,-1850 -723,-758 -2162,-253 -2162,820z"/>
  <path class="fil0" d="M40725 72411c0,491 -161,1610 590,1610 911,0 503,-966 859,-966l751 0 0 2789c0,187 -755,1588 -930,1914l-1019 1878c-124,221 -207,413 -322,643 -205,410 -304,356 -304,822 0,493 810,945 1235,109 162,-319 2286,-4429 2467,-4561 50,188 804,1230 988,1533 82,135 141,193 221,315l1269 1896c196,293 615,1083 1009,1083 455,0 740,-383 660,-765 -49,-238 -572,-933 -743,-1190 -71,-106 -73,-127 -146,-229l-1574 -2343c-1070,-1605 -664,-828 -663,-2337 0,-571 52,-933 52,-1503l1180 -54c414,0 865,38 1265,-23 913,-138 1901,283 1901,-728 0,-616 -816,-590 -1181,-590 -357,-1 -512,47 -803,56 -1525,45 -3675,-2 -5260,-2 0,-1121 -1079,-930 -1233,-267 -37,158 -37,347 -100,490 -65,148 -169,201 -169,420zm2093 -2360c0,1345 1445,1749 2188,1062 1001,-925 155,-2295 -794,-2295 -808,0 -1394,607 -1394,1233zm6867 2414c0,1557 31,1871 -489,3427 -443,1327 -1309,2152 -691,2152 327,0 1161,-2188 1288,-2628 365,-1258 420,-2856 184,-4154l-1043 -3678 -322 0c-63,271 -33,294 76,567 460,1155 997,3171 997,4314z"/>
  <path class="fil0" d="M92987 66774c0,636 297,886 697,1234 -1022,85 -614,1341 -693,2099 -43,404 -369,47 -1399,47l805 1502c-415,96 -983,257 -1344,427 -212,100 -299,75 -320,324 311,0 386,-68 591,-160 203,-92 367,-124 609,-197 2688,-803 5004,698 6243,453 1496,-296 2041,-365 3610,-365 718,0 1657,251 2262,475l689 276c205,0 20,17 161,-53 -71,-267 -294,-277 -690,-437 -1978,-801 -3757,-549 -5748,-206 -341,58 -613,53 -1020,53 279,-417 773,-771 1130,-1124 131,-129 84,28 104,-217 -990,0 -2339,-322 -3326,-322l53 -912c598,0 3169,80 3542,-107 439,-220 538,-1135 -375,-1182 -392,-20 -901,-94 -1289,-106 -876,-27 -1697,-161 -2629,-161 11,-7 29,-29 35,-19l108 -52c92,-40 105,-36 189,-80 1010,-527 877,-2423 -707,-2423 -768,0 -1288,678 -1288,1233zm5956 -5793c0,259 102,380 224,580 422,689 1068,1978 1210,2760 547,3011 -361,4741 -361,5779 0,823 1519,46 1752,-71 376,-190 773,-386 1075,-643 1484,-1266 1615,-2599 563,-4338l-547 -848c-97,-138 -190,-251 -305,-392 -564,-691 -934,-1196 -1613,-1875 -123,-122 -236,-221 -348,-349 -301,-341 -743,-1032 -1221,-1032 -260,0 -429,170 -429,429zm-8210 12176c229,191 1249,-590 2844,-590 1585,0 3166,751 4346,751l1381 -228c900,-177 1558,-147 2482,-147 698,0 1123,127 1663,268 130,34 271,62 384,100 151,51 187,86 336,146 362,145 550,269 729,183 -20,-237 -28,-188 -218,-265l-1183 -425c-1227,-398 -2874,-312 -4142,-131 -1297,186 -1233,394 -2591,49 -2167,-551 -3674,-916 -5802,35 -165,74 -207,52 -229,254zm-53 698l0 214c236,0 764,-226 1147,-354 1318,-442 2748,-226 4047,96 1550,385 1784,471 3341,156 1567,-317 3681,-247 5129,442 422,201 328,175 500,89 -70,-263 -276,-270 -651,-421 -1513,-608 -3171,-650 -4800,-415 -1057,152 -1390,406 -2522,118 -309,-78 -561,-128 -869,-203 -1812,-446 -3113,-638 -4940,124 -137,57 -220,116 -382,154z"/>
  <path class="fil0" d="M81911 58922c0,257 136,396 232,573l805 1662c376,752 725,1492 1109,2217 -594,0 -994,54 -1556,54 -354,-668 -1059,-2229 -1389,-2795 -290,-497 -811,-225 -811,113 0,311 90,342 197,554 210,416 1449,2889 1467,3093 135,1551 -529,766 1641,2221 251,168 1663,1159 1953,1159 297,0 558,-265 362,-630 -110,-206 -2370,-1592 -2765,-1848 -420,-272 -327,-163 -333,-419 422,0 2071,-45 2289,-179 195,-121 2299,-2325 2767,-2758 158,-146 953,-758 953,-925 0,-274 -145,-493 -389,-513 -336,-28 -993,714 -1269,947 -461,389 -739,703 -1172,1135 -239,240 -684,737 -925,899l-1603 -3226c-152,-332 -747,-1604 -973,-1714 -249,-122 -590,124 -590,380zm-9926 8368c0,454 358,429 537,429 109,0 658,-493 792,-602 268,-219 504,-414 771,-625 777,-615 797,-493 797,-1991 720,0 290,-389 1146,467 179,179 107,90 92,387 -40,766 -111,1432 -111,2203 0,210 200,376 429,376 608,0 463,-992 481,-1611 46,-1529 403,-1286 -467,-2158 -150,-151 -290,-214 -389,-362 109,-163 255,-245 417,-387 102,-89 137,-103 237,-192 142,-126 63,-120 258,-172l260 652c307,765 537,497 1563,-9 283,-139 967,-323 967,-696 0,-934 -1385,-72 -1824,161 -245,-511 -622,-1878 -966,-1878 -502,0 -539,304 -881,568l-1762 1618c-512,496 -184,699 -335,1703 -61,401 -64,349 -617,778 -134,104 -202,174 -352,292 -141,110 -258,198 -385,312 -131,116 -249,210 -384,314 -146,112 -274,170 -274,423zm5580 -6169c0,1221 1867,1203 1867,0 0,-1189 -1867,-1222 -1867,0zm2039 3541c0,1100 1275,1067 1619,653 605,-726 -50,-1565 -653,-1565 -499,0 -966,404 -966,912z"/>
  <path class="fil0" d="M122489 59775l-1051 559c-728,435 -935,331 -935,890 0,132 218,519 809,164l422 -222c258,-136 1449,-767 1570,-951 165,-253 97,-803 97,-1191l792 710c133,131 237,254 375,376 180,159 248,152 389,363 -298,157 -592,504 -881,728 -501,388 -462,383 -461,1202 1,531 29,1144 1,1664 -31,569 -213,1180 429,1180 506,0 429,-568 429,-1073 -1,-519 1,-1038 0,-1556 -3,-885 -55,-518 872,-1381 401,-374 407,-335 737,-335l137 1579c66,498 -52,391 715,1003 411,328 1695,1387 2099,1387 331,0 713,-614 63,-868 -466,-182 -1059,-749 -1488,-1086 -82,-64 -429,-346 -463,-396 -104,-150 -198,-1232 -205,-1512 -22,-908 -88,-666 -550,-1112 -258,-249 -2533,-2428 -2722,-2428 -458,0 -488,353 -858,912 -356,536 -322,541 -322,1394zm-5795 2897c0,334 718,1023 805,1394l-2202 -1c-559,56 -473,860 109,860l2898 0c259,0 482,-153 482,-430 0,-241 -134,-346 -243,-507 -142,-209 -250,-326 -293,-512l1556 54c0,1899 -271,1663 2092,1663 827,0 820,-912 54,-912l-1288 0 0 -697c0,-231 709,-641 552,-1083 -170,-479 -877,-255 -1410,-258 -590,-3 -1181,0 -1771,0 -543,0 -1341,-101 -1341,429zm4614 268c0,1242 1878,1202 1878,0 0,-1162 -1878,-1210 -1878,0zm-536 -4988c0,319 94,501 279,686 554,554 1511,205 1577,-597 37,-445 -303,-948 -837,-948l-268 0c-392,0 -751,450 -751,859z"/>
  <path class="fil0" d="M73777 13054c278,0 626,-219 836,-345 144,-85 232,-128 375,-215 161,-96 202,-145 399,-191l-99 1349c-151,1338 605,822 -1789,1967 -525,251 -1198,451 -1078,1041l689 2318c157,560 241,835 775,835 352,0 590,-334 590,-591 0,-313 -634,-1929 -644,-2360l1734 -841c153,-81 105,-68 282,-147 124,-56 191,-85 291,-138 134,89 188,164 308,282l2176 2009c141,117 184,132 320,269l938 833c215,218 1126,1005 1409,1005 695,0 913,-830 279,-1191 -261,-148 -2437,-2119 -2681,-2361 -155,-154 -269,-279 -427,-432l-865 -797c-221,-174 -327,-151 -335,-525l56 -1616c9,-539 258,-534 741,-975 385,-352 503,-745 54,-1102 -137,-109 -1546,-529 -1811,-607 -577,-168 -1427,724 -2147,917 -4,-187 -154,-656 -214,-805 -302,-749 -821,-422 -1020,-375 -179,-120 -1033,-1193 -1218,-1411l-1633 -1961c-226,-282 -223,-383 -637,-383 -162,0 -294,218 -335,366 -97,352 484,793 911,1204 146,140 231,175 378,320 138,136 236,238 374,376 129,129 219,222 348,350 153,151 252,195 405,346l1081 1065c217,218 31,47 175,576 100,369 231,707 342,1106 75,268 225,835 667,835zm2629 -4023c0,724 550,1287 1127,1287 422,0 826,-21 1107,-395 417,-553 464,-1177 -18,-1712 -407,-452 -1291,-549 -1802,-54 -198,191 -414,512 -414,874zm4293 3808c0,893 1448,996 1448,-53 0,-842 -1448,-912 -1448,53z"/>
  <path class="fil0" d="M53128 6566l-1325 -1196c-252,-210 -371,-498 -768,-498 -877,0 -571,985 -572,986 -4,32 -115,238 -152,304 -128,234 -231,392 -348,618 -211,409 -480,822 -698,1234 -2745,0 -2603,3862 -1288,3862 637,0 1210,-415 1504,-803 690,-914 832,-1840 160,-2845 368,-696 705,-1396 1073,-2092 130,35 471,354 603,470 454,400 1308,1461 1865,1461 446,0 1263,-1216 1609,-1448l1056 1948c129,233 276,408 339,681 -1013,678 -1856,1399 -2723,2266 -351,351 -1100,868 -602,1434 548,624 1201,-262 1461,-522 732,-732 1530,-1433 2390,-2009 159,-107 389,-294 601,-311l504 1963c90,359 150,628 224,1011 40,208 62,340 173,470 271,318 1084,334 1084,-440 0,-423 -136,-775 -210,-1131 -81,-394 -178,-746 -273,-1122 -182,-731 -404,-1441 -666,-2123 -256,-668 -530,-1336 -854,-1936l-1055 -1734c101,-150 212,-235 345,-407l1814 -1940c317,-314 631,-552 631,-979 0,-278 -332,-590 -590,-590 -410,0 -597,327 -792,549 -230,262 -420,405 -649,693l-2881 3073c-354,423 -705,677 -990,1103zm-1127 -3326c0,1605 1959,1731 2433,608 618,-1463 -1316,-2383 -2155,-1296 -43,56 -91,130 -129,193 -88,144 -149,277 -149,495zm-3863 -2950c0,1881 -115,1792 1307,1091 197,-97 222,-91 356,-233 -241,-456 -537,54 -912,54 -218,0 -419,-269 -429,-644 -5,-175 41,-399 -54,-495 -175,-175 -268,54 -268,227z"/>
  <path class="fil0" d="M88917 82881c0,607 45,987 548,1490 707,708 1305,550 1974,494 114,171 909,845 1113,1032 38,35 255,245 269,268 125,188 36,203 86,450 56,274 318,503 624,503 240,0 1186,-588 1502,-751 259,-135 463,-248 734,-393 249,-133 487,-350 822,-358l54 2951c0,118 -1049,1605 -1244,1920 -151,243 -273,409 -430,643 -333,497 -1653,2396 -1653,2639 0,550 714,1059 1300,173l3154 -4732 1950 1430c278,239 225,341 402,778l966 2413c352,992 1296,349 1296,-8 0,-354 -412,-1204 -543,-1602 -61,-185 -136,-360 -209,-543 -577,-1450 -370,-1597 -1363,-2285l-1254 -945c-167,-229 -119,-2403 -119,-2832 262,22 1285,957 1503,1127 251,196 488,394 744,597 450,356 758,769 1299,372 323,-236 286,-688 -70,-1011l-1298 -1062c-385,-300 -1504,-1310 -1856,-1310l-2843 0c-371,0 -584,195 -842,339l-2378 1270 -1448 -1341c0,-423 614,-1660 -1107,-2487 -379,-182 -1228,-350 -1522,181 -64,116 -161,407 -161,590zm7511 -429c0,712 601,1448 1288,1448l376 0c1116,0 1732,-1642 866,-2422 -629,-566 -1483,-570 -2076,-21 -215,199 -454,607 -454,995zm5419 6866c772,0 772,-1073 0,-1073 -665,0 -665,1073 0,1073z"/>
  <path class="fil0" d="M105769 32546c-181,-48 -417,-230 -590,-322 0,-441 19,-683 -180,-946 -358,-475 -1376,-473 -1376,142 0,697 471,965 1073,965 441,0 211,-142 634,117 434,266 283,-5 411,501 137,538 636,557 1118,365l1293 -477c262,-78 1134,-432 1373,-452l51 2040c4,301 55,374 59,695 4,329 48,401 -119,582 -118,128 -250,240 -380,371 -241,241 -475,503 -725,723 -881,776 -649,590 -1157,1686 -279,600 -895,1674 -895,2163 0,470 820,910 1217,91 126,-259 227,-467 348,-726 121,-259 228,-462 349,-723 634,-1368 180,-761 1292,-1873 1084,-1084 869,-1006 1677,-1006 124,0 2182,1542 2291,1732l1249 3472c139,357 334,535 531,589l275 0c267,-72 482,-342 482,-644 0,-230 -686,-1979 -836,-2382 -141,-378 -528,-1656 -704,-1870 -101,-123 -221,-208 -345,-300l-2246 -1670 -161 -3165c417,0 484,185 751,376l2071 1577c632,435 618,622 1202,622 290,0 469,-231 507,-509 42,-298 -116,-499 -307,-656l-2377 -1808c-288,-225 -921,-809 -1257,-835 -592,-46 -1454,11 -2024,-69 -773,-107 -1040,170 -1644,371l-2633 1015c-151,98 -164,149 -298,238zm2683 -3701c0,802 622,1502 1502,1502 1879,0 1944,-2830 -6,-2875 -931,-22 -1496,823 -1496,1373zm-1020 5418c0,374 537,374 537,0 0,-295 -537,-295 -537,0z"/>
 </g>
</svg>
