<?xml version="1.0" encoding="UTF-8"?>
<!DOCTYPE svg PUBLIC "-//W3C//DTD SVG 1.1//EN" "http://www.w3.org/Graphics/SVG/1.1/DTD/svg11.dtd">
<!-- Creator: CorelDRAW X7 -->
<svg xmlns="http://www.w3.org/2000/svg" xml:space="preserve" width="251.947mm" height="252.366mm" version="1.1" style="shape-rendering:geometricPrecision; text-rendering:geometricPrecision; image-rendering:optimizeQuality; fill-rule:evenodd; clip-rule:evenodd"
viewBox="0 0 72931 73053"
 xmlns:xlink="http://www.w3.org/1999/xlink">
 <defs>
  <style type="text/css">
   <![CDATA[
    .fil0 {fill:#CCCCCC}
   ]]>
  </style>
 </defs>
 <g id="Capa_x0020_1">
  <metadata id="CorelCorpID_0Corel-Layer"/>
  <g id="_287466080">
   <path class="fil0" d="M20979 41657l0 0zm0 0c88,-76 40,-54 78,-134 139,0 77,-2 156,56 48,36 83,45 169,45l0 11c-137,0 -272,22 -403,22zm67 -291c30,3 39,-21 67,101 -30,3 -30,5 -56,11 0,-43 2,-82 -11,-112zm-459 -548c0,67 54,174 73,240 20,67 58,187 84,241 -165,0 -391,5 -516,-6 -111,-9 -221,-72 -492,-72 -213,0 -366,49 -548,124 -40,16 -41,5 -46,55 41,19 20,13 56,1 66,-21 74,-42 197,-73 304,-75 436,-67 744,5 -11,39 -20,30 -34,89 -85,0 -207,-33 -425,-33 -117,0 -387,62 -501,125 -28,16 -33,14 -37,54 99,21 179,-123 650,-123 106,0 208,16 296,39 125,33 -23,47 248,89 103,15 185,37 285,50l255 47c3,1 6,2 9,3l15 7c-232,5 -141,101 -580,-14 -295,-77 -631,-152 -938,-49 -80,26 -224,63 -262,119 70,46 88,-20 253,-61 327,-81 444,-62 774,7 114,25 227,58 357,81 173,31 214,-7 373,-28 421,-57 608,-82 1030,58 60,20 97,55 169,55l0 -45c-42,-10 -98,-41 -144,-57 -183,-67 -327,-100 -539,-100l0 -22c206,0 162,-88 245,-89 93,0 426,134 427,134 43,0 4,3 33,-12 -13,-49 -33,-46 -81,-64 -42,-16 -71,-29 -112,-45 -48,-18 -187,-59 -243,-59 4,-52 21,-53 22,-111 27,13 79,18 116,29l213 79c47,26 55,37 85,-8 -28,-39 -131,-71 -187,-93 -39,-15 -69,-22 -113,-32 -198,-48 -49,-98 -199,-238 -204,-190 -500,-36 -520,195l-56 0c-19,-85 -102,-280 -123,-369 146,0 291,0 437,0 54,0 175,6 222,-2 152,-29 118,-255 -20,-255l-829 0c-64,0 -123,46 -123,134z"/>
   <path class="fil0" d="M15420 28274l47 -25 0 67 -47 -42zm1447 -428l0 112 -1377 0c-66,0 -168,68 -238,110 -82,50 -290,135 -135,285l280 258c31,26 73,55 81,98l2 338 -192 344c-58,113 -369,642 -369,705 0,138 146,176 227,93 23,-24 26,-42 42,-70l570 -1042c35,24 84,98 110,137l627 896c100,152 271,153 271,-48 0,-50 -81,-137 -123,-201l-273 -387c-48,-70 -88,-132 -138,-198 -49,-65 -86,-125 -134,-191 -25,-32 -50,-67 -70,-98 -49,-74 -46,-52 -46,-121 -1,-109 0,-217 0,-326 0,-122 -11,-214 -11,-324l862 0c29,0 157,-58 157,-101l0 -202c156,0 358,32 358,-56 0,-41 -28,-67 -56,-67l-369 0c-26,0 -56,30 -56,56zm-1411 -358c0,157 126,302 258,302l100 0c122,0 258,-148 258,-268 0,-113 -10,-161 -98,-250 -194,-196 -518,-35 -518,216z"/>
   <path class="fil0" d="M29380 35629c0,178 128,157 239,105l605 -268c52,-21 213,-102 253,-105 1,49 17,123 26,176 8,50 20,119 28,172 13,74 36,300 58,346l-282 154c-35,22 -66,35 -101,56l-571 325c-65,39 -124,73 -192,110 -69,38 -125,71 -194,109 -31,17 -64,35 -92,53 -126,83 -31,289 126,228 79,-31 147,-86 224,-125l1122 -635c42,-25 75,-41 115,-65 85,-50 62,-49 103,-76 33,142 48,304 77,449 62,310 -3,242 507,299l491 47c128,8 156,-58 156,-146 0,-156 -253,-120 -397,-140 -81,-12 -169,-20 -242,-27l-245 -23 -78 -449c-51,-255 -103,-636 -149,-902 -82,-469 -73,-416 -546,-205 -59,26 -123,50 -179,78 -61,31 -124,51 -187,82 -120,61 -244,106 -362,165 -27,13 -54,24 -86,36 -101,40 -227,84 -227,176zm-359 -515c0,329 391,392 529,226 114,-137 119,-284 1,-419 -100,-113 -303,-122 -426,-16 -40,34 -104,142 -104,209zm1120 -604c0,102 7,156 86,238 184,192 519,43 519,-182 0,-101 -7,-159 -83,-241 -161,-173 -522,-71 -522,185z"/>
   <path class="fil0" d="M25197 25059c0,101 55,134 146,134 86,0 162,-162 217,-253l186 -296c80,0 152,6 234,12 59,5 183,10 236,22l-279 415c-18,27 -21,33 -41,60 -19,25 -24,39 -39,62 -147,231 -125,126 -239,466 -34,104 -62,202 -100,303 -20,56 -15,35 -116,86 -86,43 -574,258 -604,302 -50,72 -34,209 119,209 42,0 314,-140 370,-168l373 -175c91,-52 120,-213 174,-364 13,-36 17,-65 30,-103 15,-41 26,-61 36,-99 26,-94 46,-120 92,-188l221 204c35,35 87,62 93,120 7,71 -5,143 6,218l17 632c17,148 176,156 235,80 16,-21 31,-52 33,-90l-12 -224c0,-167 -11,-293 -11,-459 1,-92 -11,-136 -11,-224 1,-102 -40,-120 -102,-177 -2,-2 -4,-4 -6,-6l-185 -173c-20,-18 -17,-14 -32,-35 11,-46 41,-76 65,-114 26,-40 45,-73 70,-110 31,-46 108,-188 145,-213 228,430 181,473 526,302l232 -115c85,-43 261,-87 261,-209 0,-66 -55,-123 -145,-123 -69,0 -468,229 -538,235l-228 -443c-31,-52 -49,-104 -114,-122l-856 -62c-78,0 -192,224 -251,320 -38,62 -208,305 -208,363zm1646 -694c197,0 313,-131 313,-325 0,-120 -135,-269 -257,-269 -99,0 -207,-1 -282,99 -42,56 -72,129 -69,210 7,159 134,285 295,285z"/>
   <path class="fil0" d="M35739 28709c0,96 66,127 145,190 28,22 33,36 68,45 -45,193 -191,570 -258,828l-58 188c-23,86 -143,423 -143,473 0,89 57,134 145,134 110,0 133,-139 159,-233l278 -909 884 1c67,5 576,24 644,4 105,-31 199,-264 -129,-262l-918 0c-78,0 -113,-11 -179,-11 0,-94 -19,-228 34,-302 60,-82 161,-137 179,-202 42,28 75,50 118,83 153,116 192,93 299,-35l180 -202c21,-25 43,-43 66,-67l95 -107c70,-126 -94,-294 -226,-137 -15,18 -8,9 -22,24 -12,13 -15,17 -26,29l-238 255c-39,-10 -368,-259 -425,-302 -206,-155 -217,-123 -450,189 -38,51 -76,99 -118,150 -30,37 -104,123 -104,176zm414 -918c0,263 273,360 452,272 35,-17 51,-40 78,-67 175,-181 56,-496 -239,-496 -160,0 -291,132 -291,291z"/>
   <path class="fil0" d="M4051 35174c0,81 24,146 134,146 92,0 159,-142 231,-251l195 -286 392 33c-11,40 -322,517 -381,605 -96,142 -93,260 -143,461 -14,54 -24,102 -36,155 -20,90 -16,70 -93,108l-547 259c-98,40 -222,85 -222,181 0,93 77,161 158,137l536 -249c365,-184 358,-110 421,-363 22,-87 38,-176 58,-255 12,-48 18,-75 30,-127 10,-46 25,-85 28,-128 35,9 38,28 59,53 22,24 37,39 58,65l172 175c25,26 97,104 103,133l-13 691c-5,48 -27,136 17,200 58,82 219,66 240,-66l14 -926c-17,-78 -277,-305 -336,-392l145 -247c33,-48 122,-209 157,-235 48,91 178,414 258,414 130,0 104,-21 235,-89 61,-32 109,-62 171,-97 62,-35 108,-63 172,-97 229,-121 103,-278 2,-281 -60,-2 -340,162 -410,208 -32,21 -45,39 -92,43l-246 -504c-64,-104 -267,-65 -466,-94 -107,-16 -179,-12 -261,-18l-257 -22c-95,8 -162,150 -227,245l-76 114c-40,67 -180,241 -180,301zm1366 -996c0,341 366,357 491,189 12,-17 15,-25 24,-43 146,-280 -215,-520 -434,-322 -35,32 -81,111 -81,176z"/>
   <path class="fil0" d="M6319 7744c0,90 57,134 145,134 64,0 537,-324 582,-324 28,0 282,201 325,212 -24,33 -613,379 -687,422 -124,73 -73,67 -171,276 -165,349 37,223 -655,454 -58,19 -114,38 -168,56 -49,16 -124,36 -165,59 -112,64 -69,244 66,244 49,0 619,-205 752,-243 49,-15 76,-28 125,-44l130 -37 198 -486c14,-32 13,-45 38,-63l93 343c14,41 29,79 30,127l-493 359c-77,57 -134,75 -134,179 0,24 54,203 240,72 161,-114 447,-344 598,-444 129,-85 47,-233 4,-392l-70 -266c85,-45 158,-89 242,-139l240 -141 22 526 817 0c103,0 124,-80 124,-157 0,-123 -155,-112 -280,-112 -135,1 -269,0 -403,0l-23 -582 -95 -61c-45,-29 -666,-476 -689,-476 -15,0 -164,92 -193,109l-294 176c-37,22 -64,34 -99,58 -62,40 -152,67 -152,161zm1668 11c0,104 3,146 86,227 181,176 451,11 451,-193 0,-222 -290,-344 -457,-189 -29,28 -80,105 -80,155z"/>
   <path class="fil0" d="M4676 24432l-504 -358c12,-52 30,-80 49,-129 21,-52 38,-85 56,-135 19,-55 35,-77 53,-126l267 -662c0,-84 -171,-262 -281,9l-427 1029c-27,67 -57,143 -87,204 -16,33 -78,181 -78,213l293 1274c45,145 255,106 255,-32 0,-76 -232,-1019 -268,-1175 41,11 130,80 172,108 31,20 50,32 80,54l168 111c34,25 54,37 87,60 30,21 50,30 81,53 36,26 46,39 106,39l1534 0c124,0 159,-196 36,-248 -47,-21 -134,-9 -193,-9l-1220 0c30,-131 330,-887 387,-1079l79 -224c26,-74 53,-137 78,-212 33,-96 71,-169 71,-254 0,-112 -159,-149 -226,-69 -27,32 -173,457 -194,511 -29,74 -51,140 -76,215l-262 723c-15,39 -27,68 -36,109zm-1355 -459c0,285 308,349 451,205 289,-291 -223,-660 -422,-309 -16,29 -29,63 -29,104z"/>
   <path class="fil0" d="M20601 10823c78,-53 154,-96 269,-112 344,-48 649,219 649,504 0,107 -4,210 -56,302l-86 115c-373,410 -989,78 -989,-317 0,-140 -8,-105 22,-235 59,43 204,443 256,506 75,92 262,39 226,-124 -7,-30 -10,-34 -23,-57l-78 -157c-33,-74 -63,-132 -97,-205 -19,-41 -30,-71 -48,-108 -19,-37 -39,-62 -45,-112zm-1389 347c69,0 168,-111 220,-150 65,-51 138,-139 206,-175 238,160 273,610 10,827 -510,421 -1143,-135 -903,-644 58,-122 165,-219 286,-274 176,-79 256,-43 338,-43 -11,43 -125,124 -165,159 -25,23 -36,26 -62,50 -129,122 -21,250 70,250zm247 -560c-98,-8 -64,-22 -235,-22 -266,0 -478,174 -587,399 -103,214 -75,468 63,661 182,254 494,355 819,243 151,-53 281,-176 356,-316 152,-285 66,-669 -159,-819 24,-101 11,-260 11,-370 0,-62 -11,-66 -11,-123l336 0c-155,232 -194,66 -128,464 33,197 27,488 184,488 203,0 119,-240 98,-400l-42 -261c0,-31 143,-168 168,-201 81,-107 115,-79 291,-79 -18,67 -336,416 -336,482 0,146 97,97 39,228 -221,501 195,968 632,956 283,-8 508,-167 617,-389 226,-458 -146,-963 -582,-963 -199,0 -134,5 -303,45l335 -439c38,-50 160,-178 75,-274 -13,-15 -26,-22 -48,-30 -80,-31 -356,-19 -462,-19l-941 -12c-69,-6 -181,-8 -191,113 -15,184 1,446 1,638zm-594 -783c0,365 538,352 538,0 0,-115 -111,-250 -270,-254 -135,-3 -268,117 -268,254z"/>
   <path class="fil0" d="M9630 15678c-122,0 -201,44 -201,190 0,30 23,76 37,97 23,32 53,47 88,59 43,13 61,13 105,-3 52,-19 55,-44 95,-51 81,-15 785,-12 906,-12 37,0 71,89 79,123 -152,0 -262,11 -415,11 -27,0 -235,-142 -302,146l-1142 0 0 56 1164 0c20,84 87,112 168,112 101,0 71,-57 257,-57 53,0 106,2 158,1 64,-1 77,-12 145,-12l56 168 -1948 0 0 56 1971 0c5,71 39,22 -59,121 -32,32 -63,81 -121,81l-1791 0c2,75 10,56 168,56l1601 0 -731 736 180 184 873 -867 -10 170c-7,93 -10,62 34,136l363 555c30,37 57,70 108,82 4,-40 18,-84 27,-130 9,-41 15,-102 52,-116 -4,-42 -26,-61 -45,-90l-163 -251c-20,-30 -34,-54 -52,-83 -108,-172 -48,-99 -43,-326l651 1c52,-3 45,-2 55,-46 -46,-26 -608,-11 -706,-11l12 -202 660 0c31,0 27,-8 34,-33 -23,-32 -9,-23 -66,-24 -29,0 -62,1 -91,1l-560 0c-36,-68 -64,-143 -101,-212 132,0 753,19 818,-12l-13 -44 -838 0c-3,-35 -86,-200 -116,-287 -20,-56 -35,-97 -54,-148 -18,-52 -30,-108 -54,-159 -75,0 -357,19 -411,37 -57,19 -284,7 -362,8 -65,1 -84,12 -156,12 -56,-1 -112,-1 -169,0 -133,1 -82,-23 -145,-23zm952 -101c425,0 338,-526 33,-526 -69,0 -150,34 -188,69 -189,180 -33,457 155,457z"/>
   <path class="fil0" d="M17630 1173c0,64 62,134 145,134 30,0 365,-177 422,-205l206 -108c47,-24 186,-98 223,-101 17,62 386,540 403,604 -56,0 -183,13 -228,-6l-168 -157c-96,-96 -137,-88 -270,-21 -49,25 -88,40 -136,65 -47,24 -84,36 -131,60 -35,17 -103,59 -142,59l-1187 0 0 258 1546 0c48,0 133,85 170,120 31,30 49,39 79,67 39,38 382,342 411,350l-11 213c0,37 184,183 213,190 55,-37 93,-89 137,-142 44,-52 113,-91 131,-160 -16,-25 -172,-157 -201,-157 -264,0 -155,76 -457,-193 -31,-28 -46,-35 -78,-67 -40,-41 -226,-188 -249,-221l1344 0 0 -258c-395,0 -286,59 -482,-235l-423 -640c-97,-159 -204,-64 -279,-28 -293,140 -597,307 -892,452 -46,22 -96,68 -96,127zm571 -929c0,87 12,147 80,210 154,144 445,58 450,-189 1,-65 -33,-146 -74,-187 -166,-167 -456,-45 -456,166z"/>
   <path class="fil0" d="M26808 9232c0,32 300,507 354,587 141,210 114,228 515,-10 58,-34 286,-180 351,-185 -25,111 -11,34 -10,156l-4 580c-6,24 -57,83 -78,111l-338 435 -734 419c-164,87 -76,258 22,258 108,0 316,-152 422,-206 69,-34 128,-71 192,-110 67,-41 232,-116 280,-168 22,-24 50,-62 69,-87l392 -515 482 403c-53,14 -192,180 -244,227 -117,103 -298,219 -204,355 103,151 258,-53 291,-78l333 -316c115,-116 241,-204 59,-345l-428 -344c-52,-42 -28,-140 -20,-294l22 -425c39,3 97,31 133,46 22,9 36,17 62,28 107,42 799,329 835,329 181,0 189,-191 61,-251 -48,-22 -93,-41 -143,-58l-861 -348c-120,-51 -190,-40 -355,-48 -49,-3 -41,-9 -90,-12 -32,-1 -68,2 -100,0 -169,-14 -89,-29 -299,82 -74,40 -345,209 -396,221l-285 -454c-12,-19 -11,-14 -23,-33 -50,-76 -40,-84 -151,-84 -68,0 -112,69 -112,134zm34 -470c0,107 5,179 108,261 222,177 564,-59 447,-335 -123,-293 -555,-178 -555,74zm1254 246c0,124 97,258 257,258 400,0 323,-515 45,-515 -113,0 -223,19 -280,156 -7,15 -22,80 -22,101z"/>
   <path class="fil0" d="M36573 14659c26,7 353,198 381,236 -46,38 -391,-63 -459,-79 13,-55 64,-103 78,-157zm-336 79c-127,-11 -481,-202 -481,-202 -43,0 -4,-3 -34,12 26,96 376,217 448,223 -26,39 -125,102 -170,132 -109,73 -143,93 -143,193 0,64 62,112 134,112 56,0 200,-116 249,-154 87,-65 169,-95 221,-193l370 90c-31,41 -173,88 -216,131 -111,109 25,227 107,324 23,27 39,48 61,73 105,120 176,255 283,255 54,0 202,-73 67,-246 -22,-29 -50,-63 -76,-92 -28,-33 -48,-57 -76,-92 -33,-43 -47,-49 -72,-96 42,-10 228,-112 261,-131 106,-59 71,-53 311,-4 96,19 625,118 682,90 -16,-59 -60,-39 -186,-60l-642 -108c34,-46 134,-43 134,-168 0,-95 -176,-170 -293,-244 -41,-26 -75,-46 -117,-74l-340 -208c-217,-132 -222,-23 -410,296l-72 141zm-380 -481c0,108 97,257 235,257l67 0c188,0 323,-267 166,-434 -156,-165 -468,-65 -468,177z"/>
   <path class="fil0" d="M44735 15509c0,93 56,134 146,134 31,0 191,-79 227,-97 78,-39 157,-67 232,-104l459 -213c37,71 80,133 119,206 219,401 198,198 42,672 -28,84 -54,159 -84,240 -45,123 -88,770 -88,919 0,86 93,123 166,100 132,-42 96,-282 115,-467 14,-135 31,-405 72,-510 37,-95 217,-606 218,-656 30,22 127,202 156,246l162 264c132,201 101,118 408,152l520 40c190,18 206,-252 30,-266 -88,-7 -157,-6 -246,-11 -162,-8 -287,-33 -482,-33l-241 -408c-19,-29 -25,-39 -43,-69l-376 -620 313 78c211,51 146,-5 232,172l126 276c70,140 68,224 202,224 56,0 155,-73 103,-192l-189 -416c-106,-248 -88,-253 -363,-309 -77,-16 -139,-33 -216,-53 -248,-62 -218,-77 -432,30 -31,15 -59,24 -94,40l-1056 489c-63,30 -138,52 -138,142zm1377 1545c0,289 345,332 461,192 96,-114 105,-250 2,-363 -164,-177 -463,-42 -463,171zm-615 -2552l0 67c0,117 118,235 235,235l56 0c280,0 344,-483 -6,-520 -158,-17 -285,125 -285,218z"/>
   <path class="fil0" d="M16570 20348l1389 0 -512 630c-52,60 -130,61 -211,47 -59,-10 -33,3 -62,-27 -11,-12 -23,-31 -41,-49l-330 -342c-1,-1 -3,-4 -5,-6l-35 -42c-64,-74 -148,-126 -193,-211zm-940 -426l0 750c0,153 197,124 324,124 192,0 146,-212 146,-448l190 0c-17,73 2,95 48,143l515 548c31,31 199,197 199,227l-12 492c-94,-63 -488,-324 -526,-324 -149,0 -146,125 -145,212 0,132 -12,225 -12,347 1,60 0,120 1,179 0,109 -46,326 25,400 59,62 197,59 226,-81l17 -688 272 176c162,95 105,113 345,93 133,-11 366,25 432,-27 77,-60 170,-174 239,-220l131 630c45,179 261,147 261,-3 0,-93 -33,-189 -52,-273l-58 -267c-12,-57 -73,-367 -92,-400 -104,-187 -311,70 -323,80 -69,55 -130,139 -203,177 0,-82 6,-189 -1,-268 -9,-117 -44,-227 8,-283 19,-20 14,-16 31,-37 23,-29 38,-46 61,-74l486 -588c22,-25 41,-48 61,-73 27,-35 26,-53 37,-98l190 0c0,453 -34,448 325,448 98,0 157,-59 157,-157l0 -661c0,-202 -147,-167 -336,-167 -93,0 -146,72 -146,134l0 324 -213 0c-49,0 -14,-44 -123,-44 -67,0 -59,44 -100,44l-1456 0c-64,0 -100,-11 -146,-11 -45,0 -81,11 -145,11l-168 0c0,-491 37,-458 -336,-458 -72,0 -134,41 -134,111zm1646 1053c349,0 354,-428 114,-506 -106,-34 -227,-10 -291,61 -171,189 -21,445 177,445z"/>
   <path class="fil0" d="M34463 20584c-71,-106 -144,-65 -265,-30l-452 119 -419 -252c-150,-99 -142,-72 -398,-72 -138,0 -171,46 -251,107l-413 304c-255,190 -200,160 -60,436 25,49 39,77 66,123 84,142 255,92 255,-52 0,-37 -43,-110 -60,-142l-75 -138c120,-63 216,-172 336,-235l1 560c-2,91 -146,234 -227,333 -75,92 -143,152 -143,237l0 694c0,161 188,195 248,70 37,-75 21,-506 20,-607 0,-170 -14,-113 127,-287l187 -239 723 407c69,39 60,86 86,195 16,67 118,523 146,559 78,97 232,24 232,-64 0,-79 -72,-353 -94,-443 -21,-81 -60,-358 -130,-408 -50,-36 -114,-68 -169,-100 -58,-33 -112,-61 -172,-96 -60,-36 -114,-61 -172,-97 -57,-34 -113,-68 -170,-99l0 -705 359 224c159,95 111,81 340,16 40,-12 70,-17 107,-27l210 -58c265,-72 192,-62 246,-158 16,-29 18,-23 86,-48l701 -240 0 -45c-58,-12 -138,30 -195,52l-402 136c-71,25 -136,53 -209,70zm-1758 -661c0,59 -5,102 27,153 10,16 41,57 54,68 44,41 115,67 185,65 270,-11 330,-309 179,-451 -170,-161 -445,-28 -445,165z"/>
   <path class="fil0" d="M36921 6547c0,103 129,235 291,22l121 -137c29,-28 33,-35 57,-66 73,-92 394,-412 416,-490 20,-70 101,-366 101,-415l22 0c27,100 207,234 228,366 7,47 7,129 7,194 0,72 7,533 25,580 51,137 216,106 249,-4 21,-72 -2,-155 -5,-218 -4,-73 0,-160 0,-235 0,-84 -12,-140 -11,-235 0,-260 -4,-204 -112,-358 -67,-96 -137,-183 -202,-280l134 -146c0,260 51,211 227,389 55,56 100,93 157,146 21,20 24,19 44,35 29,23 86,91 143,91 77,0 135,-55 135,-146 0,-74 -78,-109 -121,-148l-286 -262c-52,-47 -41,-211 -41,-295 0,-38 96,-206 123,-257l489 60c72,13 129,96 198,171 32,36 60,62 94,96 33,33 57,57 90,90 63,63 57,75 148,75 65,0 112,-54 112,-134 0,-76 -103,-154 -148,-199 -35,-34 -58,-56 -87,-92 -11,-14 -8,-11 -21,-24 -1,-2 -4,-4 -6,-6 -1,-1 -4,-3 -5,-5l-12 -11c-243,-253 -140,-195 -543,-252 -108,-15 -209,-23 -310,-37 -254,-36 -184,-9 -332,136l-168 191c-35,37 -53,50 -86,93l-122 135c-15,19 -27,29 -44,46 -35,35 -48,59 -84,95 -23,23 -63,70 -77,102 -16,37 -25,95 -36,131l-110 428c-12,25 -54,75 -73,95l-84 95c-35,36 -51,62 -84,95l-254 284c-49,61 -147,144 -147,211zm1400 -2496c0,283 402,363 507,115 52,-120 35,-199 -48,-294 -40,-47 -93,-72 -149,-79l-67 0c-125,16 -243,114 -243,258zm380 1970c0,256 273,353 439,215 109,-91 124,-270 13,-386 -151,-158 -452,-53 -452,171z"/>
   <path class="fil0" d="M21178 33736c0,103 -34,336 123,336 190,0 105,-201 179,-201l157 0 0 582c0,39 -158,331 -194,399l-213 392c-26,46 -43,86 -67,134 -43,86 -64,74 -64,172 0,103 169,197 258,22 34,-66 477,-924 515,-951 10,39 168,256 206,320 17,28 30,40 46,65l265 396c41,61 129,226 211,226 95,0 154,-80 138,-160 -11,-49 -120,-194 -156,-248 -14,-22 -15,-27 -30,-48l-328 -489c-224,-335 -139,-172 -139,-487 0,-120 11,-195 11,-314l246 -11c87,0 181,8 264,-5 191,-29 397,59 397,-152 0,-129 -170,-123 -247,-123 -74,0 -107,10 -167,11 -318,10 -767,0 -1098,0 0,-234 -225,-194 -257,-56 -8,33 -8,73 -21,103 -13,30 -35,42 -35,87zm436 -492c0,280 302,365 457,221 209,-193 32,-479 -165,-479 -169,0 -292,127 -292,258zm1434 504c0,324 6,390 -102,715 -93,277 -274,449 -145,449 69,0 242,-457 269,-549 76,-262 88,-596 38,-867l-217 -767 -67 0c-14,57 -7,61 16,118 95,241 208,662 208,901z"/>
   <path class="fil0" d="M37944 22105c0,133 62,185 145,258 -213,18 -128,280 -144,438 -9,84 -77,10 -292,10l168 313c-87,20 -205,54 -281,89 -44,21 -62,16 -66,68 64,0 80,-14 123,-34 42,-19 76,-26 127,-41 561,-167 1044,146 1303,95 312,-62 426,-76 753,-76 150,0 346,52 472,99l144 57c43,0 4,4 33,-11 -14,-55 -61,-58 -144,-91 -412,-167 -783,-114 -1199,-43 -71,12 -128,11 -213,11 58,-87 161,-161 236,-234 27,-27 17,6 22,-46 -207,0 -489,-67 -695,-67l12 -190c124,0 661,17 739,-22 91,-46 112,-237 -78,-247 -82,-4 -189,-20 -269,-22 -183,-6 -355,-34 -549,-34 2,-1 6,-6 7,-4l23 -11c19,-8 22,-7 39,-16 211,-110 183,-506 -147,-506 -161,0 -269,141 -269,257zm1243 -1209c0,55 21,80 47,121 87,144 222,413 252,576 114,629 -75,990 -75,1206 0,172 317,10 365,-15 79,-39 162,-80 225,-134 309,-264 337,-542 117,-905l-114 -177c-20,-29 -40,-52 -64,-82 -117,-144 -195,-249 -336,-391 -26,-25 -50,-46 -73,-73 -63,-71 -155,-215 -255,-215 -54,0 -89,35 -89,89zm-1713 2541c47,40 260,-123 593,-123 331,0 661,157 907,157l288 -48c188,-37 325,-30 518,-30 146,0 234,26 347,56 27,7 57,13 80,20 32,11 39,18 70,31 76,30 115,56 152,38 -4,-49 -5,-39 -45,-55l-247 -89c-256,-83 -600,-65 -864,-27 -271,39 -258,82 -541,10 -452,-115 -767,-191 -1211,7 -34,16 -43,11 -47,53zm-12 146l0 45c50,0 160,-48 240,-74 275,-93 573,-47 844,20 324,80 373,98 698,32 327,-66 768,-51 1070,93 88,42 68,36 104,18 -14,-55 -57,-56 -136,-88 -315,-127 -661,-135 -1001,-86 -221,31 -290,84 -527,24 -64,-16 -117,-26 -181,-42 -378,-93 -650,-133 -1031,26 -29,12 -46,24 -80,32z"/>
   <path class="fil0" d="M26720 16855c0,53 29,82 49,119l168 347c78,157 151,311 231,463 -124,0 -207,11 -325,11 -73,-140 -221,-465 -290,-583 -60,-104 -169,-47 -169,23 0,65 19,72 41,116 44,87 303,603 306,645 29,324 -110,160 343,464 52,35 347,242 408,242 61,0 116,-56 75,-132 -23,-43 -495,-332 -577,-386 -88,-56 -68,-33 -69,-87 88,0 432,-9 477,-37 41,-26 480,-485 578,-576 33,-30 199,-158 199,-193 0,-57 -31,-103 -82,-107 -70,-6 -207,149 -265,198 -96,81 -154,146 -244,237 -50,50 -143,153 -193,187l-335 -673c-31,-69 -156,-335 -203,-358 -52,-25 -123,26 -123,80zm-2071 1746c0,95 74,89 112,89 23,0 137,-103 165,-125 56,-46 105,-87 161,-131 162,-128 166,-102 166,-415 151,0 61,-81 240,97 37,38 22,19 19,81 -9,160 -23,299 -23,460 0,44 41,78 89,78 127,0 97,-207 101,-336 9,-319 84,-268 -98,-450 -31,-32 -61,-45 -81,-76 23,-34 53,-51 87,-81 21,-18 28,-21 49,-40 30,-26 13,-25 54,-35l54 136c64,159 112,103 327,-2 59,-29 201,-68 201,-146 0,-195 -289,-15 -380,34 -51,-107 -130,-392 -202,-392 -105,0 -112,63 -184,119l-367 337c-107,104 -39,146 -70,356 -13,83 -14,72 -129,162 -28,22 -42,36 -74,61 -29,23 -53,41 -80,65 -27,24 -52,44 -80,66 -30,23 -57,35 -57,88zm1164 -1287c0,254 390,251 390,0 0,-249 -390,-255 -390,0zm426 738c0,230 266,223 338,137 126,-152 -11,-327 -137,-327 -104,0 -201,84 -201,190z"/>
   <path class="fil0" d="M43905 31346l-219 117c-152,91 -196,69 -196,186 0,27 46,108 169,34l88 -46c54,-29 303,-160 328,-199 34,-53 20,-167 20,-248l165 148c28,27 50,53 79,78 37,33 51,32 81,76 -62,33 -124,105 -184,152 -105,81 -96,80 -96,251 0,111 6,238 0,347 -7,119 -45,246 89,246 106,0 90,-118 90,-224 0,-108 0,-216 0,-324 -1,-185 -11,-108 182,-289 84,-77 85,-70 154,-70l28 330c14,104 -11,82 150,209 85,69 353,290 438,290 69,0 148,-128 13,-181 -98,-38 -221,-157 -311,-227 -17,-13 -89,-72 -96,-83 -22,-31 -42,-257 -43,-315 -5,-189 -18,-139 -115,-232 -54,-52 -528,-507 -568,-507 -96,0 -102,74 -179,190 -74,112 -67,113 -67,291zm-1210 605c0,70 150,213 168,291l-459 0c-117,11 -99,179 23,179l604 0c55,0 101,-32 101,-90 0,-50 -28,-72 -51,-105 -29,-44 -52,-69 -61,-107l325 11c0,396 -57,347 437,347 172,0 171,-190 11,-190l-269 0 0 -146c0,-48 148,-133 115,-226 -35,-100 -183,-53 -294,-54 -123,0 -246,0 -370,0 -113,0 -280,-21 -280,90zm963 56c0,259 392,251 392,0 0,-243 -392,-253 -392,0zm-112 -1041c0,66 20,105 59,143 115,116 315,43 329,-124 7,-93 -63,-198 -175,-198l-56 0c-82,0 -157,94 -157,179z"/>
   <path class="fil0" d="M46596 5183c58,0 130,-46 174,-72 30,-18 49,-27 79,-45 33,-20 42,-30 83,-40l-21 282c-31,279 126,171 -373,410 -110,52 -250,94 -225,217l144 484c32,117 50,174 161,174 74,0 123,-69 123,-123 0,-65 -132,-403 -134,-492l362 -176c32,-17 22,-14 59,-31 25,-11 40,-18 60,-29 28,19 40,35 65,59l454 419c29,25 38,28 67,57l195 174c45,45 235,209 294,209 145,0 191,-173 59,-248 -55,-31 -509,-443 -560,-493 -32,-32 -56,-58 -89,-90l-181 -167c-46,-36 -68,-31 -69,-109l11 -337c2,-113 54,-112 155,-204 80,-73 105,-155 11,-230 -28,-22 -322,-110 -378,-126 -120,-35 -298,151 -448,191 -1,-39 -32,-137 -45,-168 -63,-156 -171,-88 -212,-78 -38,-25 -216,-249 -255,-295l-340 -409c-47,-59 -47,-80 -133,-80 -34,0 -62,46 -70,77 -20,73 101,165 190,251 30,29 48,36 79,67 29,28 49,49 78,78 27,27 46,46 73,73 31,32 52,41 84,72l226 223c45,45 6,9 36,120 21,77 48,147 72,231 15,55 46,174 139,174zm548 -840c0,151 115,269 236,269 88,0 172,-5 231,-83 86,-115 96,-245 -4,-357 -85,-94 -270,-114 -376,-11 -42,40 -87,107 -87,182zm896 795c0,186 302,208 302,-11 0,-176 -302,-190 -302,11z"/>
   <path class="fil0" d="M29021 3464l-276 -250c-53,-43 -78,-103 -160,-103 -183,0 -120,205 -120,205 0,7 -24,50 -31,64 -27,49 -49,82 -73,129 -44,85 -100,171 -146,257 -572,0 -543,806 -268,806 132,0 252,-86 313,-168 144,-190 174,-384 34,-593 77,-145 147,-292 224,-437 27,8 98,74 126,98 94,84 272,305 389,305 93,0 263,-254 336,-302l220 407c27,48 57,85 71,142 -212,141 -388,292 -569,473 -73,73 -229,181 -125,299 114,130 250,-55 305,-109 152,-153 319,-299 498,-419 34,-23 82,-62 126,-65l105 409c19,75 31,131 47,211 8,44 13,71 36,98 56,67 226,70 226,-91 0,-89 -28,-162 -44,-236 -17,-83 -37,-156 -57,-235 -38,-152 -84,-300 -139,-443 -53,-139 -110,-278 -178,-404l-220 -361c21,-32 44,-50 72,-85l378 -405c67,-66 132,-115 132,-204 0,-59 -69,-124 -123,-124 -86,0 -125,69 -165,115 -48,55 -88,85 -136,145l-601 641c-74,88 -147,141 -207,230zm-235 -694c0,335 409,361 508,127 129,-306 -275,-498 -450,-271 -9,12 -19,28 -27,41 -18,30 -31,57 -31,103zm-806 -616c0,393 -24,374 273,228 41,-20 46,-19 74,-49 -50,-95 -112,12 -190,12 -46,0 -88,-56 -90,-135 -1,-36 9,-83 -11,-103 -36,-37 -56,11 -56,47z"/>
   <path class="fil0" d="M38619 38467c0,126 9,206 114,311 148,147 272,114 412,103 24,35 190,176 232,215 8,7 53,51 57,56 26,39 7,42 18,94 11,57 66,105 130,105 50,0 247,-123 313,-157 54,-28 97,-52 153,-82 52,-28 102,-73 172,-74l11 615c0,25 -219,335 -260,401 -31,51 -57,85 -89,134 -70,104 -345,500 -345,551 0,115 149,221 271,36l658 -988 407 299c58,50 47,71 84,162l202 504c73,207 270,73 270,-2 0,-74 -86,-251 -113,-334 -13,-39 -29,-75 -44,-114 -120,-302 -77,-333 -284,-476l-262 -198c-35,-47 -25,-501 -25,-590 55,4 268,199 314,235 52,40 102,82 155,124 94,74 158,161 271,78 68,-50 60,-144 -14,-211l-271 -222c-81,-62 -314,-273 -387,-273l-594 0c-77,0 -122,41 -175,71l-497 265 -302 -280c0,-88 128,-347 -231,-519 -79,-38 -256,-73 -318,38 -13,24 -33,85 -33,123zm1567 -90c0,149 126,302 269,302l78 0c233,0 362,-342 181,-505 -131,-118 -309,-119 -433,-4 -45,41 -95,126 -95,207zm1131 1433c161,0 161,-224 0,-224 -139,0 -139,224 0,224z"/>
   <path class="fil0" d="M53479 16664c-38,-10 -87,-48 -123,-67 0,-92 4,-143 -38,-198 -74,-99 -287,-99 -287,30 0,145 99,201 224,201 92,0 44,-29 132,25 91,55 59,-1 86,104 29,113 133,116 234,76l269 -99c55,-16 237,-90 287,-95l11 426c0,63 11,78 12,145 1,69 10,84 -25,122 -25,26 -52,50 -79,77 -51,50 -99,105 -152,151 -183,162 -135,123 -241,352 -58,125 -187,349 -187,451 0,98 171,190 254,19 26,-54 47,-97 73,-151 25,-54 47,-97 73,-151 132,-286 37,-159 269,-391 226,-226 182,-210 350,-210 26,0 455,322 478,361l261 725c29,75 70,112 111,123l57 0c56,-15 101,-71 101,-134 0,-48 -143,-413 -175,-498 -29,-78 -110,-345 -147,-390 -21,-26 -46,-43 -72,-62l-468 -349 -34 -660c87,0 101,38 157,78l432 329c132,91 129,130 251,130 60,0 98,-48 106,-106 8,-63 -25,-104 -65,-137l-496 -377c-60,-47 -192,-169 -262,-175 -124,-9 -303,3 -422,-14 -162,-22 -217,35 -343,77l-550 212c-31,20 -34,31 -62,50zm560 -773c0,168 130,314 313,314 393,0 406,-591 -1,-600 -194,-5 -312,172 -312,286zm-213 1131c0,78 112,78 112,0 0,-62 -112,-62 -112,0z"/>
   <path class="fil0" d="M19818 65165c0,178 128,157 239,105l606 -268c52,-22 212,-102 252,-105 1,49 17,123 26,176 8,50 20,119 29,172 12,74 36,300 57,346l-282 154c-35,22 -65,35 -101,56l-571 325c-65,39 -123,73 -192,110 -69,38 -124,71 -193,108 -32,18 -64,36 -92,54 -127,83 -31,289 126,227 78,-31 146,-85 223,-124l1122 -635c42,-25 75,-41 115,-65 85,-51 62,-49 103,-76 33,142 48,304 77,449 62,310 -3,242 507,299l491 47c129,8 156,-58 156,-146 0,-156 -252,-120 -396,-141 -81,-11 -170,-19 -243,-26l-245 -23 -78 -449c-51,-255 -103,-636 -149,-903 -82,-468 -73,-415 -546,-204 -59,26 -122,50 -179,78 -61,31 -123,50 -186,82 -120,61 -245,106 -362,165 -27,13 -54,24 -87,36 -101,40 -227,84 -227,176zm-358 -515c0,329 390,391 528,226 115,-137 119,-284 1,-419 -99,-113 -302,-122 -426,-16 -40,34 -103,142 -103,209zm1119 -604c0,102 8,156 87,238 183,192 518,43 518,-182 0,-101 -7,-159 -83,-242 -161,-172 -522,-70 -522,186z"/>
   <path class="fil0" d="M42296 71195c0,95 67,127 146,190 27,22 32,35 67,45 -45,193 -191,569 -257,828l-59 188c-23,86 -143,423 -143,472 0,89 57,135 145,135 110,0 134,-140 160,-233l277 -909 884 0c67,6 576,25 644,5 105,-31 199,-265 -128,-263l-919 1c-77,0 -112,-12 -179,-12 0,-93 -19,-227 35,-301 59,-82 161,-137 178,-202 42,28 75,50 119,83 153,116 191,92 299,-35l179 -202c21,-25 43,-44 67,-67l94 -107c70,-127 -94,-294 -226,-137 -15,17 -8,9 -21,24 -12,13 -15,17 -27,29l-237 255c-40,-11 -369,-259 -426,-302 -206,-155 -217,-123 -449,188 -39,52 -77,100 -119,151 -30,37 -104,123 -104,176zm414 -918c0,263 274,360 452,272 36,-18 52,-41 78,-68 176,-180 56,-495 -238,-495 -161,0 -292,132 -292,291z"/>
   <path class="fil0" d="M33365 51718c0,31 300,506 354,586 142,210 114,228 515,-9 58,-34 286,-180 352,-185 -26,111 -12,33 -11,156l-3 579c-7,25 -58,84 -79,112l-337 435 -735 419c-164,87 -76,257 23,257 107,0 316,-151 421,-205 69,-35 128,-72 192,-110 68,-41 232,-116 280,-168 23,-25 50,-62 70,-87l392 -515 481 403c-53,14 -191,180 -244,226 -117,104 -298,220 -204,356 104,151 258,-53 291,-79l333 -316c115,-116 242,-204 59,-344l-428 -345c-52,-42 -28,-140 -20,-293l23 -425c38,3 97,31 133,46 21,9 36,17 62,27 106,43 798,329 835,329 180,0 188,-190 60,-250 -48,-22 -92,-41 -143,-59l-861 -348c-120,-51 -189,-39 -355,-48 -49,-2 -41,-8 -90,-11 -32,-2 -67,2 -100,-1 -168,-13 -89,-29 -299,83 -74,40 -345,208 -396,220l-285 -454c-12,-18 -11,-14 -23,-32 -50,-76 -40,-85 -151,-85 -67,0 -112,69 -112,135zm34 -470c0,107 5,179 108,261 223,177 564,-59 448,-336 -123,-292 -556,-178 -556,75zm1254 246c0,123 98,257 258,257 399,0 323,-515 44,-515 -113,0 -222,19 -280,157 -6,15 -22,80 -22,101z"/>
   <path class="fil0" d="M43131 57145c26,6 352,197 380,235 -46,38 -390,-62 -459,-78 13,-56 64,-103 79,-157zm-336 79c-128,-11 -481,-202 -482,-202 -43,0 -4,-3 -33,11 25,97 375,218 447,224 -26,39 -125,102 -170,132 -109,73 -143,93 -143,193 0,63 62,112 134,112 57,0 200,-117 250,-154 87,-65 169,-95 221,-193l369 89c-30,42 -173,89 -216,131 -111,110 26,227 108,325 22,26 39,47 61,73 104,120 175,255 282,255 55,0 202,-73 68,-247 -23,-28 -51,-62 -77,-92 -28,-32 -48,-56 -76,-91 -33,-43 -47,-49 -72,-96 42,-10 228,-112 262,-131 105,-60 70,-53 310,-5 96,20 625,118 682,91 -15,-59 -60,-40 -185,-61l-643 -107c34,-47 134,-44 134,-168 0,-96 -175,-170 -293,-244 -41,-26 -75,-46 -116,-74l-340 -209c-218,-131 -223,-22 -410,297l-72 141zm-381 -482c0,109 98,258 235,258l67 0c188,0 324,-267 166,-435 -155,-164 -468,-64 -468,177z"/>
   <path class="fil0" d="M51293 57995c0,92 55,134 145,134 31,0 192,-79 228,-97 77,-39 157,-67 231,-104l459 -213c37,70 80,133 120,205 219,402 198,199 41,672 -28,85 -54,160 -84,241 -45,123 -88,770 -88,919 0,85 93,123 166,100 132,-42 96,-282 116,-468 14,-134 30,-405 72,-510 37,-94 216,-605 217,-655 31,22 128,202 157,246l161 264c132,201 101,118 408,152l520 40c190,18 207,-252 31,-266 -89,-7 -158,-7 -247,-11 -162,-8 -287,-34 -481,-34l-242 -407c-19,-29 -25,-40 -43,-69l-376 -621 313 79c211,51 146,-6 232,172l127 276c70,140 67,223 201,223 57,0 156,-72 103,-192l-189 -415c-106,-249 -88,-254 -362,-310 -77,-15 -139,-33 -217,-52 -248,-62 -217,-77 -432,29 -31,16 -59,24 -93,41l-1056 489c-64,30 -138,52 -138,142zm1377 1544c0,290 344,333 461,193 95,-114 105,-251 1,-364 -163,-176 -462,-42 -462,171zm-616 -2552l0 67c0,118 118,236 235,236l56 0c281,0 344,-483 -6,-521 -158,-17 -285,126 -285,218z"/>
   <path class="fil0" d="M15331 44923c-71,-107 -143,-65 -265,-30l-452 119 -418 -253c-151,-98 -143,-71 -399,-71 -138,0 -170,46 -251,107l-413 304c-254,189 -200,159 -60,435 25,50 39,78 67,124 84,142 254,91 254,-53 0,-36 -42,-109 -60,-141l-74 -138c119,-64 216,-172 335,-235l1 560c-1,91 -146,233 -227,332 -75,92 -143,153 -143,238l0 694c0,160 188,195 249,70 36,-75 20,-507 20,-607 -1,-170 -15,-113 126,-288l187 -238 724 407c68,39 60,85 85,194 16,68 118,524 147,559 77,97 231,25 231,-63 0,-80 -71,-353 -94,-444 -20,-81 -60,-357 -129,-408 -50,-36 -115,-68 -169,-99 -58,-34 -113,-61 -172,-97 -61,-36 -114,-61 -173,-96 -56,-34 -113,-69 -170,-99l0 -705 359 223c160,96 111,82 340,17 41,-12 70,-18 107,-27l211 -59c264,-72 192,-61 245,-157 16,-29 18,-24 86,-48l701 -240 0 -45c-57,-12 -138,30 -195,52l-401 135c-72,25 -136,53 -210,71zm-1758 -661c0,59 -5,102 27,152 10,16 42,58 54,69 44,40 116,67 185,64 270,-10 330,-309 180,-450 -171,-161 -446,-28 -446,165z"/>
   <path class="fil0" d="M43479 49033c0,103 129,234 291,22l120 -137c29,-29 33,-36 57,-66 74,-92 395,-412 417,-490 19,-70 100,-366 100,-415l22 0c27,99 207,233 228,366 7,46 7,129 7,194 0,72 8,533 25,579 51,138 217,107 249,-3 21,-72 -2,-156 -5,-218 -4,-74 0,-161 0,-236 1,-83 -11,-140 -11,-234 0,-261 -4,-204 -112,-359 -67,-95 -136,-182 -202,-279l135 -146c0,260 50,211 227,389 54,56 100,93 156,146 21,19 24,19 44,34 29,24 86,92 144,92 76,0 134,-56 134,-146 0,-74 -78,-109 -120,-148l-286 -263c-53,-46 -42,-210 -42,-294 0,-38 96,-206 123,-258l489 61c73,13 129,96 198,171 33,36 60,62 94,96 33,32 58,57 90,89 63,64 57,76 148,76 65,0 112,-55 112,-134 0,-76 -103,-154 -148,-199 -34,-34 -58,-56 -87,-92 -10,-14 -7,-11 -20,-24 -2,-2 -5,-4 -6,-6 -2,-2 -4,-4 -6,-5l-11 -12c-243,-252 -140,-194 -544,-251 -107,-15 -209,-24 -309,-38 -255,-35 -185,-9 -332,137l-168 190c-36,37 -53,50 -86,93l-122 136c-16,18 -28,28 -45,45 -35,35 -48,60 -84,95 -23,24 -63,71 -76,103 -17,37 -26,94 -37,131l-110 427c-11,26 -53,76 -73,95l-84 95c-35,36 -51,62 -84,96l-253 284c-49,61 -147,144 -147,211zm1399 -2496c0,282 402,362 508,115 51,-121 34,-199 -49,-295 -40,-46 -93,-71 -148,-78l-68 0c-125,15 -243,113 -243,258zm381 1970c0,255 272,353 439,215 108,-91 123,-270 12,-387 -151,-158 -451,-52 -451,172z"/>
   <path class="fil0" d="M44501 64591c0,133 62,185 146,258 -214,17 -129,279 -145,438 -9,84 -77,9 -292,9l168 314c-87,20 -205,53 -280,89 -45,21 -63,15 -67,67 65,0 80,-14 123,-33 43,-19 77,-26 127,-41 561,-168 1044,146 1303,94 312,-61 426,-76 753,-76 150,0 346,53 472,99l144 58c43,0 4,4 34,-11 -15,-56 -62,-58 -144,-91 -413,-167 -784,-115 -1200,-43 -71,12 -128,11 -213,11 59,-87 162,-161 236,-235 28,-27 18,6 22,-45 -207,0 -488,-67 -694,-67l11 -190c125,0 661,16 739,-23 92,-46 112,-237 -78,-246 -82,-5 -188,-20 -269,-22 -183,-6 -354,-34 -549,-34 2,-2 6,-6 7,-4l23 -11c19,-8 22,-8 39,-17 211,-110 184,-505 -147,-505 -160,0 -269,141 -269,257zm1243 -1209c0,54 21,79 47,121 88,144 223,413 252,576 114,628 -75,989 -75,1206 0,172 317,10 366,-15 78,-39 161,-80 224,-134 310,-264 337,-542 117,-905l-114 -177c-20,-29 -39,-53 -63,-82 -118,-144 -195,-250 -337,-391 -26,-26 -49,-46 -73,-73 -62,-71 -155,-215 -254,-215 -55,0 -90,35 -90,89zm-1713 2541c48,40 260,-123 593,-123 331,0 661,157 907,157l288 -48c188,-37 326,-31 518,-31 146,0 235,27 347,56 28,7 57,13 80,21 32,11 40,18 71,31 75,30 114,56 152,38 -4,-50 -6,-39 -46,-55l-247 -89c-256,-83 -599,-65 -864,-28 -271,39 -257,83 -541,11 -452,-115 -766,-191 -1210,7 -35,15 -44,11 -48,53zm-11 146l0 44c49,0 159,-47 239,-74 275,-92 574,-47 845,21 323,80 372,98 697,32 327,-66 768,-51 1070,92 88,42 69,37 105,19 -15,-55 -58,-57 -136,-88 -316,-127 -662,-136 -1002,-87 -221,32 -290,85 -526,25 -65,-16 -117,-27 -182,-42 -378,-94 -649,-133 -1031,25 -28,12 -46,25 -79,33z"/>
   <path class="fil0" d="M53474 68199l-219 117c-152,90 -195,69 -195,185 0,28 45,109 168,35l88 -47c54,-28 303,-160 328,-198 35,-53 20,-168 20,-249l166 148c27,28 49,54 78,79 38,33 52,32 81,76 -62,33 -124,105 -184,152 -104,81 -96,80 -96,251 0,110 6,238 0,347 -6,118 -44,246 90,246 105,0 89,-119 89,-224 0,-108 1,-216 0,-325 0,-184 -11,-108 182,-288 84,-78 85,-70 154,-70l29 330c13,104 -11,81 149,209 86,69 354,289 438,289 69,0 149,-128 13,-181 -97,-38 -221,-156 -311,-226 -17,-14 -89,-72 -96,-83 -22,-31 -41,-257 -43,-315 -4,-190 -18,-139 -115,-232 -54,-53 -528,-507 -568,-507 -95,0 -101,73 -179,190 -74,112 -67,113 -67,291zm-1209 605c0,69 150,213 168,291l-460 -1c-116,12 -98,180 23,180l605 0c54,0 100,-32 100,-90 0,-50 -28,-72 -50,-106 -30,-43 -53,-68 -62,-107l325 12c0,396 -56,347 437,347 172,0 171,-191 11,-191l-269 0 0 -145c0,-48 148,-134 115,-226 -35,-100 -183,-53 -294,-54 -123,-1 -246,0 -369,0 -114,0 -280,-21 -280,90zm963 56c0,259 392,250 392,0 0,-243 -392,-253 -392,0zm-112 -1041c0,66 19,104 58,143 116,115 315,43 329,-125 8,-93 -63,-198 -175,-198l-56 0c-81,0 -156,94 -156,180z"/>
   <path class="fil0" d="M53744 48781c58,0 130,-46 174,-72 30,-18 48,-27 78,-45 34,-20 42,-30 84,-40l-21 281c-32,280 126,172 -373,411 -110,52 -250,94 -225,217l143 484c33,117 51,174 162,174 73,0 123,-69 123,-123 0,-66 -132,-403 -134,-493l362 -175c31,-17 22,-14 59,-31 25,-11 39,-18 60,-29 28,19 39,35 65,59l454 419c29,25 38,28 66,57l196 173c45,46 235,210 294,210 145,0 191,-173 58,-248 -54,-31 -508,-443 -559,-493 -33,-32 -56,-58 -89,-90l-181 -167c-46,-36 -68,-31 -70,-109l12 -337c2,-113 54,-112 155,-204 80,-73 105,-155 11,-230 -29,-23 -323,-110 -378,-126 -120,-36 -298,151 -448,191 -1,-39 -32,-137 -45,-168 -63,-156 -171,-88 -213,-78 -37,-25 -215,-249 -254,-295l-341 -409c-47,-59 -46,-80 -132,-80 -34,0 -62,46 -70,76 -21,74 101,166 190,252 30,29 48,36 79,66 28,29 49,50 78,79 27,27 45,46 72,73 32,31 53,41 85,72l225 222c46,46 7,10 37,121 21,77 48,147 71,230 16,56 47,175 140,175zm548 -840c0,151 115,269 235,269 88,0 173,-5 231,-83 87,-115 97,-245 -3,-357 -85,-94 -270,-115 -377,-11 -41,40 -86,107 -86,182zm896 795c0,186 302,208 302,-11 0,-176 -302,-190 -302,11z"/>
   <path class="fil0" d="M55791 63451c-38,-10 -87,-48 -123,-67 0,-92 4,-142 -38,-197 -74,-99 -287,-99 -287,29 0,146 99,202 224,202 92,0 44,-30 132,24 91,56 60,-1 86,105 29,112 133,116 234,76l269 -100c55,-16 237,-90 287,-94l11 426c0,63 11,78 12,145 1,68 10,83 -25,121 -25,27 -52,50 -79,78 -51,50 -99,105 -152,151 -183,161 -135,123 -241,351 -58,126 -187,350 -187,452 0,98 171,190 254,19 27,-54 48,-98 73,-152 25,-54 47,-96 73,-151 132,-285 37,-159 269,-391 226,-226 182,-209 350,-209 26,0 456,321 478,361l261 724c29,75 70,112 111,123l57 0c56,-15 101,-71 101,-134 0,-48 -143,-413 -175,-497 -29,-79 -110,-346 -147,-390 -21,-26 -46,-44 -72,-63l-468 -348 -34 -661c87,0 101,39 157,79l432 329c132,91 129,130 251,130 60,0 98,-49 106,-107 8,-62 -25,-104 -65,-137l-495 -377c-61,-47 -193,-169 -263,-174 -123,-10 -303,2 -422,-14 -161,-23 -217,35 -343,77l-550 212c-31,20 -34,31 -62,49zm560 -772c0,167 130,313 313,313 393,0 406,-590 -1,-600 -194,-4 -312,172 -312,287zm-213 1131c0,78 112,78 112,0 0,-62 -112,-62 -112,0z"/>
   <path class="fil0" d="M68006 37037l47 -25 0 68 -47 -43zm1447 -428l0 112 -1377 0c-66,0 -168,68 -238,110 -82,50 -290,135 -135,285l280 258c31,26 73,56 81,98l2 338 -192 344c-58,113 -369,643 -369,705 0,139 146,176 227,93 23,-24 26,-42 42,-70l570 -1041c35,23 84,98 110,136l627 896c100,152 271,153 271,-47 0,-50 -81,-137 -123,-202l-273 -387c-48,-69 -88,-131 -138,-198 -49,-65 -86,-125 -134,-190 -25,-33 -50,-68 -70,-99 -49,-74 -46,-52 -46,-121 -1,-109 0,-217 0,-326 0,-122 -11,-214 -11,-324l862 0c29,0 157,-58 157,-101l0 -201c156,0 358,31 358,-56 0,-42 -28,-68 -56,-68l-369 0c-26,0 -56,30 -56,56zm-1411 -358c0,157 126,302 258,302l100 0c122,0 258,-148 258,-268 0,-112 -10,-161 -98,-250 -194,-196 -518,-35 -518,216z"/>
   <path class="fil0" d="M59223 39116c0,81 25,146 135,146 92,0 158,-142 230,-251l195 -287 392 34c-10,40 -322,517 -381,604 -95,143 -92,260 -143,462 -13,54 -23,102 -35,154 -21,91 -17,71 -94,108l-546 260c-99,40 -223,85 -223,181 0,92 78,161 158,137l536 -249c365,-184 358,-110 421,-363 22,-87 38,-176 59,-255 12,-48 18,-76 29,-128 10,-45 25,-84 29,-127 34,9 37,28 59,53 22,24 36,39 58,65l171 175c26,26 98,104 103,133l-12 691c-6,48 -27,136 17,199 57,83 218,67 240,-65l13 -926c-17,-79 -277,-305 -336,-393l146 -246c32,-48 121,-209 157,-235 48,91 177,414 257,414 130,0 104,-22 235,-89 61,-32 109,-63 172,-98 62,-34 107,-62 172,-96 229,-121 102,-278 2,-281 -60,-2 -341,162 -411,208 -32,21 -44,39 -91,43l-247 -504c-64,-104 -266,-65 -465,-94 -107,-16 -180,-12 -262,-18l-257 -22c-94,8 -161,150 -227,245l-76 114c-40,67 -180,241 -180,301zm1366 -996c0,341 367,357 491,188 13,-17 15,-24 25,-42 146,-280 -215,-520 -434,-322 -36,32 -82,111 -82,176z"/>
   <path class="fil0" d="M58903 6389c0,91 58,135 146,135 64,0 537,-325 582,-325 28,0 282,201 325,213 -24,32 -613,379 -687,422 -124,73 -73,67 -171,276 -165,348 37,223 -655,453 -58,20 -114,38 -168,56 -49,17 -124,36 -165,59 -112,64 -69,245 66,245 49,0 619,-205 752,-244 49,-14 76,-27 125,-43l130 -38 198 -485c14,-32 13,-45 37,-63l94 343c14,41 29,79 30,127l-493 358c-77,58 -134,76 -134,179 0,25 54,204 240,72 160,-114 447,-344 598,-443 129,-85 47,-233 4,-392l-70 -266c85,-45 158,-89 242,-140l240 -140 22 526 817 0c103,0 124,-81 124,-157 0,-124 -155,-112 -280,-112 -135,0 -269,0 -403,0l-23 -582 -96 -61c-44,-30 -665,-476 -688,-476 -15,0 -164,92 -193,108l-294 177c-38,22 -64,34 -99,57 -62,41 -153,67 -153,161zm1669 12c0,103 3,146 86,227 181,176 451,11 451,-194 0,-221 -290,-344 -457,-188 -29,27 -80,104 -80,155z"/>
   <path class="fil0" d="M52275 36144l-504 -358c12,-51 30,-80 50,-129 20,-51 38,-84 55,-135 20,-55 36,-77 54,-126l267 -662c0,-83 -171,-262 -282,10l-427 1028c-26,67 -56,144 -86,205 -16,32 -79,181 -79,212l293 1275c46,144 256,106 256,-32 0,-77 -232,-1019 -269,-1176 41,11 131,80 173,108 31,21 50,32 80,54l168 112c33,24 54,36 86,59 31,22 51,30 82,53 36,26 46,40 106,40l1534 0c124,0 158,-197 36,-249 -48,-20 -134,-9 -193,-9l-1221 0c31,-131 331,-887 388,-1079l78 -224c26,-74 53,-137 79,-212 33,-96 71,-169 71,-253 0,-113 -159,-149 -226,-70 -27,32 -174,457 -195,511 -28,74 -50,140 -76,215l-261 724c-15,38 -27,68 -37,108zm-1355 -458c0,284 309,348 452,204 289,-291 -223,-660 -422,-309 -17,29 -30,63 -30,105z"/>
   <path class="fil0" d="M57712 23455c-122,0 -201,44 -201,190 0,30 23,75 37,97 23,32 53,47 88,58 43,14 61,13 105,-2 52,-19 55,-44 95,-51 81,-15 785,-12 906,-12 37,0 71,89 79,123 -152,0 -262,11 -415,11 -27,0 -235,-142 -302,146l-1142 0 0 56 1164 0c20,83 87,111 168,111 101,0 71,-56 257,-56 53,0 106,2 158,1 64,-1 77,-12 145,-12l56 168 -1948 0 0 56 1971 0c5,71 39,22 -59,120 -32,33 -63,82 -121,82l-1791 0c2,75 10,56 168,56l1601 0 -731 736 180 184 873 -867 -10 170c-7,93 -10,62 34,135l363 556c30,37 57,70 108,82 4,-40 18,-84 27,-130 9,-41 15,-102 52,-116 -4,-42 -26,-61 -45,-90l-163 -251c-20,-30 -34,-54 -52,-83 -108,-172 -48,-99 -43,-326l651 1c52,-4 45,-2 55,-46 -46,-26 -608,-11 -706,-11l12 -202 660 0c31,0 27,-9 34,-33 -23,-32 -9,-23 -66,-24 -29,-1 -62,1 -91,1l-560 0c-36,-68 -64,-144 -101,-212 132,0 753,19 818,-12l-13 -44 -838 0c-3,-36 -86,-200 -116,-287 -20,-56 -35,-97 -54,-149 -18,-51 -30,-107 -54,-158 -75,0 -357,19 -411,37 -57,19 -284,7 -362,8 -65,0 -84,12 -156,11 -56,0 -112,0 -169,1 -133,1 -82,-23 -145,-23zm952 -101c425,0 338,-526 33,-526 -69,0 -150,34 -188,69 -189,180 -33,457 155,457z"/>
   <path class="fil0" d="M69322 16939c0,64 62,135 145,135 30,0 365,-177 422,-205l206 -108c47,-24 186,-98 223,-101 17,61 386,540 403,604 -56,0 -183,13 -228,-7l-168 -157c-96,-96 -137,-87 -270,-20 -49,24 -88,40 -136,65 -47,23 -84,36 -131,59 -35,18 -103,60 -142,60l-1187 0 0 257 1546 0c48,0 133,85 170,121 31,29 49,38 79,67 39,38 382,342 411,350l-11 212c0,38 184,183 213,191 55,-37 93,-89 137,-142 44,-52 113,-92 131,-161 -16,-24 -172,-156 -201,-156 -264,0 -155,75 -457,-193 -31,-28 -46,-35 -78,-68 -40,-41 -226,-187 -249,-221l1344 0 0 -257c-395,0 -286,58 -482,-235l-423 -640c-97,-160 -204,-65 -279,-29 -293,140 -597,308 -892,452 -46,23 -96,68 -96,127zm571 -929c0,88 12,147 80,211 154,144 445,57 450,-190 1,-64 -33,-145 -74,-186 -166,-167 -456,-46 -456,165z"/>
   <path class="fil0" d="M70569 24355l1388 0 -512 630c-51,60 -129,61 -210,47 -60,-10 -33,3 -62,-27 -11,-12 -24,-31 -41,-49l-330 -342c-1,-1 -4,-4 -5,-6l-36 -42c-64,-74 -147,-126 -192,-211zm-941 -425l0 750c0,152 197,123 325,123 192,0 146,-212 146,-448l190 0c-17,73 1,95 47,143l516 548c31,31 198,197 198,227l-11 492c-94,-63 -489,-324 -526,-324 -149,0 -146,125 -146,212 1,132 -11,225 -11,347 0,60 0,120 0,179 1,109 -46,326 26,400 59,62 197,59 226,-81l17 -688 272 176c162,95 104,113 344,93 134,-11 366,25 432,-27 78,-60 171,-174 239,-220l132 630c45,179 260,147 260,-3 0,-93 -32,-189 -51,-273l-58 -267c-12,-57 -73,-367 -92,-400 -104,-187 -311,70 -323,80 -70,56 -130,139 -203,177 0,-82 6,-189 -1,-268 -10,-117 -44,-227 8,-283 19,-20 14,-15 31,-37 23,-29 38,-46 61,-74l486 -588c21,-25 41,-48 61,-73 27,-35 26,-53 37,-98l190 0c0,453 -34,448 325,448 98,0 156,-59 156,-157l0 -661c0,-202 -147,-167 -336,-167 -93,0 -145,72 -145,134l0 325 -213 0c-49,0 -14,-45 -123,-45 -67,0 -60,45 -101,45l-1455 0c-65,0 -100,-12 -146,-12 -45,0 -81,12 -145,12l-168 0c0,-492 37,-459 -336,-459 -73,0 -135,42 -135,112zm1646 1052c350,0 354,-428 114,-506 -105,-34 -226,-10 -290,61 -171,189 -21,445 176,445z"/>
   <path class="fil0" d="M3898 48679c0,126 10,206 115,311 147,147 272,114 412,103 23,35 189,176 232,215 8,7 53,51 56,56 26,39 8,42 18,94 12,57 66,105 130,105 50,0 248,-123 314,-157 54,-28 96,-52 153,-82 52,-28 102,-73 171,-75l12 616c0,25 -219,335 -260,401 -32,51 -57,85 -90,134 -69,104 -345,500 -345,551 0,115 149,221 272,36l658 -988 407 299c58,50 47,71 84,162l201 504c74,207 271,73 271,-2 0,-74 -86,-251 -114,-334 -12,-39 -28,-76 -43,-114 -121,-302 -78,-333 -285,-476l-261 -198c-35,-47 -25,-501 -25,-591 55,5 268,200 313,235 53,41 102,83 156,125 94,74 158,161 271,78 67,-50 60,-144 -15,-211l-271 -222c-80,-63 -314,-273 -387,-273l-593 0c-78,0 -122,41 -176,70l-496 266 -302 -280c0,-89 128,-347 -231,-519 -80,-38 -257,-73 -318,38 -13,24 -34,84 -34,123zm1568 -90c0,149 125,302 269,302l78 0c233,0 361,-343 181,-505 -131,-118 -310,-119 -433,-5 -45,42 -95,127 -95,208zm1131 1433c161,0 161,-224 0,-224 -139,0 -139,224 0,224z"/>
   <path class="fil0" d="M12749 58695c0,104 129,235 291,23l120 -137c29,-29 33,-36 57,-66 74,-92 395,-412 417,-491 19,-70 100,-366 100,-414l22 0c27,99 207,233 228,365 8,47 8,130 8,194 0,73 7,534 24,580 51,137 217,107 249,-4 21,-71 -1,-155 -5,-217 -4,-74 0,-161 1,-236 0,-84 -12,-140 -12,-235 0,-260 -3,-204 -112,-358 -67,-95 -136,-182 -201,-280l134 -145c0,259 51,211 227,389 55,55 100,93 156,145 22,20 24,19 44,35 29,24 86,91 144,91 76,0 134,-55 134,-145 0,-74 -78,-109 -120,-148l-286 -263c-53,-46 -41,-211 -41,-294 0,-38 96,-207 123,-258l488 60c73,13 129,96 198,172 33,36 60,61 95,95 32,33 57,57 89,90 63,64 57,76 149,76 64,0 112,-55 112,-135 0,-76 -104,-153 -149,-198 -34,-35 -58,-57 -87,-93 -10,-13 -7,-10 -20,-24 -2,-2 -4,-4 -6,-5 -2,-2 -4,-4 -6,-6l-11 -11c-243,-252 -140,-195 -544,-251 -107,-15 -208,-24 -309,-38 -254,-35 -185,-9 -332,137l-168 190c-36,37 -53,50 -86,93l-122 136c-15,18 -27,28 -44,45 -36,35 -49,59 -84,95 -23,23 -64,71 -77,102 -16,37 -26,95 -37,132l-110 427c-11,26 -53,75 -73,95l-84 95c-35,36 -50,62 -84,95l-253 284c-49,61 -147,145 -147,211zm1399 -2496c0,283 403,363 508,116 51,-121 34,-200 -48,-295 -41,-46 -94,-71 -149,-78l-68 0c-125,15 -243,113 -243,257zm381 1970c0,256 272,354 439,215 109,-90 123,-269 12,-386 -151,-158 -451,-53 -451,171z"/>
   <path class="fil0" d="M19777 51335c58,0 130,-46 174,-72 30,-18 49,-27 79,-45 33,-20 42,-30 83,-40l-21 282c-31,279 126,171 -373,410 -110,52 -250,94 -225,217l144 484c32,117 50,174 161,174 74,0 123,-69 123,-123 0,-65 -132,-403 -134,-492l362 -176c32,-17 22,-14 59,-31 26,-11 40,-17 61,-28 27,18 39,34 64,58l454 419c29,25 38,28 67,57l195 174c45,45 235,209 294,209 145,0 191,-173 59,-248 -55,-31 -509,-443 -560,-493 -32,-32 -56,-58 -89,-90l-180 -167c-47,-36 -69,-31 -70,-109l11 -337c2,-113 54,-112 155,-204 80,-73 105,-155 11,-230 -28,-22 -322,-110 -378,-126 -120,-35 -297,151 -448,191 -1,-39 -32,-137 -44,-168 -63,-156 -172,-88 -213,-78 -37,-25 -216,-249 -254,-295l-341 -409c-47,-59 -47,-80 -133,-80 -34,0 -61,46 -70,77 -20,73 101,165 190,251 31,29 48,36 79,67 29,28 49,49 78,78 27,27 46,46 73,73 32,32 52,41 84,72l226 223c45,45 6,9 36,120 21,77 49,147 72,231 15,55 47,174 139,174zm549 -840c0,151 114,269 235,269 88,0 172,-5 231,-83 87,-115 96,-245 -4,-357 -85,-94 -269,-114 -376,-11 -41,40 -86,107 -86,182zm895 795c0,186 303,208 303,-11 0,-176 -303,-190 -303,11z"/>
   <path class="fil0" d="M27812 44105c0,80 24,145 135,145 92,0 158,-142 230,-251l195 -286 392 33c-11,40 -322,517 -381,605 -96,142 -93,260 -143,461 -14,54 -24,102 -36,155 -20,90 -16,70 -93,108l-547 259c-98,40 -222,85 -222,181 0,93 77,161 158,137l536 -249c365,-184 358,-110 421,-363 22,-86 38,-175 58,-255 12,-48 18,-75 30,-127 10,-46 25,-85 29,-128 34,9 37,29 59,53 21,24 36,39 58,65l171 175c26,26 98,105 103,133l-12 692c-6,47 -27,135 17,199 57,82 218,66 240,-66l13 -926c-17,-78 -277,-305 -336,-392l146 -247c32,-48 121,-209 156,-235 49,92 178,415 258,415 130,0 104,-22 235,-90 61,-31 109,-62 171,-97 62,-35 108,-63 172,-97 230,-121 103,-278 3,-281 -60,-2 -341,162 -411,209 -32,21 -45,38 -92,42l-246 -504c-64,-104 -266,-64 -466,-94 -106,-16 -179,-12 -261,-18l-257 -21c-94,7 -162,150 -227,244l-76 114c-40,67 -180,241 -180,302zm1366 -997c0,341 366,357 491,189 12,-17 15,-25 25,-43 145,-280 -216,-520 -435,-322 -35,32 -81,111 -81,176z"/>
   <path class="fil0" d="M63107 45252c0,96 66,128 145,190 28,22 33,36 67,45 -45,194 -190,570 -257,829l-58 188c-23,85 -144,422 -144,472 0,89 58,134 146,134 110,0 133,-139 159,-232l278 -910 884 1c67,6 576,24 643,5 106,-31 200,-265 -128,-263l-918 0c-78,1 -113,-11 -179,-11 0,-93 -19,-228 34,-302 60,-81 161,-136 179,-202 42,28 75,51 118,83 153,116 192,93 299,-35l179 -201c22,-26 43,-44 67,-68l95 -107c69,-126 -94,-293 -227,-136 -14,17 -7,8 -21,23 -12,13 -15,17 -26,30l-238 254c-40,-10 -368,-259 -425,-302 -206,-155 -218,-123 -450,189 -38,52 -76,99 -118,151 -30,37 -104,122 -104,175zm414 -918c0,263 273,361 452,272 35,-17 51,-40 77,-67 176,-181 57,-496 -238,-496 -160,0 -291,132 -291,291z"/>
   <path class="fil0" d="M68528 50863l-219 117c-152,90 -195,69 -195,185 0,28 45,109 168,35l88 -47c54,-28 303,-160 328,-198 35,-53 20,-168 20,-249l166 148c27,28 49,54 78,79 38,33 51,32 81,76 -62,33 -124,105 -184,152 -104,81 -96,80 -96,251 0,110 6,238 0,347 -6,118 -44,246 90,246 105,0 89,-119 89,-224 0,-108 0,-216 0,-325 0,-184 -11,-108 182,-288 84,-78 85,-70 154,-70l29 330c13,104 -11,81 149,209 86,69 353,289 438,289 69,0 149,-128 13,-181 -97,-38 -221,-156 -311,-226 -17,-14 -89,-72 -96,-83 -22,-31 -41,-257 -43,-315 -5,-190 -18,-139 -115,-232 -54,-53 -528,-507 -568,-507 -95,0 -102,73 -179,190 -74,112 -67,113 -67,291zm-1209 605c0,69 150,213 168,291l-460 -1c-116,12 -99,180 23,180l605 0c54,0 100,-32 100,-90 0,-50 -28,-72 -51,-106 -29,-43 -52,-68 -61,-107l325 12c0,396 -56,347 437,347 172,0 171,-191 11,-191l-269 0 0 -145c0,-48 148,-134 115,-226 -35,-100 -183,-53 -294,-54 -123,-1 -246,0 -369,0 -114,0 -280,-21 -280,90zm963 56c0,259 391,250 391,0 0,-243 -391,-253 -391,0zm-112 -1041c0,66 19,104 58,143 115,115 315,43 329,-125 8,-93 -63,-198 -175,-198l-56 0c-81,0 -156,94 -156,180z"/>
   <path class="fil0" d="M62899 57609c0,126 9,206 114,311 148,147 272,114 412,103 24,35 190,176 232,215 8,7 53,51 56,56 27,39 8,42 18,94 12,57 67,105 131,105 50,0 247,-123 313,-157 54,-28 97,-52 153,-82 52,-28 102,-73 172,-75l11 616c0,25 -219,335 -260,401 -31,51 -57,85 -89,134 -70,104 -345,500 -345,551 0,115 149,221 271,36l658 -988 407 299c58,50 47,71 84,162l202 504c73,207 270,73 270,-2 0,-74 -86,-251 -113,-334 -13,-39 -29,-76 -44,-114 -120,-302 -77,-333 -284,-476l-262 -198c-35,-47 -25,-501 -25,-591 55,5 268,200 314,235 52,41 102,83 155,125 94,74 158,161 271,78 67,-50 60,-144 -15,-211l-270 -222c-81,-63 -314,-273 -388,-273l-593 0c-77,0 -122,41 -176,70l-496 266 -302 -280c0,-89 128,-347 -231,-519 -79,-38 -256,-73 -318,38 -13,24 -33,84 -33,123zm1567 -90c0,149 126,302 269,302l78 0c233,0 362,-343 181,-505 -131,-118 -309,-119 -433,-5 -45,42 -95,127 -95,208zm1131 1433c161,0 161,-224 0,-224 -139,0 -139,224 0,224z"/>
   <path class="fil0" d="M67444 2435l-219 117c-152,91 -195,69 -195,185 0,28 45,109 169,35l88 -47c54,-28 302,-160 327,-198 35,-53 21,-167 21,-248l165 148c28,27 49,53 78,78 38,33 52,32 81,76 -62,33 -123,105 -184,152 -104,81 -96,80 -96,251 1,110 6,238 1,347 -7,119 -45,246 89,246 106,0 90,-118 90,-224 0,-108 0,-216 0,-324 -1,-185 -12,-109 182,-289 83,-78 84,-70 154,-70l28 330c14,104 -11,81 149,209 86,69 354,290 438,290 69,0 149,-128 13,-181 -97,-38 -221,-157 -310,-227 -17,-13 -90,-72 -97,-83 -21,-31 -41,-257 -42,-315 -5,-190 -19,-139 -115,-232 -54,-52 -529,-507 -568,-507 -96,0 -102,74 -179,190 -75,112 -68,113 -68,291zm-1209 605c0,69 150,213 168,291l-459 -1c-117,12 -99,180 22,180l605 0c54,0 101,-32 101,-90 0,-50 -28,-72 -51,-106 -30,-43 -52,-68 -61,-106l324 11c0,396 -56,347 437,347 173,0 171,-190 11,-190l-268 0 0 -146c0,-48 147,-134 115,-226 -36,-100 -183,-53 -294,-54 -124,0 -247,0 -370,0 -113,0 -280,-21 -280,90zm963 56c0,259 392,251 392,0 0,-243 -392,-253 -392,0zm-112 -1041c0,66 20,104 58,143 116,116 316,43 329,-125 8,-92 -63,-197 -174,-197l-56 0c-82,0 -157,93 -157,179z"/>
   <path class="fil0" d="M29899 59366c0,126 9,206 114,311 147,147 272,114 412,103 24,35 190,176 232,215 8,7 53,51 56,56 26,39 8,42 18,94 12,57 66,105 130,105 51,0 248,-123 314,-157 54,-28 96,-52 153,-82 52,-28 102,-73 172,-75l11 616c0,25 -219,335 -260,401 -31,51 -57,85 -90,134 -69,104 -344,500 -344,551 0,115 149,221 271,36l658 -988 407 299c58,50 47,71 84,162l201 504c74,207 271,73 271,-2 0,-74 -86,-251 -113,-334 -13,-39 -29,-76 -44,-114 -120,-302 -77,-333 -284,-476l-262 -198c-35,-47 -25,-501 -25,-591 55,5 268,200 314,236 52,40 102,82 155,124 94,74 158,161 271,78 67,-50 60,-144 -15,-211l-271 -222c-80,-62 -313,-273 -387,-273l-593 0c-78,0 -122,41 -176,71l-496 265 -302 -280c0,-88 128,-347 -231,-519 -79,-38 -256,-73 -318,38 -13,24 -33,84 -33,123zm1567 -90c0,149 125,302 269,302l78 0c233,0 362,-342 181,-505 -131,-118 -310,-119 -433,-5 -45,42 -95,127 -95,208zm1131 1433c161,0 161,-224 0,-224 -139,0 -139,224 0,224z"/>
   <path class="fil0" d="M31281 69004c0,102 -34,336 123,336 190,0 104,-202 179,-202l157 0 0 582c0,39 -158,332 -194,400l-213 391c-26,47 -43,87 -67,135 -43,85 -64,74 -64,171 0,103 169,197 258,23 34,-67 477,-924 515,-952 10,39 168,257 206,320 17,28 29,40 46,66l265 395c41,62 128,227 210,227 95,0 155,-80 138,-160 -10,-50 -119,-195 -155,-248 -15,-23 -15,-27 -30,-48l-329 -489c-223,-335 -138,-173 -138,-488 0,-119 11,-195 11,-314l246 -11c86,0 180,8 264,-5 190,-28 397,59 397,-152 0,-128 -171,-123 -247,-123 -74,0 -107,10 -167,12 -319,9 -767,0 -1098,0 0,-234 -225,-194 -257,-56 -8,33 -8,72 -21,102 -14,31 -35,42 -35,88zm436 -493c0,281 302,365 457,222 209,-193 32,-479 -166,-479 -168,0 -291,127 -291,257zm1433 504c0,325 7,391 -102,715 -92,277 -273,449 -144,449 68,0 242,-456 269,-548 76,-263 88,-596 38,-867l-217 -768 -68 0c-13,57 -6,62 16,119 96,241 208,662 208,900z"/>
   <path class="fil0" d="M358 62535c0,178 128,157 239,104l606 -267c52,-22 213,-103 253,-106 1,49 16,123 25,176 9,50 20,120 29,173 13,74 36,300 58,345l-283 155c-35,21 -65,34 -100,56l-571 324c-65,39 -124,73 -192,110 -69,38 -125,71 -194,109 -32,17 -64,35 -92,54 -127,82 -31,289 126,227 79,-31 146,-86 223,-125l1123 -635c41,-25 74,-40 114,-64 85,-51 62,-49 103,-77 33,143 49,304 77,449 62,310 -3,242 507,299l491 48c129,7 157,-58 157,-146 0,-157 -253,-121 -397,-141 -81,-12 -169,-19 -243,-26l-245 -24 -77 -448c-52,-255 -103,-637 -150,-903 -82,-468 -72,-416 -546,-205 -58,27 -122,51 -179,79 -61,30 -123,50 -186,82 -120,60 -245,106 -362,164 -27,14 -54,24 -87,37 -100,39 -227,83 -227,176zm-358 -515c0,329 390,391 528,226 115,-138 120,-285 1,-419 -99,-113 -302,-122 -425,-17 -41,34 -104,142 -104,210zm1120 -605c0,102 7,156 86,239 183,191 518,42 518,-183 0,-101 -6,-159 -83,-241 -161,-173 -521,-71 -521,185z"/>
   <path class="fil0" d="M10192 69287c0,96 66,128 145,191 28,22 33,35 68,44 -46,194 -191,570 -258,829l-58 188c-23,86 -144,423 -144,472 0,89 58,135 146,135 110,0 133,-140 159,-233l278 -909 884 0c67,6 576,25 644,5 105,-31 199,-265 -129,-263l-918 0c-78,1 -113,-11 -179,-11 0,-93 -19,-228 34,-301 60,-82 161,-137 179,-203 42,29 75,51 118,84 153,116 192,92 299,-36l179 -201c22,-25 43,-44 67,-68l95 -106c70,-127 -94,-294 -226,-137 -15,17 -8,9 -22,23 -12,13 -15,17 -26,30l-238 255c-40,-11 -368,-260 -425,-303 -206,-154 -217,-123 -450,189 -38,52 -76,100 -118,151 -30,37 -104,122 -104,175zm414 -918c0,264 273,361 452,273 35,-18 51,-41 77,-68 176,-181 57,-496 -238,-496 -160,0 -291,132 -291,291z"/>
   <path class="fil0" d="M49793 25127l47 -26 0 68 -47 -42zm1446 -428l0 112 -1377 0c-66,0 -168,68 -237,110 -83,50 -290,134 -135,285l279 257c32,26 74,56 81,99l3 337 -192 345c-59,113 -370,642 -370,705 0,138 147,176 227,92 23,-23 27,-41 43,-69l570 -1042c35,23 84,98 110,137l627 895c100,153 271,154 271,-47 0,-50 -81,-137 -123,-201l-274 -387c-48,-70 -88,-132 -138,-198 -48,-65 -85,-126 -134,-191 -24,-32 -50,-68 -70,-98 -48,-74 -46,-52 -46,-122 0,-108 1,-217 1,-325 0,-122 -11,-214 -11,-325l862 0c29,0 157,-57 157,-100l0 -202c155,0 358,32 358,-56 0,-41 -29,-67 -56,-67l-370 0c-26,0 -56,30 -56,56zm-1410 -358c0,157 126,302 257,302l101 0c122,0 257,-148 257,-269 0,-112 -9,-161 -97,-249 -195,-196 -518,-36 -518,216z"/>
   <path class="fil0" d="M11894 37456c0,32 300,506 354,586 141,210 114,228 515,-9 58,-34 286,-180 352,-185 -26,111 -12,33 -11,156l-3 579c-7,25 -58,84 -79,112l-338 435 -734 419c-164,87 -76,257 23,257 107,0 316,-151 421,-205 69,-35 128,-71 192,-110 67,-41 232,-116 280,-168 22,-25 50,-62 70,-87l391 -515 482 403c-53,14 -191,180 -244,226 -117,104 -298,220 -204,356 104,151 258,-53 291,-79l333 -316c115,-116 241,-204 59,-344l-428 -345c-52,-41 -28,-140 -20,-293l23 -425c38,3 97,31 132,46 22,9 37,17 62,27 107,43 799,330 836,330 180,0 188,-191 60,-251 -48,-22 -92,-41 -143,-59l-861 -348c-120,-51 -189,-39 -355,-48 -49,-2 -41,-8 -90,-11 -32,-2 -68,2 -100,0 -169,-14 -89,-30 -299,82 -74,40 -345,209 -396,220l-285 -454c-12,-18 -11,-14 -23,-32 -50,-76 -40,-84 -151,-84 -67,0 -112,69 -112,134zm34 -470c0,107 5,179 108,261 223,177 564,-59 448,-336 -124,-292 -556,-178 -556,75zm1254 246c0,123 97,257 257,257 400,0 324,-514 45,-514 -113,0 -222,18 -280,156 -7,15 -22,80 -22,101z"/>
   <path class="fil0" d="M62158 66938c0,103 129,234 291,22l120 -137c29,-29 33,-36 57,-66 74,-92 395,-412 417,-491 19,-69 100,-365 100,-414l22 0c27,99 207,233 228,365 8,47 8,130 8,194 0,73 7,534 24,580 51,137 217,107 249,-4 21,-71 -1,-155 -5,-217 -4,-74 0,-161 1,-236 0,-83 -12,-140 -12,-234 0,-261 -3,-204 -112,-359 -67,-95 -136,-182 -201,-279l134 -146c0,259 51,211 227,389 55,55 100,93 156,146 21,19 24,18 44,34 29,24 86,91 144,91 76,0 134,-55 134,-145 0,-74 -78,-109 -120,-148l-286 -263c-53,-46 -42,-210 -42,-294 0,-38 97,-207 124,-258l488 60c73,13 129,96 198,172 33,36 60,61 95,96 32,32 57,57 89,89 63,64 57,76 149,76 64,0 112,-55 112,-135 0,-76 -104,-153 -149,-198 -34,-34 -58,-57 -87,-93 -10,-13 -7,-10 -20,-24 -2,-1 -4,-3 -6,-5 -2,-2 -4,-4 -6,-6l-11 -11c-243,-252 -140,-195 -544,-251 -107,-15 -208,-24 -309,-38 -254,-35 -185,-9 -332,137l-168 190c-36,37 -53,50 -86,93l-122 136c-15,18 -27,28 -44,45 -36,35 -49,60 -84,95 -24,24 -64,71 -77,102 -16,38 -26,95 -37,132l-110 427c-11,26 -53,76 -73,95l-84 95c-35,36 -50,62 -84,95l-253 285c-49,60 -147,144 -147,211zm1399 -2497c0,283 403,363 508,116 51,-121 34,-200 -48,-295 -41,-46 -94,-71 -149,-78l-68 0c-125,15 -243,113 -243,257zm381 1970c0,256 272,354 439,215 109,-90 123,-269 12,-386 -151,-158 -451,-53 -451,171z"/>
   <path class="fil0" d="M68325 69305c58,0 130,-46 174,-72 30,-18 49,-27 79,-45 33,-20 42,-30 83,-40l-21 282c-31,279 126,171 -373,410 -110,52 -250,94 -225,217l144 484c32,117 50,174 161,174 74,0 123,-69 123,-123 0,-65 -132,-403 -134,-493l362 -175c32,-17 22,-14 59,-31 26,-11 40,-18 60,-29 28,19 40,35 65,59l454 419c29,25 38,28 67,57l195 174c45,45 235,209 294,209 145,0 191,-173 59,-248 -55,-31 -509,-443 -560,-493 -32,-32 -56,-58 -89,-90l-181 -167c-46,-36 -68,-31 -69,-109l11 -337c2,-113 54,-112 155,-204 80,-73 105,-155 11,-230 -28,-22 -322,-110 -378,-126 -120,-35 -297,151 -448,191 -1,-39 -32,-137 -44,-168 -63,-156 -172,-88 -213,-78 -38,-25 -216,-249 -254,-295l-341 -409c-47,-59 -47,-80 -133,-80 -34,0 -62,46 -70,77 -20,73 101,165 190,251 30,29 48,36 79,67 29,28 49,49 78,78 27,27 46,46 73,73 32,32 52,41 84,72l226 223c45,45 6,9 36,120 21,77 48,147 72,231 15,55 47,174 139,174zm548 -840c0,151 115,269 236,269 88,0 172,-5 231,-83 86,-115 96,-245 -4,-357 -85,-94 -270,-114 -376,-11 -41,40 -87,107 -87,182zm896 795c0,186 303,208 303,-11 0,-176 -303,-190 -303,11z"/>
  </g>
 </g>
</svg>
