<?xml version="1.0" encoding="UTF-8"?>
<!DOCTYPE svg PUBLIC "-//W3C//DTD SVG 1.1//EN" "http://www.w3.org/Graphics/SVG/1.1/DTD/svg11.dtd">
<!-- Creator: CorelDRAW X7 -->
<svg xmlns="http://www.w3.org/2000/svg" xml:space="preserve" width="5.5012mm" height="5.501mm" version="1.1" style="shape-rendering:geometricPrecision; text-rendering:geometricPrecision; image-rendering:optimizeQuality; fill-rule:evenodd; clip-rule:evenodd"
viewBox="0 0 81 81"
 xmlns:xlink="http://www.w3.org/1999/xlink">
 <defs>
  <style type="text/css">
   <![CDATA[
    .fil0 {fill:#161717}
   ]]>
  </style>
 </defs>
 <g id="Capa_x0020_1">
  <metadata id="CorelCorpID_0Corel-Layer"/>
  <path class="fil0" d="M27 73c1,-2 7,-9 9,-9 28,-3 9,-6 27,5 0,1 -5,6 -6,7 -6,2 -18,6 -24,2 -1,-1 -6,-4 -6,-5zm-25 -23c3,0 4,7 4,9 -2,-2 -4,-6 -4,-9zm8 -10c2,0 16,7 16,7 6,15 11,13 3,23 -5,5 -6,3 -17,-2 -4,-3 -9,-16 -6,-21 1,-3 2,-5 4,-7zm44 21c0,-3 4,-18 6,-19 3,-2 7,-6 11,-7 18,10 -3,37 -8,33 -3,-2 -6,-5 -9,-7zm-44 -29c0,-12 3,-14 14,-21 2,-2 15,2 15,4 1,6 3,12 3,18 -19,14 -8,16 -31,6 -1,-1 -1,-5 -1,-7zm30 -18c15,-6 12,-8 28,3 2,2 3,14 2,17 -16,11 -9,8 -26,-1 -2,-1 -4,-16 -4,-19zm-35 10c1,-9 15,-20 24,-21 -2,7 -14,13 -18,19 -1,1 -5,2 -6,2zm64 -7c-3,0 -11,-7 -15,-9 -1,0 -5,-5 -6,-6 5,0 24,10 25,16 -2,0 -3,-1 -4,-1zm-69 21c0,21 14,40 35,42 50,6 64,-66 16,-79 -23,-6 -47,10 -51,33 0,1 0,4 0,4z"/>
 </g>
</svg>
