<?xml version="1.0" encoding="UTF-8"?>
<!DOCTYPE svg PUBLIC "-//W3C//DTD SVG 1.1//EN" "http://www.w3.org/Graphics/SVG/1.1/DTD/svg11.dtd">
<!-- Creator: CorelDRAW X7 -->
<svg xmlns="http://www.w3.org/2000/svg" xml:space="preserve" width="5.501mm" height="5.501mm" version="1.1" style="shape-rendering:geometricPrecision; text-rendering:geometricPrecision; image-rendering:optimizeQuality; fill-rule:evenodd; clip-rule:evenodd"
viewBox="0 0 70 70"
 xmlns:xlink="http://www.w3.org/1999/xlink">
 <defs>
  <style type="text/css">
   <![CDATA[
    .fil0 {fill:black}
   ]]>
  </style>
 </defs>
 <g id="Capa_x0020_1">
  <metadata id="CorelCorpID_0Corel-Layer"/>
  <path class="fil0" d="M66 40c-2,16 -18,29 -36,26 -16,-3 -29,-18 -26,-37 3,-15 18,-28 36,-25 16,3 29,17 26,36zm-36 10c2,-2 7,-15 18,-25 2,-2 1,-2 1,-4 -5,2 -13,9 -16,14 -2,1 -3,4 -5,5l-7 -6c-2,1 -2,2 -3,3 1,2 9,10 12,13zm-30 -12c2,18 18,34 39,32 18,-2 33,-18 31,-39 -2,-18 -18,-33 -38,-31 -19,2 -34,18 -32,38z"/>
 </g>
</svg>
