<?xml version="1.0" encoding="UTF-8"?>
<!DOCTYPE svg PUBLIC "-//W3C//DTD SVG 1.1//EN" "http://www.w3.org/Graphics/SVG/1.1/DTD/svg11.dtd">
<!-- Creator: CorelDRAW X7 -->
<svg xmlns="http://www.w3.org/2000/svg" xml:space="preserve" width="5.501mm" height="5.501mm" version="1.1" style="shape-rendering:geometricPrecision; text-rendering:geometricPrecision; image-rendering:optimizeQuality; fill-rule:evenodd; clip-rule:evenodd"
viewBox="0 0 70 70"
 xmlns:xlink="http://www.w3.org/1999/xlink">
 <defs>
  <style type="text/css">
   <![CDATA[
    .fil0 {fill:#1A1A1A}
   ]]>
  </style>
 </defs>
 <g id="Capa_x0020_1">
  <metadata id="CorelCorpID_0Corel-Layer"/>
  <path class="fil0" d="M31 5c18,-2 32,11 34,27 2,17 -11,32 -26,34 -18,2 -32,-12 -34,-27 -2,-18 11,-32 26,-34zm39 34c2,-19 -12,-36 -31,-39 -21,-2 -37,13 -39,31 -2,21 13,37 31,39 19,2 36,-11 39,-31zm-29 14l-2 -8c4,0 10,1 11,-3 0,-3 0,-11 0,-14 0,-7 -3,-6 -9,-6 -5,0 -10,0 -14,0 -7,0 -7,2 -7,8 0,13 -1,15 7,15 3,0 3,0 5,2l9 6z"/>
 </g>
</svg>
