<?xml version="1.0" encoding="UTF-8"?>
<!DOCTYPE svg PUBLIC "-//W3C//DTD SVG 1.1//EN" "http://www.w3.org/Graphics/SVG/1.1/DTD/svg11.dtd">
<!-- Creator: CorelDRAW X7 -->
<svg xmlns="http://www.w3.org/2000/svg" xml:space="preserve" width="5.501mm" height="5.501mm" version="1.1" style="shape-rendering:geometricPrecision; text-rendering:geometricPrecision; image-rendering:optimizeQuality; fill-rule:evenodd; clip-rule:evenodd"
viewBox="0 0 80 80"
 xmlns:xlink="http://www.w3.org/1999/xlink">
 <defs>
  <style type="text/css">
   <![CDATA[
    .fil0 {fill:#1A1A1A}
   ]]>
  </style>
 </defs>
 <g id="Capa_x0020_1">
  <metadata id="CorelCorpID_0Corel-Layer"/>
  <path class="fil0" d="M50 8c0,-1 0,-1 0,-1 1,0 3,2 3,3 -1,0 0,0 -1,0 2,4 -12,5 -9,9 0,0 0,0 0,-1 0,1 2,2 2,2 0,0 1,1 1,1 11,-1 21,-9 30,-14 2,-1 4,-2 4,-4 0,1 0,1 0,1 2,-2 -17,-5 -21,-3 -2,0 -12,4 -9,7zm-9 18c-1,0 -2,1 -3,1 -1,2 -13,1 -15,1 2,10 2,14 15,12 3,0 19,-9 18,-12l0 0c-3,-2 -8,-2 -12,-4l0 0c-1,1 -2,1 -3,2zm-35 -3c0,-4 -4,-12 6,-9 11,2 5,9 15,11 2,0 7,2 9,0 -1,0 -2,1 -2,1 1,-21 -18,-11 -32,-18 -5,-3 0,5 0,7 1,2 2,7 4,8zm5 8c1,5 6,8 13,8 -1,-3 -3,-8 -3,-11 -2,0 -3,-1 -4,-1 0,0 0,0 0,0 -1,0 -5,4 -6,4zm-2 -5l0 -1c1,0 1,0 1,0 4,1 7,2 11,3l0 0c-5,-16 -16,-16 -13,-8 0,1 0,5 1,6zm-9 -19c2,-1 7,3 10,3 13,3 24,-1 24,16 0,0 0,-1 0,0 1,-2 0,-3 0,-4l0 0c-3,-3 2,-10 -8,-11 -9,0 -17,-1 -24,-5 -1,0 -2,0 -2,1zm31 34c0,0 0,0 0,0l0 0 3 0c0,0 0,1 0,1l0 -1c1,0 3,0 4,0l0 1c1,-1 0,-1 3,-2l0 1c0,-1 3,-2 3,-2l0 0c0,0 0,0 0,0 3,-2 2,-2 3,-2 0,0 -1,0 -1,0 1,-2 8,-5 10,-7l0 0 0 0c0,-1 0,-1 0,-2l1 0c0,0 -1,0 -1,0 0,2 -18,17 -30,11 2,3 2,2 4,2l0 0 1 0zm3 -15c2,-1 5,-2 7,-2l0 -1c-2,1 -6,-2 -7,-1 0,1 1,2 0,4zm-11 3l0 -1c5,1 7,0 11,-1 -4,1 -8,-1 -11,-1 0,0 0,2 0,3zm-5 9c0,0 2,1 2,1 0,0 1,0 1,0l0 0c1,0 3,1 3,1 0,0 0,-1 0,-2l0 1c-3,0 -8,-2 -11,-3 0,1 3,2 5,2l0 0zm32 -30c0,1 2,2 3,2 0,-1 -2,-2 -3,-3 0,0 0,0 0,1zm-10 40c11,-3 6,-9 21,-4 -1,0 -21,11 -22,11 0,-1 0,-3 0,-4 0,0 0,-2 1,-3 0,0 0,0 0,0zm4 -26c-1,0 -2,1 -2,1l-1 0 0 1c-1,0 -4,1 -5,1 -2,2 -12,0 -14,-1 -2,-2 -2,-10 -12,-11 -12,-1 1,17 -2,21 -1,1 -8,43 -3,35 2,-4 2,-16 3,-21 0,0 28,9 28,9 0,0 -4,27 -1,23 4,-3 0,-23 4,-25 4,-2 19,-11 22,-11 1,5 2,11 3,16 0,1 2,1 2,-1 0,-11 -4,-29 -4,-43 -1,1 -2,2 -2,2 -1,4 0,9 0,13 -1,-1 -2,-3 -4,-3 0,1 0,1 0,2 3,3 5,8 5,12 -5,-2 -13,-6 -17,-3 0,0 0,0 0,0l0 0 0 0c1,0 1,0 1,0 0,0 -4,2 -5,2 0,0 1,0 1,-1 -2,1 -3,1 -3,3 0,0 -3,2 -3,2 -1,-2 -1,-3 -1,-4l-3 0 0 0c0,0 0,0 -1,0l0 0c-4,0 -4,-3 -5,-7 0,-1 -2,-5 -2,-5 0,-1 0,-3 0,-3 2,0 13,4 15,1 2,0 7,-3 9,-5 0,0 -3,-1 -3,0zm-4 26c-3,-1 2,-10 6,-9 2,1 4,1 6,2 -2,2 -8,3 -9,5 -1,0 -3,1 -3,2 0,0 0,0 0,0zm-16 3c1,-1 7,-4 9,-5 1,2 4,9 -9,5zm-10 -3c0,0 -5,-2 -6,-2 2,-3 10,-4 13,-7 -2,-1 -10,7 -13,7 0,-2 0,-11 2,-11 2,4 8,6 8,3 -8,-1 -9,-15 -11,-20 -2,-6 13,-5 17,20 0,2 2,3 3,5 -4,2 -9,5 -13,5zm22 2c0,0 1,0 1,0 0,0 0,4 0,5 -2,0 -4,-2 -6,-2 1,-3 5,0 5,-3zm-19 -1l-1 0c2,-3 12,-6 15,-7 1,0 2,4 2,4 -8,5 -7,5 -16,3zm19 1c-1,-2 -2,-6 2,-7 0,1 0,7 -2,7zm10 -29c0,0 -1,-1 -1,-1 0,0 -2,-1 -2,-2 0,2 1,2 1,3 1,0 3,1 3,1 5,-1 8,-2 12,-4 1,0 0,1 1,2 0,-1 0,-2 0,-2 0,0 1,-1 2,-2 0,2 -1,5 0,6l0 -6c2,-1 20,-9 18,-13 -1,4 -26,18 -31,18 -1,0 -2,0 -3,0zm19 32c0,0 0,-1 0,-1 0,0 0,1 0,1zm-5 -12c0,1 1,1 1,1 0,-1 0,-1 0,-1l0 1 -1 -1zm-16 -2c1,0 1,0 1,0 0,0 0,0 -1,0 1,0 0,0 1,0 0,0 0,0 -1,0zm-27 10l-1 0c1,-1 1,0 1,-1 -1,0 -1,1 -1,1l1 0z"/>
 </g>
</svg>
