<?xml version="1.0" encoding="UTF-8"?>
<!DOCTYPE svg PUBLIC "-//W3C//DTD SVG 1.1//EN" "http://www.w3.org/Graphics/SVG/1.1/DTD/svg11.dtd">
<!-- Creator: CorelDRAW X7 -->
<svg xmlns="http://www.w3.org/2000/svg" xml:space="preserve" width="5.501mm" height="5mm" version="1.1" style="shape-rendering:geometricPrecision; text-rendering:geometricPrecision; image-rendering:optimizeQuality; fill-rule:evenodd; clip-rule:evenodd"
viewBox="0 0 69 63"
 xmlns:xlink="http://www.w3.org/1999/xlink">
 <defs>
  <style type="text/css">
   <![CDATA[
    .fil0 {fill:black}
   ]]>
  </style>
 </defs>
 <g id="Capa_x0020_1">
  <metadata id="CorelCorpID_0Corel-Layer"/>
  <path class="fil0" d="M2 10l0 -2 24 0c-4,6 -7,4 -17,4 -1,0 -6,0 -7,0l0 -2zm25 -4c-6,-8 -2,-6 -22,-6 -5,0 -4,3 -4,13 0,2 -1,1 -1,3 0,4 0,43 0,44 1,3 4,3 6,3 6,0 60,1 62,-1 2,-1 1,-3 1,-7 0,-5 1,-45 -1,-48 -1,-2 -28,-1 -33,-1 -3,0 -6,0 -8,0z"/>
 </g>
</svg>
