<?xml version="1.0" encoding="UTF-8"?>
<!DOCTYPE svg PUBLIC "-//W3C//DTD SVG 1.1//EN" "http://www.w3.org/Graphics/SVG/1.1/DTD/svg11.dtd">
<!-- Creator: CorelDRAW X7 -->
<svg xmlns="http://www.w3.org/2000/svg" xml:space="preserve" width="5.9353mm" height="5.2955mm" version="1.1" style="shape-rendering:geometricPrecision; text-rendering:geometricPrecision; image-rendering:optimizeQuality; fill-rule:evenodd; clip-rule:evenodd"
viewBox="0 0 265 237"
 xmlns:xlink="http://www.w3.org/1999/xlink">
 <defs>
  <style type="text/css">
   <![CDATA[
    .str0 {stroke:black;stroke-width:8.9407}
    .fil0 {fill:black}
   ]]>
  </style>
 </defs>
 <g id="Capa_x0020_1">
  <metadata id="CorelCorpID_0Corel-Layer"/>
  <path class="fil0 str0" d="M129 4l7 0c4,3 4,1 9,6l109 109c5,5 3,2 7,8l0 2c-3,2 -3,2 -8,2l-30 0 0 101 -64 0 0 -63 -53 0c-1,6 0,53 0,63l-53 0c-5,-3 -11,-5 -11,-16 -1,-27 0,-58 0,-85 -9,-1 -32,3 -38,-1l0 -4c13,-14 46,-46 62,-61l53 -54c7,-6 5,-4 10,-7z"/>
 </g>
</svg>
