<?xml version="1.0" encoding="UTF-8"?>
<!DOCTYPE svg PUBLIC "-//W3C//DTD SVG 1.1//EN" "http://www.w3.org/Graphics/SVG/1.1/DTD/svg11.dtd">
<!-- Creator: CorelDRAW X7 -->
<svg xmlns="http://www.w3.org/2000/svg" xml:space="preserve" width="162.712mm" height="162.893mm" version="1.1" style="shape-rendering:geometricPrecision; text-rendering:geometricPrecision; image-rendering:optimizeQuality; fill-rule:evenodd; clip-rule:evenodd"
viewBox="0 0 4098 4102"
 xmlns:xlink="http://www.w3.org/1999/xlink">
 <defs>
  <style type="text/css">
   <![CDATA[
    .fil0 {fill:#1A1A1A}
   ]]>
  </style>
 </defs>
 <g id="Capa_x0020_1">
  <metadata id="CorelCorpID_0Corel-Layer"/>
  <g id="_308993944">
   <path class="fil0" d="M582 1701c-2,20 19,85 21,111l-8 1c-71,-3 -139,19 -197,39l-37 16c-4,4 -23,13 -29,17 -47,28 -91,67 -120,114 -8,14 -26,48 -26,66l-1 14 10 -26c3,-13 14,-35 21,-42 17,-43 104,-106 154,-128 65,-29 61,-25 121,-40 7,-2 12,-4 20,-5 62,-8 111,-11 173,-1 13,2 26,5 38,9 9,2 28,6 35,13 10,1 30,12 38,16 10,5 28,14 34,23 17,6 54,48 62,67 9,12 14,32 19,46l0 -12c-1,-21 -15,-38 -19,-55 53,2 106,33 107,84 4,99 -160,150 -235,85 -30,-26 -38,-64 -16,-102 7,-12 16,-19 21,-27 -20,-26 -92,-58 -141,-61l186 895 2 10c-42,3 -71,-6 -130,6 -43,9 -70,17 -108,31 -12,4 -21,10 -33,13l-60 36c-49,33 -116,101 -126,162 -1,9 -4,13 -2,20 5,-26 29,-71 42,-83 6,-14 29,-35 40,-46 4,-6 4,-6 10,-11 27,-21 57,-41 87,-56 117,-58 260,-74 388,-35 12,3 11,3 14,8 11,0 56,21 64,33 12,3 41,28 44,37 10,5 30,32 34,47 6,9 15,32 17,45l1 -7c0,-25 -18,-48 -21,-66 148,-4 172,144 50,197 -105,45 -227,-21 -187,-116 5,-12 17,-24 20,-34 -21,-16 -20,-21 -52,-39 -18,-10 -44,-21 -66,-25 -1,13 13,69 17,87 6,28 12,59 18,87 12,59 24,116 36,175 13,58 25,116 37,176 5,23 32,165 38,175 21,-1 489,-131 519,-139l551 -162c14,-4 28,-10 42,-13 29,-8 55,-18 84,-26 56,-16 112,-36 167,-53 112,-35 222,-73 330,-110 186,-65 454,-164 627,-252 68,-34 180,-92 232,-152 9,-11 14,-21 23,-32 18,2 33,11 53,1 12,-6 26,-21 28,-33 2,-12 7,-11 10,-41 2,-32 -1,-64 -6,-96 -2,-13 -7,-33 -7,-45 -1,-12 -26,-103 -30,-120 -30,-109 -74,-239 -108,-349 -7,-22 -139,-450 -145,-461 -5,2 -48,41 -60,50 -21,16 -40,30 -64,45 -258,168 -593,184 -867,39 -47,-25 -93,-55 -133,-87 -37,-29 -55,-47 -87,-79 -8,-7 -20,-24 -27,-27 -13,-4 -250,57 -283,65l-281 68c-62,15 -123,30 -187,46 -184,44 -377,90 -561,136 -15,4 -32,8 -47,11 -29,7 -22,4 -48,-3 -27,-7 -98,-12 -101,-15 -7,-7 -22,-113 -31,-124l2 14z"/>
   <path class="fil0" d="M1279 1458c4,-17 202,-506 223,-559 7,-17 30,-67 32,-83l-443 112c-5,-8 -18,-60 -18,-69l574 -147c16,72 21,37 -6,108 -40,104 -81,204 -120,310 -24,65 -53,137 -79,204l-29 77c-6,14 -3,15 -19,19 -19,5 -37,10 -55,14 -17,4 -44,13 -60,14zm-887 -624c37,-9 135,13 175,33 37,18 87,51 106,90l5 8c0,1 1,1 1,2l0 -5c52,-2 103,25 109,69 13,87 -140,146 -218,90 -17,-12 -32,-30 -32,-57 0,-34 23,-50 28,-60 -25,-30 -94,-66 -149,-66 0,13 35,164 41,189 30,130 55,252 82,382 4,23 35,182 42,192l-2 -14c9,11 24,117 31,124 3,3 74,8 101,15 26,7 19,10 48,3 15,-3 32,-7 47,-11 184,-46 377,-92 561,-136 64,-16 125,-31 187,-46l281 -68c33,-8 270,-69 283,-65l-44 -57c-95,-127 -155,-273 -172,-433 -2,-15 -3,-31 -5,-45 -1,-13 1,-40 -1,-50l0 -16c0,-51 0,-94 7,-142 6,-46 16,-82 25,-125 9,-62 94,-232 138,-281l-7 0c-11,-1 -372,85 -416,96 -203,49 -424,100 -629,144 -144,32 -279,65 -421,95 -70,15 -141,34 -212,48l-4 10c-5,10 -2,14 3,36 4,14 10,36 11,51z"/>
   <path class="fil0" d="M3357 1562c6,11 138,439 145,461 34,110 78,240 108,349 4,17 29,108 30,120l5 10c2,4 2,7 4,11l20 63c8,26 20,60 26,86l41 127 40 128c3,7 26,77 25,84l-11 3 9 -1 2 14 -2812 728c0,-1 0,-2 -1,-2l-21 -99c-17,-76 -139,-698 -143,-702 -21,-11 -97,-5 -121,-1 -37,6 -72,18 -101,32 0,19 9,54 12,74 7,36 41,211 39,222 6,7 6,26 7,34l-14 -1 13 5c2,4 6,16 -1,14 3,7 4,13 5,24 3,14 2,10 8,15 13,77 28,154 41,229 7,39 14,77 21,114 4,18 21,104 19,115l5 21 19 104 4 8c49,-8 162,-39 209,-52 205,-54 418,-104 622,-158 136,-36 276,-71 413,-106 138,-36 277,-72 415,-106 277,-69 553,-144 829,-212 138,-34 275,-72 414,-106 104,-25 206,-54 311,-79l77 -20c14,-3 18,-4 21,-11l-591 -1710c-7,1 -12,15 -17,21 -27,40 -55,75 -87,109 -7,8 -12,13 -20,21 -7,7 -16,14 -19,20z"/>
   <path class="fil0" d="M776 3943c2,18 2,5 13,13 5,4 77,87 82,89 15,0 83,-19 103,-24 34,-9 66,-17 100,-25 66,-15 133,-34 200,-50 134,-31 268,-66 401,-99 533,-135 1069,-263 1604,-398 35,-9 790,-193 800,-200 3,-23 3,-51 4,-75 1,-13 1,-24 2,-37 2,-26 -2,-26 8,-31 0,-9 0,-3 -2,-5 -3,7 -7,8 -21,11l-77 20c-105,25 -207,54 -311,79 -139,34 -276,72 -414,106 -276,68 -552,143 -829,212 -138,34 -277,70 -415,106 -137,35 -277,70 -413,106 -204,54 -417,104 -622,158 -47,13 -160,44 -209,52l-4 -8z"/>
   <path class="fil0" d="M987 3645c-6,-10 -33,-152 -38,-175 -12,-60 -24,-118 -37,-176 -12,-59 -24,-116 -36,-175 -6,-28 -12,-59 -18,-87 -4,-18 -18,-74 -17,-87 22,4 48,15 66,25 32,18 31,23 52,39 -3,10 -15,22 -20,34 -40,95 82,161 187,116 122,-53 98,-201 -50,-197 3,18 21,41 21,66l1 3c4,9 -1,-5 2,4 2,7 1,15 0,22l-1 28c-21,15 -70,34 -98,13l-4 -35c-2,-8 -6,-20 -11,-29 -4,-9 -12,-19 -15,-27 -5,-4 -18,-20 -24,-25l-25 -21c-1,-1 -1,-1 -1,-1 -2,-1 -44,-23 -84,-33l-12 -5c-15,3 -110,-22 -223,34 -11,5 -19,10 -28,16 -9,6 -20,15 -26,16l-5 7c-22,21 -27,21 -49,53 -5,7 -8,14 -13,20 -4,13 -21,52 -18,71 1,10 0,4 3,7 3,-19 -1,-24 10,-50 8,-16 14,-27 23,-39 16,-21 44,-50 65,-62 1,1 1,1 1,2 1,0 1,1 2,1 0,0 1,2 1,3l0 -9 27 -15c6,9 37,204 45,242 5,23 9,63 16,82 0,-4 -1,-9 -2,-15 -1,-7 -2,-12 -1,-17 2,-11 -32,-186 -39,-222 -3,-20 -12,-55 -12,-74 29,-14 64,-26 101,-32 24,-4 100,-10 121,1 4,4 126,626 143,702l20 1z"/>
   <path class="fil0" d="M470 2255c4,4 4,12 3,20l10 1c1,3 3,5 3,9 0,10 2,5 -3,9l4 18c1,9 6,24 5,32 -1,45 32,196 40,245 14,86 33,176 47,260 1,7 2,11 -2,16 38,-14 65,-22 108,-31 59,-12 88,-3 130,-6l-2 -10c1,13 0,6 -2,9 -14,-1 -11,-9 -14,-23l-86 -429c-26,-132 -56,-266 -83,-398 -3,-16 -7,-42 -13,-56 -79,-6 -134,10 -195,38 -2,13 32,186 38,223 3,17 13,58 12,73z"/>
   <path class="fil0" d="M219 865c26,-7 49,-16 80,-22 16,-4 79,-14 93,-9 -1,-15 -7,-37 -11,-51 -5,-22 -8,-26 -3,-36l4 -10c71,-14 142,-33 212,-48 142,-30 277,-63 421,-95 205,-44 426,-95 629,-144 44,-11 405,-97 416,-96l5 -3c4,-2 1,0 4,-2 4,-3 4,-4 6,-7 17,-22 76,-88 77,-89l-125 27c-41,9 -81,18 -122,27 -82,17 -164,38 -245,55 -84,17 -165,36 -247,54l-980 217c-29,7 -236,50 -245,56l31 176z"/>
   <path class="fil0" d="M242 992c6,7 39,206 40,214l107 591c3,15 9,41 9,55 58,-20 126,-42 197,-39 -10,-28 -16,-75 -23,-108 -39,-180 -76,-366 -115,-549l-42 -206c-1,-6 -1,-8 -5,-12 -13,-12 -103,6 -133,15 -11,4 -26,12 -37,15l2 24z"/>
   <path class="fil0" d="M3633 946c-6,151 -77,315 -161,432 -105,148 -253,253 -424,314 -9,3 -17,6 -28,9 -6,2 -10,3 -15,4 -191,54 -393,45 -577,-33 -51,-22 -100,-48 -145,-78 -10,-7 -35,-22 -42,-32 -9,-3 -45,-35 -53,-42 -18,-15 -34,-32 -49,-47 -15,-15 -79,-86 -87,-108 -11,-9 -45,-71 -56,-91 -13,-24 -40,-76 -45,-104 -18,-32 -41,-139 -47,-184l-7 -68c2,10 0,37 1,50 2,14 3,30 5,45 17,160 77,306 172,433l44 57c7,3 19,20 27,27 32,32 50,50 87,79 40,32 86,62 133,87 274,145 609,129 867,-39 24,-15 43,-29 64,-45 12,-9 55,-48 60,-50 3,-6 12,-13 19,-20 8,-8 13,-13 20,-21 32,-34 60,-69 87,-109 5,-6 10,-20 17,-21l591 1710c2,2 2,-4 2,5 -10,5 -6,5 -8,31 -1,13 -1,24 -2,37 -1,24 -1,52 -4,75 -10,7 -765,191 -800,200 -535,135 -1071,263 -1604,398 -133,33 -267,68 -401,99 -67,16 -134,35 -200,50 -34,8 -66,16 -100,25 -20,5 -88,24 -103,24 -5,-2 -77,-85 -82,-89 -11,-8 -11,5 -13,-13l-19 -104c-9,-6 -2,-2 -5,0 4,24 9,48 13,71 7,40 2,40 22,61l80 87c16,0 79,-18 98,-23 33,-9 67,-17 100,-25 199,-48 395,-99 595,-147 131,-32 266,-66 396,-99l1587 -394c65,-16 130,-33 197,-49 32,-7 183,-47 202,-48 14,-8 33,-7 48,-14 3,-32 2,-63 5,-95 4,-42 5,-55 -7,-89 -17,-49 -35,-98 -51,-148 -32,-99 -68,-195 -102,-294 -67,-198 -137,-391 -204,-590l-102 -296c-34,-94 -69,-198 -102,-294 -31,-90 -32,-52 14,-139 71,-135 98,-295 98,-449l-4 -47c-1,22 1,45 0,68 0,19 -2,42 -2,60z"/>
   <path class="fil0" d="M757 3839l-5 -21 -1 13c-4,-11 1,3 -1,-3l-4 -22c-1,-9 -3,-18 -5,-27l-29 -165c-9,-49 -36,-184 -40,-221l-34 0c14,63 23,129 35,194 24,128 45,261 70,386 4,20 1,26 15,41 14,15 76,81 80,88l8 0c7,-4 360,-90 399,-100 129,-32 273,-71 401,-100 68,-16 133,-33 201,-50 64,-16 132,-33 198,-49 66,-17 133,-34 199,-50 51,-12 151,-36 199,-50 33,-9 69,-17 102,-25 32,-7 67,-16 100,-25 131,-34 268,-65 399,-99 67,-18 132,-32 199,-50 67,-18 136,-32 201,-50 33,-9 66,-16 100,-25 33,-8 66,-16 99,-25 66,-16 133,-32 199,-49 34,-9 180,-43 198,-51l2 -31c-19,1 -170,41 -202,48 -67,16 -132,33 -197,49l-1587 394c-130,33 -265,67 -396,99 -200,48 -396,99 -595,147 -33,8 -67,16 -100,25 -19,5 -82,23 -98,23l-80 -87c-20,-21 -15,-21 -22,-61 -4,-23 -9,-47 -13,-71 3,-2 -4,-6 5,0z"/>
   <path class="fil0" d="M1929 635c-9,43 -19,79 -25,125 -7,48 -7,91 -7,142l0 16 7 68c6,45 29,152 47,184 5,28 32,80 45,104 11,20 45,82 56,91 8,22 72,93 87,108 15,15 31,32 49,47 8,7 44,39 53,42 7,10 32,25 42,32 45,30 94,56 145,78 184,78 386,87 577,33 5,-1 9,-2 15,-4 11,-3 19,-6 28,-9 171,-61 319,-166 424,-314 84,-117 155,-281 161,-432 0,-18 2,-41 2,-60 1,-23 -1,-46 0,-68l-9 -72c6,-32 -38,-166 -56,-210l-25 -54c-4,-7 0,-3 -5,-6 -2,-21 -74,-124 -91,-145 -24,-31 -68,-80 -100,-107 -3,-3 -5,-4 -8,-7 -5,-5 -3,-4 -10,-7 -2,-4 -2,-3 -6,-7 -31,-26 -115,-88 -144,-97 -7,-9 -96,-46 -117,-53 -272,-103 -590,-51 -818,120 -33,25 -82,71 -94,80 -1,1 -60,67 -77,89 -2,3 -2,4 -6,7 -3,2 0,0 -4,2l-5 3 7 0c-44,49 -129,219 -138,281zm1055 -436c0,0 1,0 1,1l23 9c40,14 80,34 116,55 8,5 15,9 22,13 4,3 7,5 10,7l12 6 65 54c57,52 94,94 136,161 5,9 17,33 21,37 3,10 8,17 12,27 23,48 39,91 51,144 5,21 7,45 12,65l2 38c0,-2 -1,-5 -2,-7 -1,-4 -1,-3 -3,-5 7,98 15,97 -5,204 -4,21 -12,42 -15,62l-25 70c-105,255 -360,434 -649,434 -196,0 -300,-72 -319,-74 -2,-2 -1,-1 -4,-3 0,-1 -3,-3 -4,-3l-27 -14c-11,-7 -22,-14 -34,-22 -25,-16 -44,-30 -64,-47 -22,-18 -39,-36 -58,-55 -5,-5 -50,-50 -50,-60 -13,-10 -46,-65 -57,-84 -9,-16 -16,-31 -24,-47 -5,-11 -15,-40 -20,-47 -4,-20 -14,-44 -20,-65 -15,-54 -27,-126 -22,-182 1,-11 4,-30 3,-39 -4,-4 -1,2 -2,-5 -1,-2 -1,-3 -1,-5 0,-4 0,-11 0,-15 5,-50 15,-99 29,-145 7,-23 15,-45 24,-65 8,-20 23,-45 28,-62 4,-3 25,-40 29,-46 69,-107 169,-197 288,-254 134,-64 310,-89 459,-52 10,3 53,16 62,16z"/>
   <path class="fil0" d="M546 1905c-33,3 -65,12 -93,23 -16,7 -26,11 -40,19 -11,6 -26,18 -36,21 -4,7 -21,20 -26,25 -5,5 -19,22 -24,25 -3,10 -15,26 -21,38 -6,13 -11,28 -14,44l0 8 5 -11c8,-26 12,-37 32,-62 8,-11 42,-50 56,-52 4,-5 1,-2 6,-6 5,-4 15,-10 22,-12l57 302c1,-9 -2,-3 0,-12 1,-15 -9,-56 -12,-73 -6,-37 -40,-210 -38,-223 61,-28 116,-44 195,-38 6,14 10,40 13,56 27,132 57,266 83,398l86 429c3,14 0,22 14,23 2,-3 3,4 2,-9l-186 -895c49,3 121,35 141,61 -5,8 -14,15 -21,27 -22,38 -14,76 16,102 75,65 239,14 235,-85 -1,-51 -54,-82 -107,-84 4,17 18,34 19,55 1,1 1,2 1,2l2 5c0,1 1,7 2,7 0,6 0,11 0,17l-1 35c-28,17 -66,29 -96,12 -1,-28 -7,-35 -11,-57 -1,0 -22,-37 -23,-38l-36 -32c-8,-5 -14,-9 -22,-13l-21 -11c0,-1 -1,-1 -1,-1 0,-1 -1,-1 -1,-2 -8,1 -26,-7 -35,-10 -11,-3 -24,-5 -36,-7 -32,-4 -55,-2 -86,-1z"/>
   <path class="fil0" d="M2725 923c5,1 3,-1 11,11l29 42c7,-3 2,0 9,-6 2,-2 4,-5 5,-7l375 -419 97 -109 -338 295c-9,9 -104,95 -114,99 -8,-16 -30,-228 -39,-275 -4,8 -21,269 -24,319 -2,22 -8,18 -19,31 4,10 7,8 8,19z"/>
   <path class="fil0" d="M2146 535c-5,17 -20,42 -28,62 -9,20 -17,42 -24,65 -14,46 -24,95 -29,145 0,4 0,11 0,15 0,2 0,3 1,5 1,7 -2,1 2,5 -3,-26 19,-111 27,-136 13,-44 30,-81 48,-118 39,-78 91,-140 142,-190 107,-106 268,-187 466,-194 269,-10 510,150 628,363 32,58 82,180 83,247 2,2 2,1 3,5 1,2 2,5 2,7l-2 -38c-5,-20 -7,-44 -12,-65 -12,-53 -28,-96 -51,-144 -4,-10 -9,-17 -12,-27 -4,-4 -16,-28 -21,-37 -42,-67 -79,-109 -136,-161l-65 -54 -12 -6c-3,-2 -6,-4 -10,-7 -7,-4 -14,-8 -22,-13 -36,-21 -76,-41 -116,-55l-23 -9c0,-1 -1,-1 -1,-1 -9,0 -52,-13 -62,-16 -149,-37 -325,-12 -459,52 -119,57 -219,147 -288,254 -4,6 -25,43 -29,46z"/>
   <path class="fil0" d="M152 1015c-6,14 -32,32 -43,85 -2,6 -3,11 -3,18 0,9 3,17 4,16 0,-1 0,1 1,1 -1,-24 -2,-28 8,-50 14,-35 52,-79 85,-96 4,4 0,-3 3,4l1 -8c7,-3 18,-11 27,-12 1,6 2,13 3,19 1,3 1,8 2,11l2 -11 -2 -24c11,-3 26,-11 37,-15 30,-9 120,-27 133,-15 4,4 4,6 5,12l42 206c39,183 76,369 115,549 7,33 13,80 23,108l8 -1c-2,-26 -23,-91 -21,-111 -7,-10 -38,-169 -42,-192 -27,-130 -52,-252 -82,-382 -6,-25 -41,-176 -41,-189 55,0 124,36 149,66 -5,10 -28,26 -28,60 0,27 15,45 32,57 78,56 231,-3 218,-90 -6,-44 -57,-71 -109,-69l0 5c5,9 14,29 14,42 3,2 4,1 6,15l-1 49c-11,8 -27,15 -42,18 -22,5 -32,1 -49,-5 -3,-28 -7,-35 -11,-57 -4,-5 -9,-15 -13,-21 -5,-9 -10,-13 -14,-21 -7,-2 -10,-8 -16,-13 -15,-13 -29,-21 -46,-29l-9 -6c-8,0 -33,-10 -45,-13 -17,-4 -32,-6 -50,-7 -69,-2 -129,12 -187,45 -12,7 -25,17 -34,24 -8,6 -26,24 -30,27z"/>
   <path class="fil0" d="M207 993l48 270 -6 1c3,3 0,1 5,3 1,0 3,1 4,1l32 6 8 50c-3,6 -2,6 -2,15 -44,0 -83,-5 -121,-16 -23,-7 -82,-30 -93,-48 -12,-3 -41,-35 -48,-45 -26,-36 -25,-55 -32,-66 5,63 52,112 93,139 49,31 108,49 177,53 17,86 29,173 46,257 6,29 47,242 43,255l37 -16c0,-14 -6,-40 -9,-55l-107 -591c-1,-8 -34,-207 -40,-214l-2 11c-1,-3 -1,-8 -2,-11 -1,-6 -2,-13 -3,-19 -9,1 -20,9 -27,12l-1 8z"/>
   <path class="fil0" d="M544 2878c12,-3 21,-9 33,-13 4,-5 3,-9 2,-16 -14,-84 -33,-174 -47,-260 -8,-49 -41,-200 -40,-245 1,-8 -4,-23 -5,-32 -11,-3 -25,0 -35,4l-23 6c-10,3 -14,6 -27,8 -12,2 -23,1 -33,-1 -27,-7 -52,-17 -76,-30 -9,-5 -15,-7 -20,-15 -17,-11 -42,-29 -49,-45 -6,-2 -21,-27 -23,-34 -12,-13 -16,-54 -21,-60 -5,23 20,77 30,92 17,26 37,45 60,62 22,16 54,32 82,41 58,18 73,14 96,20 5,1 1,0 4,2 1,2 93,499 92,516z"/>
   <path class="fil0" d="M638 3393l34 0c4,37 31,172 40,221l29 165c2,9 4,18 5,27l4 22c2,6 -3,-8 1,3l1 -13c2,-11 -15,-97 -19,-115 -7,-37 -14,-75 -21,-114 -13,-75 -28,-152 -41,-229 -6,-5 -5,-1 -8,-15 -1,-11 -2,-17 -5,-24l-5 1c-9,2 -12,-1 -22,0l-27 6c-3,1 -4,1 -9,1l-17 2c0,-1 -1,0 -1,0 7,0 5,0 10,2 -15,0 -20,2 -31,4 -26,5 -22,0 -45,6 -11,3 -46,-16 -58,-23 -16,-9 -43,-30 -55,-46 -2,-5 -16,-22 -22,-30 -6,-10 -14,-26 -17,-39 -2,-6 -4,-11 -5,-17l-4 -18c0,-1 0,-2 -1,-2 -2,72 54,134 96,162 96,64 183,55 193,63z"/>
   <path class="fil0" d="M3154 544l-375 419c-1,2 -3,5 -5,7 -7,6 -2,3 -9,6l-29 -42c-8,-12 -6,-10 -11,-11l-9 8 49 71c8,-3 53,-55 62,-66 21,-23 39,-43 61,-68 42,-47 78,-85 120,-134 41,-48 80,-87 120,-135 30,-35 63,-68 91,-102 9,-10 23,-23 30,-34 -12,7 -36,31 -48,41l-47 40z"/>
   <path class="fil0" d="M219 865c-53,22 -94,45 -133,80 -17,15 -33,32 -50,57 -11,16 -31,55 -30,75l-1 13c4,-13 7,-22 12,-34 5,-23 31,-57 44,-70 38,-41 81,-70 132,-92 14,-6 23,-11 40,-16 14,-5 28,-8 43,-13 69,-21 184,-20 260,6l9 3c24,10 77,33 88,53 9,2 38,36 42,49 8,8 16,32 18,46l1 1 -1 -14c0,-13 -9,-33 -14,-42 0,-1 -1,-1 -1,-2l-5 -8c-19,-39 -69,-72 -106,-90 -40,-20 -138,-42 -175,-33 -14,-5 -77,5 -93,9 -31,6 -54,15 -80,22z"/>
   <path class="fil0" d="M568 3001l53 292 -10 0c6,6 24,8 35,9l14 1c-1,-8 -1,-27 -7,-34 -1,5 0,10 1,17 1,6 2,11 2,15 -7,-19 -11,-59 -16,-82 -8,-38 -39,-233 -45,-242l-27 15 0 9z"/>
   <path class="fil0" d="M385 1983l50 280 -10 -2c8,7 38,12 48,14 1,-8 1,-16 -3,-20 -2,9 1,3 0,12l-57 -302c-7,2 -17,8 -22,12 -5,4 -2,1 -6,6z"/>
   <path class="fil0" d="M596 1029c4,22 8,29 11,57 17,6 27,10 49,5 15,-3 31,-10 42,-18l1 -49c-2,-14 -3,-13 -6,-15l1 14 -1 -1c-2,-14 -10,-38 -18,-46 -4,-13 -33,-47 -42,-49 -11,-20 -64,-43 -88,-53l-9 -3c-76,-26 -191,-27 -260,-6 -15,5 -29,8 -43,13 -17,5 -26,10 -40,16 -51,22 -94,51 -132,92 -13,13 -39,47 -44,70 -5,12 -8,21 -12,34l1 -13c-4,3 -4,6 -5,14 -1,6 -1,10 -1,16l2 57c7,11 6,30 32,66 7,10 36,42 48,45 11,18 70,41 93,48 38,11 77,16 121,16 0,-9 -1,-9 2,-15 -3,-4 -7,-27 -9,-34 -53,-5 -88,-28 -97,-28 -7,-10 -77,-43 -84,-113l-1 -11c-4,8 1,3 3,5l1 -8c-1,0 -1,-2 -1,-1 -1,1 -4,-7 -4,-16 0,-7 1,-12 3,-18 11,-53 37,-71 43,-85 4,-3 22,-21 30,-27 9,-7 22,-17 34,-24 58,-33 118,-47 187,-45 18,1 33,3 50,7 12,3 37,13 45,13l9 6c17,8 31,16 46,29 6,5 9,11 16,13 4,8 9,12 14,21 4,6 9,16 13,21z"/>
   <path class="fil0" d="M807 2020c4,22 10,29 11,57 30,17 68,5 96,-12l1 -35c0,-6 0,-11 0,-17 -1,0 -2,-6 -2,-7l-2 -5c0,0 0,-1 -1,-2l0 12c-5,-14 -10,-34 -19,-46 -8,-19 -45,-61 -62,-67 -6,-9 -24,-18 -34,-23 -8,-4 -28,-15 -38,-16 -7,-7 -26,-11 -35,-13 -12,-4 -25,-7 -38,-9 -62,-10 -111,-7 -173,1 -8,1 -13,3 -20,5 -60,15 -56,11 -121,40 -50,22 -137,85 -154,128 -7,7 -18,29 -21,42l-10 26 1 -14 -6 37 0 43c5,6 9,47 21,60 2,7 17,32 23,34 7,16 32,34 49,45 5,8 11,10 20,15 24,13 49,23 76,30 10,2 21,3 33,1 13,-2 17,-5 27,-8l23 -6c10,-4 24,-7 35,-4l-4 -18c-6,-4 -18,-5 -25,-6 -10,-2 -16,-3 -26,-6 -11,-3 -37,-15 -43,-15 -3,-4 0,-1 -4,-4l-28 -18c-10,-7 -21,-21 -27,-22 -3,-6 -19,-29 -22,-33 -4,-11 -9,-19 -14,-37 -4,-17 1,-14 1,-15l-3 -30 0 -5c-7,3 -1,-2 -6,1 5,-3 -1,0 6,-4 3,-16 8,-31 14,-44 6,-12 18,-28 21,-38 5,-3 19,-20 24,-25 5,-5 22,-18 26,-25 10,-3 25,-15 36,-21 14,-8 24,-12 40,-19 28,-11 60,-20 93,-23 31,-1 54,-3 86,1 12,2 25,4 36,7 9,3 27,11 35,10 0,1 1,1 1,2 0,0 1,0 1,1l21 11c8,4 14,8 22,13l36 32c1,1 22,38 23,38z"/>
   <path class="fil0" d="M997 3063l4 35c28,21 77,2 98,-13l1 -28c1,-7 2,-15 0,-22 -3,-9 2,5 -2,-4l-1 -3 -1 7c-2,-13 -11,-36 -17,-45 -4,-15 -24,-42 -34,-47 -3,-9 -32,-34 -44,-37 -8,-12 -53,-33 -64,-33 -3,-5 -2,-5 -14,-8 -128,-39 -271,-23 -388,35 -30,15 -60,35 -87,56 -6,5 -6,5 -10,11 -11,11 -34,32 -40,46 -13,12 -37,57 -42,83 -2,-7 1,-11 2,-20 -8,11 -10,42 -10,54l1 38c1,0 1,1 1,2l4 18c1,6 3,11 5,17 3,13 11,29 17,39 6,8 20,25 22,30 12,16 39,37 55,46 12,7 47,26 58,23 23,-6 19,-1 45,-6 11,-2 16,-4 31,-4 -5,-2 -3,-2 -10,-2 0,0 1,-1 1,0l17 -2c5,0 6,0 9,-1l27 -6c10,-1 13,2 22,0l-10 -4c-34,-6 -66,-15 -95,-34 -9,-5 -23,-16 -27,-18 -6,-9 -22,-19 -38,-46 -3,-5 -8,-15 -10,-18l-9 -32c0,-8 -2,-12 1,-16l1 -8c-3,-3 -2,3 -3,-7 -3,-19 14,-58 18,-71 5,-6 8,-13 13,-20 22,-32 27,-32 49,-53l5 -7c6,-1 17,-10 26,-16 9,-6 17,-11 28,-16 113,-56 208,-31 223,-34l12 5c40,10 82,32 84,33 0,0 0,0 1,1l25 21c6,5 19,21 24,25 3,8 11,18 15,27 5,9 9,21 11,29z"/>
   <path class="fil0" d="M464 3170l9 32c2,3 7,13 10,18 16,27 32,37 38,46 4,2 18,13 27,18 29,19 61,28 95,34l10 4 5 -1c7,2 3,-10 1,-14l-13 -5c-11,-1 -29,-3 -35,-9 -26,0 -78,-34 -94,-49 -15,-13 -53,-59 -52,-90 -3,4 -1,8 -1,16z"/>
   <path class="fil0" d="M308 2190c3,4 19,27 22,33 6,1 17,15 27,22l28 18c4,3 1,0 4,4 6,0 32,12 43,15 10,3 16,4 26,6 7,1 19,2 25,6 5,-4 3,1 3,-9 0,-4 -2,-6 -3,-9l-10 -1c-10,-2 -40,-7 -48,-14 -20,1 -69,-32 -82,-45 -15,-14 -46,-50 -48,-78 0,1 -5,-2 -1,15 5,18 10,26 14,37z"/>
   <path class="fil0" d="M108 1149c7,70 77,103 84,113 9,0 44,23 97,28 2,7 6,30 9,34l-8 -50 -32 -6c-1,0 -3,-1 -4,-1 -5,-2 -2,0 -5,-3 -23,2 -73,-29 -89,-43 -20,-17 -43,-46 -50,-78 -2,-2 -7,3 -3,-5l1 11z"/>
  </g>
 </g>
</svg>
