<?xml version="1.0" encoding="UTF-8"?>
<!DOCTYPE svg PUBLIC "-//W3C//DTD SVG 1.1//EN" "http://www.w3.org/Graphics/SVG/1.1/DTD/svg11.dtd">
<!-- Creator: CorelDRAW X7 -->
<svg xmlns="http://www.w3.org/2000/svg" xml:space="preserve" width="5.501mm" height="5.501mm" version="1.1" style="shape-rendering:geometricPrecision; text-rendering:geometricPrecision; image-rendering:optimizeQuality; fill-rule:evenodd; clip-rule:evenodd"
viewBox="0 0 80 80"
 xmlns:xlink="http://www.w3.org/1999/xlink">
 <defs>
  <style type="text/css">
   <![CDATA[
    .fil0 {fill:#1A1A1A}
   ]]>
  </style>
 </defs>
 <g id="Capa_x0020_1">
  <metadata id="CorelCorpID_0Corel-Layer"/>
  <path class="fil0" d="M53 18l-26 0 0 -4c0,-1 1,-3 2,-4 0,-1 1,-2 2,-2 1,-1 3,0 4,0l12 0c1,0 3,0 4,2 1,0 1,1 1,2 1,0 1,1 1,2l0 4zm-40 62l67 0 0 -31 -13 0 0 8 -6 0c0,0 0,-7 0,-8l-30 0 0 8 -6 0c0,0 0,-7 0,-8l-12 0 0 31zm67 0l0 0 0 0 -67 0 0 0 -13 0 0 -62 13 0 7 0c0,-1 0,-3 0,-4 0,0 0,0 0,0 0,-1 0,-2 0,-2 1,-2 1,-4 2,-5 1,-2 2,-3 4,-5 0,0 1,0 1,0 1,-1 1,-1 1,-1 2,-1 2,-1 4,-1 0,0 1,0 2,0l13 0c1,0 3,0 4,1 0,0 0,0 0,0 1,0 1,0 2,1 0,0 1,1 2,1l2 2c0,1 0,1 1,2 0,1 1,2 1,3l0 1c0,0 1,2 1,3 0,0 0,0 0,0l0 4 20 0 0 28c0,0 0,1 0,1 0,0 0,1 0,2l0 0 0 31z"/>
 </g>
</svg>
