<?xml version="1.0" encoding="UTF-8"?>
<!DOCTYPE svg PUBLIC "-//W3C//DTD SVG 1.1//EN" "http://www.w3.org/Graphics/SVG/1.1/DTD/svg11.dtd">
<!-- Creator: CorelDRAW X7 -->
<svg xmlns="http://www.w3.org/2000/svg" xml:space="preserve" width="5.501mm" height="5.501mm" version="1.1" style="shape-rendering:geometricPrecision; text-rendering:geometricPrecision; image-rendering:optimizeQuality; fill-rule:evenodd; clip-rule:evenodd"
viewBox="0 0 74 74"
 xmlns:xlink="http://www.w3.org/1999/xlink">
 <defs>
  <style type="text/css">
   <![CDATA[
    .fil0 {fill:#1A1A1A}
   ]]>
  </style>
 </defs>
 <g id="Capa_x0020_1">
  <metadata id="CorelCorpID_0Corel-Layer"/>
  <path class="fil0" d="M12 62l50 0c0,-3 0,-6 0,-10 0,-3 0,-6 -1,-9 -2,-4 -7,-6 -8,-5 0,0 -3,5 -10,7 -8,2 -16,0 -21,-6l-1 -1c-2,0 -4,1 -6,3 -3,4 -3,8 -3,13 0,3 0,6 0,8zm26 -58c-18,0 -22,19 -15,28 14,16 37,0 30,-17 -2,-5 -6,-9 -11,-10 -1,0 -4,-1 -4,-1zm-1 -4c21,0 37,17 37,37 0,21 -16,37 -37,37 -20,0 -37,-16 -37,-37 0,-20 17,-37 37,-37z"/>
 </g>
</svg>
