<?xml version="1.0" encoding="UTF-8"?>
<!DOCTYPE svg PUBLIC "-//W3C//DTD SVG 1.1//EN" "http://www.w3.org/Graphics/SVG/1.1/DTD/svg11.dtd">
<!-- Creator: CorelDRAW X7 -->
<svg xmlns="http://www.w3.org/2000/svg" xml:space="preserve" width="5.501mm" height="5.501mm" version="1.1" style="shape-rendering:geometricPrecision; text-rendering:geometricPrecision; image-rendering:optimizeQuality; fill-rule:evenodd; clip-rule:evenodd"
viewBox="0 0 74 74"
 xmlns:xlink="http://www.w3.org/1999/xlink">
 <defs>
  <style type="text/css">
   <![CDATA[
    .fil0 {fill:#1A1A1A}
   ]]>
  </style>
 </defs>
 <g id="Capa_x0020_1">
  <metadata id="CorelCorpID_0Corel-Layer"/>
  <path class="fil0" d="M2 25c-1,1 -2,9 -2,10 -1,9 3,19 9,26 0,1 2,3 3,3 0,0 1,1 1,1 5,5 11,7 17,9 14,3 29,-3 37,-15 1,-1 4,-6 4,-6 1,-1 3,-9 3,-11 2,-16 -6,-30 -19,-38 -9,-4 -19,-5 -28,-3 -9,3 -18,10 -22,18 -1,1 -3,5 -3,6zm55 -7c1,0 9,8 8,20 -1,15 -11,21 -11,22 -1,0 -8,6 -19,5 -12,-1 -21,-9 -25,-20 -2,-7 -1,-15 3,-22 1,-1 3,-5 4,-5 1,-2 6,-5 8,-6 7,-4 18,-4 26,1 4,2 4,3 6,5zm-22 28l-5 0c0,0 7,10 7,10 1,0 7,-10 7,-10 -1,0 -4,0 -5,0l0 -12 -4 0 0 12zm-13 -1l8 0 1 -3 -6 0 0 -17 24 0 0 17c0,0 -5,0 -5,0l0 3 8 0 0 -23 -30 0 0 23z"/>
 </g>
</svg>
