<?xml version="1.0" encoding="UTF-8"?>
<!DOCTYPE svg PUBLIC "-//W3C//DTD SVG 1.1//EN" "http://www.w3.org/Graphics/SVG/1.1/DTD/svg11.dtd">
<!-- Creator: CorelDRAW X7 -->
<svg xmlns="http://www.w3.org/2000/svg" xml:space="preserve" width="5.501mm" height="5.501mm" version="1.1" style="shape-rendering:geometricPrecision; text-rendering:geometricPrecision; image-rendering:optimizeQuality; fill-rule:evenodd; clip-rule:evenodd"
viewBox="0 0 189 189"
 xmlns:xlink="http://www.w3.org/1999/xlink">
 <defs>
  <style type="text/css">
   <![CDATA[
    .fil0 {fill:#1A1A1A}
   ]]>
  </style>
 </defs>
 <g id="Capa_x0020_1">
  <metadata id="CorelCorpID_0Corel-Layer"/>
  <path class="fil0" d="M71 38l-21 5c0,0 0,-3 0,-3l26 -7c1,6 -12,33 -12,33 -1,0 -4,1 -5,1 0,-1 12,-28 12,-29zm-65 17c0,1 1,2 1,2 0,0 -1,-1 -1,-2zm-1 -2l0 0c0,0 0,0 0,0 0,-3 2,-6 4,-7 1,1 2,11 3,13 -3,0 -7,-4 -7,-6zm0 0c0,0 0,0 0,0 0,0 0,0 0,0zm15 51c-7,1 -8,-11 -2,-12l2 13 0 -1zm2 44c0,0 0,0 0,0l0 0zm8 5l0 0zm-1 -1c0,0 -1,0 -1,0 0,0 1,0 1,0zm-1 0c-2,0 -7,-3 -7,-6 0,0 0,0 0,0 1,-3 2,-6 5,-8 1,2 2,11 3,14l-1 0zm-7 -6c0,0 0,0 0,0 0,0 0,0 0,0zm25 -5l0 1c0,0 0,-1 0,-1l0 0zm5 0c0,-1 0,-1 0,-1 0,0 0,0 0,1zm0 -1l0 0c0,0 0,-1 0,-1 0,0 0,1 0,1zm0 0c-2,-6 -6,-5 -8,-7 4,1 7,3 8,7zm-27 -6c-3,2 -6,5 -8,9 1,-4 4,-7 8,-9zm-8 9c0,0 0,0 0,0 0,0 0,0 0,0zm60 37c3,-1 6,-1 9,-2 3,-1 6,-2 9,-2 4,-1 7,-2 10,-3 2,0 7,-1 9,-2 1,-1 3,-1 5,-1 1,-1 3,-1 4,-1 6,-2 13,-3 19,-5 3,-1 6,-1 9,-2 3,-1 6,-2 9,-3 2,0 3,0 5,-1 3,0 22,-5 23,-5l0 -2c0,0 1,0 2,-1 0,-1 0,-2 0,-4 0,-2 0,-2 0,-4 -1,-2 -2,-5 -2,-7 -2,-4 -4,-9 -5,-13 -3,-10 -7,-18 -10,-28l-4 -13c-2,-5 -4,-9 -5,-14 -2,-4 -2,-2 1,-6 3,-6 4,-14 4,-21l0 -2c0,0 0,1 0,1 0,-6 -3,-15 -4,-17 -2,-11 -38,-37 -65,-10l-11 2c-4,1 -8,2 -11,3 -4,1 -8,2 -12,2 -6,2 -53,11 -56,13l1 8c-14,6 -14,22 3,23 0,3 4,21 4,23 3,-1 7,-2 11,-2 -7,1 -19,3 -20,12l1 -1c-2,10 17,17 16,38 4,-1 9,-2 13,-2 -13,1 -24,5 -22,15l0 0c0,9 13,10 13,11 3,4 3,25 6,28 1,1 3,4 4,4 5,0 30,-7 37,-9zm-58 -30c-1,0 -1,0 -1,-1 0,1 0,1 1,1zm0 1c0,0 0,0 0,0 0,0 0,0 0,0zm9 3l0 0zm1 0l0 0c0,0 0,0 0,0zm1 -1c1,0 1,0 1,0 0,0 -1,0 -1,0zm13 -59c0,0 0,-1 0,-1l0 1zm0 -2l0 1c0,-1 0,-1 0,-1 0,0 0,0 0,0zm-7 -6l0 0c0,0 0,0 0,0zm-3 -1c-4,-1 -9,0 -13,1 4,-1 9,-2 13,-1zm-11 22c0,0 1,0 1,0 0,0 -1,0 -1,0zm1 0c0,0 0,0 0,0 0,0 0,0 0,0zm-9 -10l0 0c0,0 0,0 0,0 0,0 0,0 0,0 0,0 0,0 1,0 -1,0 -1,0 -1,0zm6 -7c1,0 2,-1 2,-1 0,0 -1,1 -2,1zm6 -2c1,0 2,0 3,0 -1,0 -1,0 -3,0zm7 -41l0 0c0,0 0,-1 0,-1 0,0 0,1 0,1zm-4 -5c-1,-1 -2,-1 -2,-1 0,0 1,0 2,1zm-15 -2c2,0 4,-1 7,0 -3,-1 -5,0 -7,0zm-8 12c0,0 0,0 0,0l0 0zm0 -2c1,-1 1,-2 1,-2 0,0 0,1 -1,2zm21 -4l0 0zm-4 58l0 0c0,-1 -1,-2 -1,-4 0,2 1,4 1,4zm0 1c0,0 0,0 0,0 0,0 0,0 0,0zm-3 -14c0,0 0,0 -1,0 1,0 1,0 1,0zm11 60c0,0 0,0 0,0 0,0 0,0 0,0zm0 1c0,0 0,0 0,0 0,0 0,0 0,0zm2 -107c-1,0 -1,0 -1,0l1 0zm-6 -5c-2,-1 -6,-2 -8,-1 3,-1 6,0 8,1zm120 -15l-18 20c8,-8 15,-16 22,-25l-15 14c-1,0 -5,4 -6,4 0,0 -1,-10 -2,-12 0,0 0,12 -1,15 0,1 0,0 -1,1 1,0 1,0 1,1l-1 0 3 3c0,0 5,-5 5,-6 3,-3 17,-18 17,-18l-4 3zm-111 152c0,-1 0,-1 0,-1 0,0 0,1 0,1l0 -1 0 1zm-1 -7l-2 -10c0,3 1,7 2,10zm-3 -15c0,0 0,-1 -1,-2 1,1 1,1 1,2zm-20 -109l0 0c0,0 0,0 0,0l0 0zm16 33c0,-1 -2,-11 -3,-12l3 12zm-6 -27c0,-1 -2,-8 -2,-8l2 8zm4 -2c0,2 3,3 6,3 -3,1 -6,1 -6,-3zm11 -2c0,-2 -2,-3 -4,-3 4,-1 5,1 4,3zm63 -23c0,1 -1,2 -1,3 0,0 -1,1 -1,2 2,-7 7,-14 16,-18 -10,5 -13,13 -14,13zm-3 12c1,-8 4,-14 10,-19 4,-5 12,-8 21,-9 13,0 24,7 29,17 2,3 4,8 4,11 1,21 -13,36 -32,36 -9,0 -14,-3 -15,-4 0,0 -11,-7 -11,-9 -3,-2 -7,-12 -6,-23zm64 0c0,0 0,0 0,1l0 -1zm0 -1c0,-1 0,-2 0,-3 -1,-2 -2,-4 -3,-6 0,-1 0,-1 0,-2 -2,-2 -3,-4 -4,-5 4,4 6,9 7,16zm-22 -27c0,0 -2,0 -2,0 1,0 2,0 2,0zm-11 -1c-4,0 -9,1 -13,3 5,-2 10,-3 13,-3zm-107 86c0,-2 -1,-3 -1,-3 0,0 1,1 1,3zm18 36l0 0c0,0 0,0 0,1l0 -1zm-3 -38c0,0 0,0 0,0 0,0 0,0 0,0zm-1 2c0,2 0,3 1,4 -1,-1 -1,-3 -1,-4zm1 4c2,1 6,1 8,0 -2,2 -5,2 -8,0zm11 -5c0,-2 -2,-3 -5,-3 4,0 5,2 5,3zm-5 -3c0,0 0,1 1,1 -1,0 -1,-1 -1,-1zm48 -60c-1,6 -2,13 -1,18 -2,-11 0,-23 7,-31 -2,2 -6,10 -6,13zm14 42c0,0 0,0 0,0 0,0 0,0 0,0zm1 0c10,8 24,10 36,6l-1 1c-9,2 -18,2 -27,-2 -2,-1 -4,-2 -7,-3 0,-1 -1,-1 -1,-2zm63 -21c0,-3 1,-6 1,-10 0,4 0,6 -1,10zm1 -10c0,0 0,0 0,0 0,0 0,0 0,0zm-69 -29c0,0 -2,3 -3,4 1,-1 3,-4 3,-4zm-4 4c0,0 0,1 0,1l0 -1zm0 1l0 0c0,0 -6,1 -15,3 6,-1 15,-3 15,-3zm92 134c-1,0 -3,1 -6,1 3,0 5,-1 6,-1zm-12 3c-3,1 -6,1 -7,2 2,-1 5,-1 7,-2zm-98 24c-2,1 -21,5 -31,8l31 -8zm-42 -1c0,0 0,0 0,0 0,0 0,0 0,0zm18 7c-1,0 -1,0 -2,0l2 0zm-7 1c-3,1 -6,2 -6,2 0,0 3,-1 6,-2zm-10 -3l-1 -2c1,1 1,2 1,2l0 0zm62 -112c0,0 1,0 1,1 -1,-1 -2,-1 -4,-1 2,0 3,0 3,0zm6 5c8,6 18,9 28,8 -9,1 -19,0 -28,-8zm51 -3c0,0 0,0 0,0 0,0 0,0 0,0zm6 -7c0,0 0,-1 1,-1l-1 1zm-143 -26c0,-1 0,-2 0,-2 0,0 0,1 0,2zm-1 -4c0,0 0,0 1,-1 -1,1 -1,1 -1,1zm1 -1c10,-2 20,-4 30,-7 -13,3 -25,6 -30,7zm28 134c0,0 0,0 0,0 0,0 0,0 0,0zm-5 -22c-1,-3 -2,-9 -2,-10 0,0 1,4 2,10zm1 -9c1,1 1,1 2,2 -1,-1 -1,-1 -2,-2zm2 7c0,2 3,3 5,3 -3,0 -5,0 -5,-3zm12 -3c0,-2 -2,-4 -6,-4 6,0 7,2 6,4zm-6 -4c0,0 0,1 0,1 0,0 0,-1 0,-1zm-20 14c0,0 0,-3 -1,-5 1,2 1,5 1,5zm-2 -14c0,1 0,1 0,2 0,-1 0,-1 0,-2zm0 0c1,-1 3,-1 5,-1 -2,0 -4,1 -5,1zm14 20c-1,-6 -2,-13 -3,-17 1,4 2,11 3,17zm123 -32c3,0 4,-5 3,-12 3,10 6,20 6,22 1,0 2,3 2,4l-1 0 0 0 1 0 -130 34c0,0 -1,-2 -1,-5 7,1 109,-29 120,-43zm24 18c0,1 0,1 -1,1l-1 0c1,0 2,-1 2,-1zm-28 8c-3,0 -6,1 -9,2 3,-1 6,-2 9,-2zm-121 30c-2,1 -3,1 -4,1 1,0 2,0 4,-1zm115 -109c0,0 0,0 0,1 0,-1 0,-1 0,-1zm-87 5c-49,14 -37,6 -41,1 5,7 -10,11 41,-1zm22 32c-3,-13 -9,-32 -2,-33 7,-2 7,12 11,31 13,-4 33,-13 34,-5 1,7 -17,9 -32,13 4,21 9,30 2,34 -7,4 -9,-21 -11,-31 -13,3 -34,12 -34,5 -1,-3 1,-5 3,-6l29 -8z"/>
 </g>
</svg>
