<?xml version="1.0" encoding="UTF-8"?>
<!DOCTYPE svg PUBLIC "-//W3C//DTD SVG 1.1//EN" "http://www.w3.org/Graphics/SVG/1.1/DTD/svg11.dtd">
<!-- Creator: CorelDRAW X7 -->
<svg xmlns="http://www.w3.org/2000/svg" xml:space="preserve" width="5.501mm" height="5.501mm" version="1.1" style="shape-rendering:geometricPrecision; text-rendering:geometricPrecision; image-rendering:optimizeQuality; fill-rule:evenodd; clip-rule:evenodd"
viewBox="0 0 74 74"
 xmlns:xlink="http://www.w3.org/1999/xlink">
 <defs>
  <style type="text/css">
   <![CDATA[
    .fil0 {fill:#1A1A1A}
   ]]>
  </style>
 </defs>
 <g id="Capa_x0020_1">
  <metadata id="CorelCorpID_0Corel-Layer"/>
  <path class="fil0" d="M22 31c0,0 4,-3 5,-3 2,-1 5,2 2,4 -2,1 -9,7 -9,7 -2,2 -3,-1 -4,-2 -1,-2 -4,-10 -4,-11 0,-2 3,-3 4,-1 0,0 3,3 3,3 1,-2 1,-4 5,-7 10,-8 25,-5 31,6 2,3 -3,4 -4,2 0,0 -2,-3 -2,-3 -7,-8 -22,-7 -27,5 0,0 0,0 0,0zm1 14c0,2 4,5 6,6 10,6 21,0 24,-8 -2,1 -6,6 -8,3 -2,-2 1,-4 3,-5 2,-2 4,-4 6,-5 2,-2 4,-1 5,1l3 9c2,4 -2,5 -3,3 -1,0 -2,-4 -2,-4 -2,2 -2,5 -5,7 -6,5 -12,8 -20,5 -5,-1 -11,-5 -13,-10 -1,-2 2,-4 4,-2 0,0 0,0 0,0zm21 29c1,0 3,-1 3,-1 27,-7 37,-42 17,-62 -15,-15 -39,-15 -53,0 -22,21 -9,58 20,63 3,0 11,1 13,0z"/>
 </g>
</svg>
